<?xml version="1.0" encoding="utf-8"?>
<!-- Generator: Adobe Illustrator 22.1.0, SVG Export Plug-In . SVG Version: 6.00 Build 0)  -->
<svg version="1.1" xmlns="http://www.w3.org/2000/svg" xmlns:xlink="http://www.w3.org/1999/xlink" x="0px" y="0px"
	 viewBox="0 0 500 500" style="enable-background:new 0 0 500 500;" xml:space="preserve">
<style type="text/css">
	.st0{fill:#E6F0FC;}
	.st1{fill:#8AC0ED;}
	.st2{fill:#FFFFFF;}
	.st3{opacity:0.65;fill:#4545EF;}
	.st4{opacity:0.58;fill:#5151CE;}
	.st5{opacity:0.45;fill:#4545EF;}
	.st6{fill:#4747DD;}
	.st7{fill:#F8B7B0;}
	.st8{fill:#E85858;}
	.st9{fill:#1C1E38;}
	.st10{fill:#EAD6DC;}
	.st11{fill:#E04B4B;}
	.st12{fill:#FF6666;}
	.st13{fill:#6C59C7;}
	.st14{fill:#432AA5;}
	.st15{fill:#FF71A8;}
	.st16{clip-path:url(#SVGID_4_);}
	.st17{fill:#484848;}
	.st18{fill:#F8CAD7;}
	.st19{fill:#5353EA;}
	.st20{fill:#475EA8;}
	.st21{fill:#5A4EAD;}
	.st22{fill:#2E3192;}
	.st23{fill:#515151;}
</style>
<g id="Background">
</g>
<g id="Objects">
	<g>
		<g>
			<g>
				<defs>
					<path id="SVGID_1_" d="M368.7,267.2c0.1-1.3,0.6-3.6,2.1-5.2c4.2-4.6,9.6-1.3,10.2-3.5c0.3-1-1.5-2.8-3.4-3.4
						c-4.9-1.5-5,2.2-6.3,1.1c-1.6-1.3,5.2-8,2.3-14c-1.5-3.1-5.8-5.1-8.1-3.9c-1.8,1-2.1,3.9-2.2,4.5c-0.2,3,2.4,6.4,1.2,8.2
						c-2.3,3.5-1.8-5.1-8.1-3.7c-3.2,0.8-3.6,2.9-3.2,3.7c0.6,1.3,2.9,0.1,5.8,1.9c2.1,1.3,3.2,3.6,2.7,4.3
						c-0.6,0.7-3.1-1.5-5.7-0.4c-1.5,0.6-2.5,2.3-2.2,3.1c0.2,0.5,1.1,0.4,2.6,0.7c0.9,0.2,4.8,0.9,5.7,3.2c0.2,0.4,0.5,1.5-0.5,3.3
						H368.7z"/>
				</defs>
				<clipPath id="SVGID_2_">
					<use xlink:href="#SVGID_1_"  style="overflow:visible;"/>
				</clipPath>
			</g>
		</g>
	</g>
	<g>
		<g>
			<g>
				<path class="st0" d="M177,105.3c-5.1,8.1-24.9,39.2-19.4,80.2c1.2,8.7,6.7,49.6,36.7,68.2c39.8,24.5,80.1-16.4,124.4,1.8
					c38.2,15.6,19.9,70.1,59.9,92.6c20.9,11.7,50.8,12.8,69.9,1.4c59.5-35.4,75.7-228.3-32.5-294.9C337.3,6,218.3,40.2,177,105.3z"
					/>
			</g>
			<path class="st1" d="M385.8,344.5c-17.5,0-37.7-9-49.9-23.1c-13.5-15.5-12.3-33.2-11.2-50.4c1.1-16.9,2.2-33-11.3-45.1
				c-15.1-13.6-33.6-15.6-51.5-17.5c-19.9-2.2-38.7-4.2-52.3-21.2c-12.7-15.9-16.5-40.2-10.5-68.5c3.5-16.5,13.3-40.5,40.4-61.6
				l0.3,0.3l-0.3-0.3c26.4-20.6,67.1-30.1,109-25.5c44.2,4.9,83.2,24.8,107.1,54.5c32.9,41.1,38.8,103.4,15.6,166.8
				c-17.9,48.8-48.7,85.3-76.8,90.7C391.6,344.2,388.7,344.5,385.8,344.5z M327.8,31.3c-34.1,0-65.9,9.4-87.8,26.5
				c-26.8,20.9-36.6,44.8-40.1,61.1c-6,28-2.3,52,10.3,67.7c13.4,16.8,32.1,18.8,51.8,20.9c18,2,36.6,4,51.9,17.7
				c13.8,12.4,12.7,28.6,11.6,45.8c-1.1,17-2.3,34.5,11,49.8c14.1,16.2,38.9,25.7,57.7,22c27.8-5.4,58.4-41.7,76.2-90.2
				c23.1-63.1,17.3-125.1-15.4-165.9c-23.8-29.6-62.6-49.4-106.5-54.2C341.5,31.7,334.6,31.3,327.8,31.3z"/>
			<g>
				<path class="st2" d="M334.2,112.1c0.1-2.5-4-3.4-3.4-5.1c0.4-1.2,3.1-2,5-2.2c9.2-1.1,8.5,5.7,20.9,8c1.7,0.3,6.8,1.3,8.2-0.7
					c3-4.1-11.8-12.3-8.8-17c2.2-3.4,15.3-3.8,24.3,2c7.9,5.1,6.3,9.2,16.2,13.2c3.6,1.5,9.6,3,11.3,1c3-3.6-10.4-12-6.9-17.3
					c3.7-5.6,25-0.2,26.3,0.2c6.2,1.6,18.6,6,28.4,17.6c2.5,3,4.4,4.7,9.9,6c0.6,0.1,0.5,1-0.1,1H323c-0.6,0-0.7-0.9-0.1-1
					C330.1,116.4,334.1,114.3,334.2,112.1z"/>
			</g>
			<path class="st3" d="M365.5,125.8V142c0,1.9,1.4,3.5,3.2,3.7c1.2,0.1,2.2-0.3,3-1.1c1.8-1.9,5.1-1.7,6.6,0.4
				c0.9,1.2,1.4,2.7,1.4,4.2c0,1.6-0.5,3.1-1.4,4.2c-1.6,2.1-4.8,2.4-6.6,0.4c-0.7-0.8-1.8-1.2-3-1.1c-1.8,0.2-3.2,1.8-3.2,3.7v16.2
				h16.2c1.9,0,3.5,1.4,3.7,3.2c0.1,1.2-0.3,2.2-1.1,3c-1.9,1.8-1.7,5.1,0.4,6.6c1.2,0.9,2.7,1.4,4.2,1.4c1.6,0,3.1-0.5,4.2-1.4
				c2.1-1.6,2.4-4.8,0.4-6.6c-0.8-0.7-1.2-1.8-1.1-3c0.2-1.8,1.8-3.2,3.7-3.2h16.2v-40.1c0-3.7-3-6.7-6.7-6.7H365.5z"/>
			<g>
				<rect x="391.2" y="127.7" class="st0" width="12.1" height="0.9"/>
			</g>
			<g>
				<rect x="375.8" y="127.7" class="st0" width="4.9" height="0.9"/>
			</g>
			<g>
				<rect x="409.6" y="134.9" class="st0" width="0.9" height="33.5"/>
			</g>
			<path class="st4" d="M412.4,172.7h-16.2c-1.9,0-3.5,1.4-3.7,3.2c-0.1,1.2,0.3,2.2,1.1,3c1.9,1.8,1.7,5.1-0.4,6.6
				c-1.2,0.9-2.7,1.4-4.2,1.4c-1.6,0-3.1-0.5-4.2-1.4c-2.1-1.6-2.4-4.8-0.4-6.6c0.8-0.7,1.2-1.8,1.1-3c-0.2-1.8-1.8-3.2-3.7-3.2
				h-16.2v16.2c0,1.9-1.4,3.5-3.2,3.7c-1.2,0.1-2.2-0.3-3-1.1c-1.8-1.9-5.1-1.7-6.6,0.4c-0.9,1.2-1.4,2.7-1.4,4.2
				c0,1.6,0.5,3.1,1.4,4.2c1.6,2.1,4.8,2.4,6.6,0.4c0.7-0.8,1.8-1.2,3-1.1c1.8,0.2,3.2,1.8,3.2,3.7v16.2h40.1c3.7,0,6.7-3,6.7-6.7
				V172.7z"/>
			<path class="st5" d="M365.5,219.6v-16.2c0-1.9-1.4-3.5-3.2-3.7c-1.2-0.1-2.2,0.3-3,1.1c-1.8,1.9-5.1,1.7-6.6-0.4
				c-0.9-1.2-1.4-2.7-1.4-4.2c0-1.6,0.5-3.1,1.4-4.2c1.6-2.1,4.8-2.4,6.6-0.4c0.7,0.8,1.8,1.2,3,1.1c1.8-0.2,3.2-1.8,3.2-3.7v-16.2
				h-16.2c-1.9,0-3.5-1.4-3.7-3.2c-0.1-1.2,0.3-2.2,1.1-3c1.9-1.8,1.7-5.1-0.4-6.6c-1.2-0.9-2.7-1.4-4.2-1.4c-1.6,0-3.1,0.5-4.2,1.4
				c-2.1,1.6-2.4,4.8-0.4,6.6c0.8,0.7,1.2,1.8,1.1,3c-0.2,1.8-1.8,3.2-3.7,3.2h-16.2v40.1c0,3.7,3,6.7,6.7,6.7H365.5z"/>
			<g>
				<rect x="414.7" y="192.3" class="st0" width="0.9" height="15.6"/>
			</g>
			<g>
				<rect x="331.9" y="216.6" class="st0" width="17.9" height="0.9"/>
			</g>
			<g>
				<rect x="355.9" y="216.6" class="st0" width="6.2" height="0.9"/>
			</g>
			<g>
				<rect x="393.6" y="216.6" class="st0" width="10.7" height="0.9"/>
			</g>
			<path class="st6" d="M330.9,168.7l7.4-14.4c0.8-1.7,0.4-3.7-1.2-4.7c-1-0.6-2.1-0.7-3.1-0.3c-2.5,0.9-5.3-0.8-5.7-3.4
				c-0.2-1.5,0-3,0.7-4.4c0.7-1.4,1.9-2.5,3.2-3.1c2.4-1.2,5.4,0.1,6.1,2.6c0.3,1,1,1.9,2.1,2.4c1.7,0.7,3.7-0.2,4.5-1.8l7.4-14.4
				l-14.4-7.4c-1.7-0.8-2.5-2.8-1.8-4.5c0.4-1.1,1.3-1.8,2.4-2.1c2.6-0.7,3.8-3.7,2.6-6.1c-0.6-1.3-1.7-2.5-3.1-3.2
				c-1.4-0.7-3-0.9-4.4-0.7c-2.6,0.4-4.3,3.2-3.4,5.7c0.4,1,0.3,2.2-0.4,3.1c-1,1.6-3.1,2-4.7,1.2l-14.4-7.4l-18.3,35.7
				c-1.7,3.3-0.4,7.4,2.9,9.1L330.9,168.7z"/>
			
				<rect x="343.1" y="133" transform="matrix(0.4574 -0.8893 0.8893 0.4574 71.9559 384.685)" class="st6" width="16.2" height="0.9"/>
			<g>
				
					<rect x="324" y="154.4" transform="matrix(0.4567 -0.8896 0.8896 0.4567 30.6445 377.521)" class="st0" width="0.9" height="18.5"/>
			</g>
			<g>
				
					<rect x="307.6" y="153.6" transform="matrix(0.4567 -0.8896 0.8896 0.4567 29.2226 358.3832)" class="st0" width="0.9" height="3.4"/>
			</g>
			<g>
				<path class="st2" d="M225.9,100c0-1-1.7-1.4-1.4-2.2c0.2-0.5,1.3-0.8,2.1-0.9c3.9-0.5,3.6,2.4,8.9,3.4c0.7,0.1,2.9,0.5,3.5-0.3
					c1.3-1.7-5-5.2-3.7-7.2c0.9-1.4,6.5-1.6,10.3,0.9c3.4,2.2,2.7,3.9,6.9,5.6c1.5,0.6,4.1,1.3,4.8,0.4c1.3-1.6-4.4-5.1-2.9-7.3
					c1.6-2.4,10.6-0.1,11.2,0.1c2.6,0.7,7.9,2.6,12,7.5c1.1,1.3,1.9,2,4.2,2.5c0.2,0.1,0.2,0.4,0,0.4h-60.6c-0.3,0-0.3-0.4,0-0.4
					C224.1,101.9,225.8,101,225.9,100z"/>
			</g>
			<g>
				<g>
					<g>
						<path class="st7" d="M335.1,168.9c-0.6,0.2-1.1,0.7-1.1,0.7s-1.1-2.3-1.3-3.4c-0.2-1.1-0.3-1.5-0.1-2.8
							c0.2-1.3,0.5-2.5,2.2-2.7c1.4-0.1,2,1.8,1.7,2.7c-0.2,1-1.1,2.5-1,3.3c0.1,0.8,0.5,2,0.5,2S335.6,168.8,335.1,168.9z"/>
					</g>
					<g>
						<path class="st8" d="M342.9,189.5c-3.3-1.9-7.3-4.2-8.6-7.1c-1.3-2.9-1.4-12.2-1.3-13.9c0-0.2,0.1-0.4,0.3-0.5
							c1.2-0.8,2.4-0.7,2.7-0.4c0.3,0.3-0.2,10.8,2.8,14.1c2.1,2.3,2.5,2.2,5,3.4c2.3,1.1,4.1,0.2,4.2,3
							C348.2,190.9,346,191.3,342.9,189.5z"/>
					</g>
				</g>
				<g>
					<g>
						<path class="st7" d="M342.4,190c-2.9,0.4-4.7-1.2-5.3-1.9c-0.6-0.7,1.3-1.5,2-2.2c0.3-0.3,0.4-0.8,0.4-1.5
							c0-0.9,0-3.6-0.2-4.8l5.6,0.6c0,0-0.2,2.9-0.2,3.9c0,0.2,0,0.4,0.1,0.5c0.2,0.7,0.9,1,2,1.8
							C348.2,187.5,345.4,189.6,342.4,190z"/>
					</g>
					<g>
						<g>
							<g>
								<path class="st7" d="M347.4,179.4c-1.7,2.8-2.5,4.2-4.3,4.8c-1.8,0.6-3.2,0.6-4.2,0.2c-1.2-0.6-2-3.6-1.8-5
									c0.3-1.5,1.4-5,3.3-8.1c1-1.6,3.8-2.7,5.7-1.7C348,170.5,351.4,172.5,347.4,179.4z"/>
							</g>
						</g>
						<g>
							<path class="st9" d="M340.4,174.7c-0.9,2.7-0.7,4,0.1,5.6c0.8,1.6,2.2,2.5,3.2,2.6c1.3,0.1,1.6-0.3,3.9-2.4
								c0.9-0.9,2.5-2.1,3.4-5.1c0.4-1.5-0.7-4.1-2.7-5C346.2,169.4,342.5,168,340.4,174.7z"/>
						</g>
						<g>
							<path class="st7" d="M339,176.4c-0.3,1,0,2,0.7,2.3c0.7,0.2,1.6-0.4,1.9-1.4c0.3-1,0-2-0.7-2.3
								C340.1,174.8,339.3,175.4,339,176.4z"/>
						</g>
						<path class="st9" d="M341.9,173.6c-1-1.4-2.4-2.8-1-3.8c1.4-1,4.8-2.1,8,0.6C352.6,173.6,341.9,173.6,341.9,173.6z"/>
					</g>
				</g>
				<g>
					<ellipse class="st10" cx="336.2" cy="272.4" rx="18.8" ry="2.6"/>
				</g>
				<path class="st11" d="M328.6,271.4c3-0.2,5.6-1,5.5,0.9c-0.1,1.6-0.2,1.4-5.4,1.5c-3,0-5.4-0.2-5.5-0.9
					C323.2,272.2,325.6,271.5,328.6,271.4z"/>
				<path class="st11" d="M343,269.3c2.8-1,5.6-1,5.5,0.9c-0.1,1.6,0.1,1.4-5,1.5c-3,0-3.8-0.6-3.3-1
					C341,269.9,341.8,269.7,343,269.3z"/>
				<g>
					<path class="st12" d="M339,184.9c2.8,0,4.2-0.1,7.5,0.7c2.3,0.5,4.7,2,3.8,8.7c0,0-1.7,16.6-1.8,18.9c-0.2,5.3,1.3,6.4-3,6
						c-4.5-0.4-9.9-0.2-12.1-0.5c-0.7-0.1-0.5-1.7-0.2-3.7c0.2-1.6,1.5-14.3,1.3-20.2C334.4,190.8,333.3,184.9,339,184.9z"/>
				</g>
				<g>
					<path class="st13" d="M348,267.3c0.2,1.6,0.4,2.2,0.4,2.2s-1.1,0.2-4.4-0.2c-0.3,0-0.9-4.8-1.1-7c-0.2-2.3-1.2-13.3-1.2-15.9
						c0.1-2.6-0.4-18.3-0.4-18.3h-1.1c0,0-3.2,8.1-3.6,11.1c-0.7,4.4-1.2,7.1-1.1,8.7c0.1,2.8-1.2,19.2-1.5,20.7
						c-0.2,1.5,0,3.1,0,3.1s-2.4,0.7-4.9,0.1c0,0,0.3-23.3,0.4-26.8c0.1-2.4,1.7-14.5,2.7-21.2c0-0.2,0-0.3,0.1-0.4
						c0.3-2.4,0.6-4,0.6-4s0-0.6,0.6-0.7c0.3,0,0.7-0.1,1.8-0.2c0.1,0,0.3,0,0.5,0c1.1,0,2.8-0.1,5.5-0.1c6.3,0,7.3,0.2,7.3,0.6
						c0,0-0.8,22.6-0.9,26.2C347.4,248.7,347.9,265.7,348,267.3z"/>
				</g>
				<g>
					<path class="st7" d="M330.3,210.9"/>
				</g>
				<path class="st14" d="M335.7,218.4c-0.2,0-0.3,0-0.5,0c0.1,0.4,0.2,0.8,0.2,1.2c0,1.9-1.4,3.4-3.2,3.6c0,0.1,0,0.3-0.1,0.4
					c2.1-0.2,3.7-2,3.7-4.1C335.9,219.2,335.8,218.8,335.7,218.4z"/>
				<g>
					<path class="st7" d="M315.8,184c-0.2,0.5-0.2,1.3-0.2,1.3s-2.4-0.6-3.5-1.1c-1-0.5-1.3-0.7-2.2-1.7c-0.9-0.9-1.7-1.9-0.7-3.4
						c0.8-1.2,2.6-0.4,3.2,0.4c0.6,0.8,1.2,2.4,2,2.8c0.7,0.4,1.9,0.8,1.9,0.8S316,183.5,315.8,184z"/>
				</g>
				<g>
					<path class="st12" d="M336.7,190.7c-3.5,1.4-7.9,3.1-10.9,2.3c-3.1-0.8-10.4-6.5-11.6-7.7c-0.2-0.1-0.2-0.4-0.2-0.6
						c0.1-1.4,1-2.4,1.4-2.4c0.4,0,8.3,6.9,12.8,6.6c3.1-0.2,3.3-0.5,5.8-1.8c2.3-1.1,2.7-3.1,5-1.4
						C341.2,187.5,340.1,189.4,336.7,190.7z"/>
				</g>
			</g>
			<g>
				<ellipse class="st10" cx="365.2" cy="280.6" rx="7.5" ry="0.7"/>
			</g>
			<g>
				<path class="st15" d="M368.7,267.2c0.1-1.3,0.6-3.6,2.1-5.2c4.2-4.6,9.6-1.3,10.2-3.5c0.3-1-1.5-2.8-3.4-3.4
					c-4.9-1.5-5,2.2-6.3,1.1c-1.6-1.3,5.2-8,2.3-14c-1.5-3.1-5.8-5.1-8.1-3.9c-1.8,1-2.1,3.9-2.2,4.5c-0.2,3,2.4,6.4,1.2,8.2
					c-2.3,3.5-1.8-5.1-8.1-3.7c-3.2,0.8-3.6,2.9-3.2,3.7c0.6,1.3,2.9,0.1,5.8,1.9c2.1,1.3,3.2,3.6,2.7,4.3c-0.6,0.7-3.1-1.5-5.7-0.4
					c-1.5,0.6-2.5,2.3-2.2,3.1c0.2,0.5,1.1,0.4,2.6,0.7c0.9,0.2,4.8,0.9,5.7,3.2c0.2,0.4,0.5,1.5-0.5,3.3H368.7z"/>
			</g>
			<g>
				<defs>
					<path id="SVGID_3_" d="M368.7,267.2c0.1-1.3,0.6-3.6,2.1-5.2c4.2-4.6,9.6-1.3,10.2-3.5c0.3-1-1.5-2.8-3.4-3.4
						c-4.9-1.5-5,2.2-6.3,1.1c-1.6-1.3,5.2-8,2.3-14c-1.5-3.1-5.8-5.1-8.1-3.9c-1.8,1-2.1,3.9-2.2,4.5c-0.2,3,2.4,6.4,1.2,8.2
						c-2.3,3.5-1.8-5.1-8.1-3.7c-3.2,0.8-3.6,2.9-3.2,3.7c0.6,1.3,2.9,0.1,5.8,1.9c2.1,1.3,3.2,3.6,2.7,4.3
						c-0.6,0.7-3.1-1.5-5.7-0.4c-1.5,0.6-2.5,2.3-2.2,3.1c0.2,0.5,1.1,0.4,2.6,0.7c0.9,0.2,4.8,0.9,5.7,3.2c0.2,0.4,0.5,1.5-0.5,3.3
						H368.7z"/>
				</defs>
				<use xlink:href="#SVGID_3_"  style="overflow:visible;fill:#484848;"/>
				<clipPath id="SVGID_4_">
					<use xlink:href="#SVGID_3_"  style="overflow:visible;"/>
				</clipPath>
				<g class="st16">
					<path class="st17" d="M378.8,294.6c0.3-3,1.3-8.3,4.8-12.1c9.8-10.7,22.3-3.1,23.6-8.1c0.7-2.4-3.4-6.4-7.9-7.8
						c-11.4-3.4-11.5,5-14.7,2.5c-3.8-3.1,12.1-18.6,5.3-32.4c-3.5-7.1-13.5-11.9-18.7-9.1c-4.2,2.2-4.9,9.2-5,10.5
						c-0.6,7,5.6,14.8,2.7,19.1c-5.4,8-4.3-11.9-18.7-8.5c-7.5,1.8-8.2,6.8-7.4,8.7c1.5,3.1,6.7,0.2,13.6,4.5c4.8,3,7.5,8.5,6.4,9.9
						c-1.3,1.7-7.3-3.5-13.2-1c-3.4,1.4-5.9,5.4-5.1,7.1c0.5,1.2,2.5,0.9,6,1.6c2,0.4,11.2,2.1,13.3,7.4c0.4,1,1.1,3.5-1.1,7.7
						H378.8z"/>
				</g>
			</g>
			<g>
				<path class="st18" d="M374.4,271.4c0,5.1-4.2,9.3-9.3,9.2c-5-0.1-9-4.4-9-9.5v-5.2c0-1.2,1-2.2,2.2-2.2h13.9
					c1.2,0,2.2,1,2.2,2.2V271.4z"/>
			</g>
			<g>
				<ellipse class="st19" cx="294.3" cy="280.5" rx="32.3" ry="2.6"/>
			</g>
			<g>
				<path class="st20" d="M309.7,205.9H279c-0.9,0-1.7-0.8-1.7-1.7l0,0c0-0.9,0.8-1.7,1.7-1.7h30.8c0.9,0,1.7,0.8,1.7,1.7l0,0
					C311.4,205.2,310.7,205.9,309.7,205.9z"/>
			</g>
			<g>
				<path class="st7" d="M324.6,143.3c-0.1,0.4-0.5,0.9-0.5,0.9s1.8,0.8,2.7,0.9c0.9,0.1,1.2-0.4,2.3-0.6c1-0.2,1.3-0.2,1.4-1.6
					c0.1-1.1-1-1.6-1.8-1.3c-0.8,0.2-1.8,1.4-2.4,1.3c-0.6-0.1-1.6-0.4-1.6-0.4S324.7,142.9,324.6,143.3z"/>
			</g>
			<g>
				<path class="st7" d="M301,130.7c1.8,0.7,3.1,0,3.6-0.4c0.5-0.4-0.6-1.1-0.9-1.6c-0.1-0.2-0.1-0.6,0-1c0.1-0.5,0.4-1.2,0.7-1.9
					l-3.5-1.5c0,0-0.3,1.8-0.5,2.5c0,0.1-0.1,0.2-0.1,0.3c-0.2,0.4-0.7,0.5-1.5,0.8C297.8,128.3,299.2,130,301,130.7z"/>
			</g>
			<g>
				<path class="st7" d="M300.5,122.6c0,2.5,0.1,3.7,0.9,4.8c0.9,1.1,1.8,1.6,2.6,1.7c1,0.1,2.6-1.6,2.9-2.6
					c0.3-1.1,0.9-3.8,0.8-6.5c0-1.4-1.4-3.2-2.9-3.3C303.3,116.6,300.4,116.6,300.5,122.6z"/>
			</g>
			<g>
				<path class="st7" d="M307.9,123.9c-0.3,0.9-0.9,1.5-1.3,1.3c-0.5-0.1-0.6-1-0.3-1.9c0.3-0.9,0.9-1.5,1.3-1.3
					C308,122.2,308.2,123,307.9,123.9z"/>
			</g>
			<g>
				<path class="st7" d="M301.2,122.5c0.3,0.9,0.1,1.7-0.3,1.9c-0.5,0.1-1.1-0.4-1.3-1.3c-0.3-0.9-0.1-1.7,0.3-1.9
					S301,121.7,301.2,122.5z"/>
			</g>
			<g>
				<path class="st14" d="M296.4,201.1c-2.5-0.3-4.6-1.1-4.6,0.4c0,1.3,0.1,1.2,4.4,1.5c2.5,0.2,4.6,0.1,4.6-0.4
					C300.9,202.1,298.9,201.4,296.4,201.1z"/>
			</g>
			<g>
				<path class="st13" d="M294.2,128.5c-3.1,2.9-8.2,9.5-8.9,13.1c-0.2,0.8,0.3,1.6,1.1,1.8l11.1,3c0.3,0.1,0.5-0.1,0.7-0.3l0.4-0.8
					c0.1-0.3,0-0.6-0.3-0.8l-8.3-4.4c2.4-4.5,4.1-5.5,4.1-5.5c-0.3,5.6-5.3,18.3-5.6,19.8c-0.4,1.9-0.7,3.4-0.1,3.5
					c2.1,0.4,6.9,0.7,11.2,1.4c3.1,0.5,3.1-0.6,2.7-5.7c-0.6-7.6,1.4-10.7,3-13.4c1.3-2.3,1.1-4.5,1.1-4.5l4.8,6.4
					c0.4,0.6,1.1,0.9,1.8,1l12.1,1.3c0.5,0.1,1-0.3,1-0.8l0-0.4c0-0.4-0.3-0.7-0.6-0.8l-11.4-3c0,0-3.2-5.2-4.7-7.3
					c-0.6-0.9-1.8-3.5-4.2-4C297.4,126.9,296.4,126.4,294.2,128.5z"/>
			</g>
			<g>
				<path class="st12" d="M302.5,157.3c0,0-0.1,1.2-0.2,3.1c0,0.2,0,0.3,0,0.5c-0.5,5.8-1.4,16.6-1.7,19.1c-0.5,3.3-4,14.9-6.1,20.9
					c-0.1,0.3-0.4,0.5-0.7,0.5l-1.2,0c-0.4,0-0.7-0.4-0.7-0.8c0.3-4,2.9-17,3.5-19.9c0.5-2.6,0.9-12.1-0.5-16.4
					c-0.2-0.7-1.3-0.7-1.5,0.1c-1,3.5-3.1,11.2-4.4,14.5c-1.5,3.9-18.6-0.9-21.6-1.8c-0.2-0.1-0.3-0.2-0.3-0.4l-0.1-0.9
					c0-0.3,0.2-0.6,0.5-0.5c2.9,0.2,16.7,1.3,17.4-1.4c0.6-2.4,1.8-9.5,2.5-13.9v0c0-0.2,0.1-0.4,0.1-0.6c0.3-1.8,0.5-3,0.5-3
					s0.1-0.6,0.6-0.6h0.1c0.1,0,0.2,0,0.4,0c0.7,0,2.2,0,6.6,0.5c2.5,0.3,4.2,0.5,5.2,0.6c0.2,0,0.3,0,0.4,0.1
					C302.3,157,302.5,157.1,302.5,157.3z"/>
			</g>
			<g>
				<path class="st14" d="M269.1,179.3c-0.6-2.5-1.5-4.3-2-4.2c-0.5,0.1-1.1,0.5,0.1,4.7c0.7,2.4,1.5,4.3,2,4.2
					C269.7,183.8,269.7,181.7,269.1,179.3z"/>
			</g>
			<path class="st21" d="M292.6,141.5l-1.7-0.9l-2.1,3.4l2.8,0.8C292,143.7,292.3,142.6,292.6,141.5z"/>
			<g>
				<path class="st9" d="M306.8,124.6c-1,2.5-0.4,7.1-1.3,11.2c-0.9,4.1-7.4,10.6-13,6c-6.4-5.3,1.8-11.3,3.3-15.1
					c1.7-4.2,1.6-7.6,3.9-9.9c2.1-2.2,5.3-1.3,6.7-0.2C309.2,119,307.6,122.5,306.8,124.6z"/>
			</g>
			<path class="st20" d="M268.8,281.1c0,0-0.1,0-0.1,0c-0.5-0.1-0.8-0.5-0.7-0.9l9.4-76c0.1-0.5,0.5-0.8,0.9-0.7
				c0.5,0.1,0.8,0.5,0.7,0.9l-9.4,76C269.6,280.8,269.2,281.1,268.8,281.1z"/>
			<path class="st20" d="M320,281.1c-0.4,0-0.8-0.3-0.8-0.7l-9.4-76c-0.1-0.5,0.3-0.9,0.7-0.9c0.5-0.1,0.9,0.3,0.9,0.7l9.4,76
				c0.1,0.5-0.3,0.9-0.7,0.9C320,281.1,320,281.1,320,281.1z"/>
			<path class="st20" d="M314,233.8h-39.4c-0.5,0-0.9-0.4-0.9-0.9c0-0.5,0.4-0.9,0.9-0.9H314c0.5,0,0.9,0.4,0.9,0.9
				C314.9,233.4,314.5,233.8,314,233.8z"/>
			<path class="st20" d="M317.4,259.4h-45.9c-0.5,0-0.9-0.4-0.9-0.9c0-0.5,0.4-0.9,0.9-0.9h45.9c0.5,0,0.9,0.4,0.9,0.9
				C318.2,259,317.8,259.4,317.4,259.4z"/>
			<path class="st11" d="M301.1,157.9c0-0.4,0.1-0.7,0.2-1c-0.1,0-0.3,0-0.4-0.1c-0.1,0.3-0.2,0.7-0.2,1.1c0,1.3,0.6,2.4,1.5,3.2
				c0-0.2,0-0.4,0-0.5C301.5,159.8,301.1,158.9,301.1,157.9z"/>
			<path class="st11" d="M289,155.7c-0.2,0-0.3,0-0.4,0c0.1,0.3,0.1,0.6,0.1,0.9c0,1.1-0.5,2.1-1.3,2.8c0,0.2-0.1,0.4-0.1,0.6
				c1.1-0.7,1.8-2,1.8-3.4C289.1,156.3,289.1,156,289,155.7z"/>
		</g>
		<g>
			<g>
				<path class="st22" d="M16.9,194.5H12L9.5,189L8,191.1v3.4H3.8v-14.6H8v6l4-6h4l-3.7,5.3L16.9,194.5z"/>
				<path class="st22" d="M22.6,179.9v14.6h-4.5v-14.6H22.6z"/>
				<path class="st22" d="M33.2,194.5l-0.8-2.9h-3.9l-0.9,2.9h-3.6l4.5-14.6h4.7l4.6,14.6H33.2z M29.2,188.5h2.4l-1.2-4.2
					L29.2,188.5z"/>
				<path class="st22" d="M54.9,179.9v14.6h-4.2v-10.4l-2.7,10.4h-2.8l-2.8-10.4v10.4h-3.4v-14.6h5.8l2.1,7.7l2-7.7H54.9z"/>
				<path class="st22" d="M70.9,188.9l4.1,0.2c-0.2,1.8-0.9,3.2-2,4.1c-1.1,1-2.5,1.4-4.2,1.4c-2,0-3.6-0.7-4.8-2s-1.8-3.1-1.8-5.4
					c0-2.3,0.6-4.1,1.7-5.5c1.2-1.4,2.8-2.1,4.8-2.1c1.9,0,3.4,0.5,4.4,1.6c1,1.1,1.6,2.5,1.8,4.2l-4.2,0.2c0-1-0.2-1.7-0.6-2.1
					c-0.4-0.4-0.8-0.7-1.3-0.7c-1.4,0-2.1,1.4-2.1,4.2c0,1.6,0.2,2.7,0.5,3.2c0.4,0.6,0.9,0.9,1.5,0.9
					C70.1,191.4,70.8,190.6,70.9,188.9z"/>
				<path class="st22" d="M83,194.7c-2,0-3.7-0.7-5-2c-1.3-1.4-1.9-3.2-1.9-5.5c0-2.2,0.6-4,1.9-5.4c1.2-1.4,2.9-2.1,5.1-2.1
					c2,0,3.7,0.7,5,2c1.3,1.3,1.9,3.1,1.9,5.4c0,2.3-0.6,4.2-1.9,5.6C86.7,194,85,194.7,83,194.7z M82.9,191.4c0.8,0,1.3-0.3,1.6-1
					c0.3-0.7,0.5-1.9,0.5-3.6c0-2.5-0.7-3.8-2-3.8c-1.5,0-2.2,1.4-2.2,4.3C80.8,190.1,81.5,191.4,82.9,191.4z"/>
				<path class="st22" d="M104.2,194.5h-3.6l-4-6.4c-0.5-0.8-1-1.8-1.5-3c0.2,0.9,0.4,1.7,0.4,2.4v7.1h-3.6v-14.6H96l3.4,5.3
					c0.7,1.1,1.2,2,1.5,2.8c-0.2-1.2-0.3-2.5-0.3-3.8v-4.3h3.6V194.5z"/>
				<path class="st22" d="M105.3,190.3l4.2-0.7c0.3,1.2,1.2,1.8,2.7,1.8c1.1,0,1.7-0.3,1.7-0.9c0-0.3-0.1-0.6-0.4-0.7
					c-0.3-0.2-0.7-0.3-1.4-0.5c-2.6-0.5-4.2-1.1-4.9-1.9c-0.7-0.8-1.1-1.7-1.1-2.8c0-1.4,0.5-2.5,1.6-3.4c1-0.9,2.5-1.4,4.5-1.4
					c3,0,4.9,1.2,5.9,3.6l-3.7,1.1c-0.4-1-1.2-1.5-2.3-1.5c-1,0-1.5,0.3-1.5,0.9c0,0.3,0.1,0.5,0.3,0.6s0.6,0.3,1.3,0.4
					c1.7,0.4,3,0.7,3.7,1c0.7,0.3,1.3,0.8,1.8,1.5c0.5,0.7,0.7,1.5,0.7,2.4c0,1.5-0.6,2.7-1.8,3.6s-2.8,1.4-4.7,1.4
					C108.3,194.7,106.1,193.3,105.3,190.3z"/>
				<path class="st22" d="M131.9,179.9v9.7c0,1.8-0.5,3.1-1.6,3.9c-1.1,0.8-2.5,1.2-4.2,1.2c-1.8,0-3.3-0.4-4.4-1.2
					c-1.1-0.8-1.7-2-1.7-3.8v-9.9h4.5v9.4c0,0.7,0.1,1.2,0.4,1.5c0.3,0.3,0.8,0.5,1.4,0.5c0.5,0,1-0.1,1.3-0.3
					c0.3-0.2,0.5-0.5,0.6-0.8s0.1-0.9,0.1-1.7v-8.5H131.9z"/>
				<path class="st22" d="M144.5,190.9v3.6h-10.2v-14.6h4.5v11H144.5z"/>
				<path class="st22" d="M152,183.4v11.1h-4.2v-11.1h-3v-3.5H155v3.5H152z"/>
				<path class="st22" d="M160.8,179.9v14.6h-4.5v-14.6H160.8z"/>
				<path class="st22" d="M175.8,194.5h-3.6l-4-6.4c-0.5-0.8-1-1.8-1.5-3c0.2,0.9,0.4,1.7,0.4,2.4v7.1h-3.6v-14.6h4.2l3.4,5.3
					c0.7,1.1,1.2,2,1.5,2.8c-0.2-1.2-0.3-2.5-0.3-3.8v-4.3h3.6V194.5z"/>
				<path class="st22" d="M190.9,186.3v8.2h-2.2c-0.2-0.6-0.4-1.1-0.6-1.5c-0.9,1.2-2.2,1.8-4,1.8c-1.9,0-3.4-0.7-4.6-2
					s-1.8-3.1-1.8-5.3c0-2.2,0.6-4,1.8-5.5c1.2-1.5,2.9-2.2,5.2-2.2c1.7,0,3.1,0.4,4.2,1.3c1.1,0.9,1.7,2.1,2.1,3.8l-4.3,0.4
					c-0.2-1.5-0.9-2.3-2-2.3c-1.5,0-2.2,1.4-2.2,4.2c0,1.7,0.2,2.8,0.7,3.3c0.5,0.5,1,0.8,1.7,0.8c0.5,0,1-0.2,1.4-0.5
					c0.4-0.3,0.6-0.8,0.6-1.3h-2.4v-3.1H190.9z"/>
				<path class="st22" d="M197,190.6v3.6l-2.3,4H193l1.7-3.7H193v-3.9H197z"/>
				<path class="st23" d="M29.9,201.8L25.3,212h-0.7L20,201.8h0.8L25,211l4.1-9.2H29.9z"/>
				<path class="st23" d="M30.7,208.2c0-2.3,1.6-3.9,3.8-3.9c2.2,0,3.8,1.6,3.8,3.9s-1.6,3.9-3.8,3.9
					C32.3,212.1,30.7,210.5,30.7,208.2z M37.5,208.2c0-1.9-1.3-3.2-3.1-3.2c-1.7,0-3.1,1.3-3.1,3.2c0,1.9,1.3,3.2,3.1,3.2
					C36.2,211.4,37.5,210.1,37.5,208.2z"/>
				<path class="st23" d="M47.2,204.4v7.6h-0.7v-1.6c-0.5,1.1-1.5,1.7-2.9,1.7c-1.9,0-3.2-1.1-3.2-3.2v-4.4h0.7v4.4
					c0,1.7,0.9,2.6,2.5,2.6c1.7,0,2.8-1.2,2.8-3v-4.1H47.2z"/>
				<path class="st23" d="M49.2,211.1l0.3-0.6c0.6,0.5,1.6,0.9,2.7,0.9c1.6,0,2.2-0.6,2.2-1.4c0-2.2-5-0.6-5-3.6
					c0-1.2,1-2.1,2.9-2.1c1,0,2,0.3,2.6,0.7l-0.3,0.6c-0.6-0.5-1.5-0.7-2.3-0.7c-1.5,0-2.1,0.6-2.1,1.4c0,2.3,5,0.7,5,3.6
					c0,1.2-1.1,2.1-3,2.1C51,212.1,49.8,211.6,49.2,211.1z"/>
				<path class="st23" d="M59.9,211.1l0.3-0.6c0.6,0.5,1.6,0.9,2.7,0.9c1.6,0,2.2-0.6,2.2-1.4c0-2.2-5-0.6-5-3.6
					c0-1.2,1-2.1,2.9-2.1c1,0,2,0.3,2.6,0.7l-0.3,0.6c-0.6-0.5-1.5-0.7-2.3-0.7c-1.5,0-2.1,0.6-2.1,1.4c0,2.3,5,0.7,5,3.6
					c0,1.2-1.1,2.1-3,2.1C61.7,212.1,60.5,211.6,59.9,211.1z"/>
				<path class="st23" d="M67.1,208.2c0-2.3,1.6-3.9,3.8-3.9c2.2,0,3.8,1.6,3.8,3.9s-1.6,3.9-3.8,3.9
					C68.8,212.1,67.1,210.5,67.1,208.2z M74,208.2c0-1.9-1.3-3.2-3.1-3.2c-1.7,0-3.1,1.3-3.1,3.2c0,1.9,1.3,3.2,3.1,3.2
					C72.7,211.4,74,210.1,74,208.2z"/>
				<path class="st23" d="M83.7,204.4v7.6H83v-1.6c-0.5,1.1-1.5,1.7-2.9,1.7c-1.9,0-3.2-1.1-3.2-3.2v-4.4h0.7v4.4
					c0,1.7,0.9,2.6,2.5,2.6c1.7,0,2.8-1.2,2.8-3v-4.1H83.7z"/>
				<path class="st23" d="M93.6,207.6v4.4h-0.7v-4.4c0-1.7-0.9-2.6-2.5-2.6c-1.8,0-2.9,1.2-2.9,3v4.1h-0.7v-10.8h0.7v4.8
					c0.5-1,1.6-1.6,3-1.6C92.3,204.3,93.6,205.4,93.6,207.6z"/>
				<path class="st23" d="M103.3,204.4v7.6h-0.7v-1.8c-0.6,1.2-1.7,1.9-3.1,1.9c-2.1,0-3.8-1.6-3.8-3.9c0-2.3,1.6-3.9,3.8-3.9
					c1.4,0,2.5,0.7,3.1,1.8v-1.8H103.3z M102.6,208.2c0-1.9-1.3-3.2-3.1-3.2c-1.7,0-3.1,1.3-3.1,3.2c0,1.9,1.3,3.2,3.1,3.2
					C101.3,211.4,102.6,210.1,102.6,208.2z"/>
				<path class="st23" d="M106.2,202c0-0.3,0.3-0.6,0.6-0.6c0.3,0,0.6,0.3,0.6,0.6c0,0.3-0.3,0.6-0.6,0.6
					C106.4,202.5,106.2,202.3,106.2,202z M106.4,204.4h0.7v7.6h-0.7V204.4z"/>
				<path class="st23" d="M113.7,211.5c-0.4,0.4-1,0.5-1.6,0.5c-1.3,0-2.1-0.8-2.1-2.1v-7.3h0.7v1.7h2.4v0.6h-2.4v4.9
					c0,1,0.5,1.5,1.4,1.5c0.5,0,0.9-0.1,1.2-0.4L113.7,211.5z"/>
				<path class="st23" d="M121.3,210.3l0.4,0.5c-0.7,0.8-1.7,1.2-2.9,1.2c-2.3,0-3.9-1.6-3.9-3.9s1.5-3.9,3.7-3.9
					c2,0,3.5,1.5,3.6,3.5l-6.4,1.3c0.4,1.4,1.5,2.3,3.1,2.3C119.9,211.4,120.7,211.1,121.3,210.3z M115.7,208.1c0,0.1,0,0.3,0,0.5
					l5.8-1.1c-0.2-1.4-1.3-2.5-2.8-2.5C116.9,205,115.7,206.3,115.7,208.1z"/>
				<path class="st23" d="M123.4,211.1l0.3-0.6c0.6,0.5,1.6,0.9,2.7,0.9c1.6,0,2.2-0.6,2.2-1.4c0-2.2-5-0.6-5-3.6
					c0-1.2,1-2.1,2.9-2.1c1,0,2,0.3,2.6,0.7l-0.3,0.6c-0.6-0.5-1.5-0.7-2.3-0.7c-1.5,0-2.1,0.6-2.1,1.4c0,2.3,5,0.7,5,3.6
					c0,1.2-1.1,2.1-3,2.1C125.1,212.1,124,211.6,123.4,211.1z"/>
				<path class="st23" d="M135.2,210v-8.8h0.7v8.7c0,1,0.4,1.5,1.3,1.5c0.3,0,0.6-0.1,0.7-0.1l0.1,0.6c-0.3,0.1-0.6,0.2-0.9,0.2
					C135.9,212.1,135.2,211.3,135.2,210z"/>
				<path class="st23" d="M146.3,204.4v7.6h-0.7v-1.8c-0.6,1.2-1.7,1.9-3.1,1.9c-2.1,0-3.8-1.6-3.8-3.9c0-2.3,1.6-3.9,3.8-3.9
					c1.4,0,2.5,0.7,3.1,1.8v-1.8H146.3z M145.6,208.2c0-1.9-1.3-3.2-3.1-3.2c-1.7,0-3.1,1.3-3.1,3.2c0,1.9,1.3,3.2,3.1,3.2
					C144.3,211.4,145.6,210.1,145.6,208.2z"/>
				<path class="st23" d="M160.7,208.2c0,2.3-1.6,3.9-3.8,3.9c-1.4,0-2.5-0.7-3.1-1.9v1.8h-0.7v-10.8h0.7v4.9
					c0.6-1.1,1.7-1.8,3.1-1.8C159.1,204.3,160.7,205.9,160.7,208.2z M160,208.2c0-1.9-1.3-3.2-3.1-3.2s-3.1,1.3-3.1,3.2
					c0,1.9,1.3,3.2,3.1,3.2S160,210.1,160,208.2z"/>
				<path class="st23" d="M162.7,202c0-0.3,0.3-0.6,0.6-0.6c0.3,0,0.6,0.3,0.6,0.6c0,0.3-0.3,0.6-0.6,0.6
					C163,202.5,162.7,202.3,162.7,202z M163,204.4h0.7v7.6H163V204.4z"/>
				<path class="st23" d="M172.3,210.3l0.4,0.5c-0.7,0.8-1.7,1.2-2.9,1.2c-2.3,0-3.9-1.6-3.9-3.9s1.5-3.9,3.7-3.9
					c2,0,3.5,1.5,3.6,3.5l-6.4,1.3c0.4,1.4,1.5,2.3,3.1,2.3C170.9,211.4,171.7,211.1,172.3,210.3z M166.6,208.1c0,0.1,0,0.3,0,0.5
					l5.8-1.1c-0.2-1.4-1.3-2.5-2.8-2.5C167.9,205,166.6,206.3,166.6,208.1z"/>
				<path class="st23" d="M182.3,207.6v4.4h-0.7v-4.4c0-1.7-0.9-2.6-2.5-2.6c-1.8,0-2.9,1.2-2.9,3v4.1h-0.7v-7.6h0.7v1.6
					c0.5-1.1,1.6-1.7,3-1.7C181,204.3,182.3,205.4,182.3,207.6z"/>
				<path class="st23" d="M191.4,204.4l-3.4,7.6h-0.7l-3.4-7.6h0.8l3,6.8l3.1-6.8H191.4z"/>
				<path class="st23" d="M198.5,210.3l0.4,0.5c-0.7,0.8-1.7,1.2-2.9,1.2c-2.3,0-3.9-1.6-3.9-3.9s1.5-3.9,3.7-3.9
					c2,0,3.5,1.5,3.6,3.5l-6.4,1.3c0.4,1.4,1.5,2.3,3.1,2.3C197.1,211.4,197.9,211.1,198.5,210.3z M192.9,208.1c0,0.1,0,0.3,0,0.5
					l5.8-1.1c-0.2-1.4-1.3-2.5-2.8-2.5C194.1,205,192.9,206.3,192.9,208.1z"/>
				<path class="st23" d="M208.5,207.6v4.4h-0.7v-4.4c0-1.7-0.9-2.6-2.5-2.6c-1.8,0-2.9,1.2-2.9,3v4.1h-0.7v-7.6h0.7v1.6
					c0.5-1.1,1.6-1.7,3-1.7C207.2,204.3,208.5,205.4,208.5,207.6z"/>
				<path class="st23" d="M218.1,204.4v7.6h-0.7v-1.6c-0.5,1.1-1.5,1.7-2.9,1.7c-1.9,0-3.2-1.1-3.2-3.2v-4.4h0.7v4.4
					c0,1.7,0.9,2.6,2.5,2.6c1.7,0,2.8-1.2,2.8-3v-4.1H218.1z"/>
				<path class="st23" d="M222.6,211.2c0,0.3-0.1,0.5-0.3,0.7c-0.2,0.2-0.4,0.3-0.7,0.3s-0.5-0.1-0.7-0.3c-0.2-0.2-0.3-0.4-0.3-0.7
					s0.1-0.5,0.3-0.7c0.2-0.2,0.4-0.3,0.7-0.3s0.5,0.1,0.7,0.3C222.5,210.7,222.6,210.9,222.6,211.2z"/>
			</g>
		</g>
	</g>
	<g>
		<g>
			<g>
				<defs>
					<path id="SVGID_5_" d="M368.7,267.2c0.1-1.3,0.6-3.6,2.1-5.2c4.2-4.6,9.6-1.3,10.2-3.5c0.3-1-1.5-2.8-3.4-3.4
						c-4.9-1.5-5,2.2-6.3,1.1c-1.6-1.3,5.2-8,2.3-14c-1.5-3.1-5.8-5.1-8.1-3.9c-1.8,1-2.1,3.9-2.2,4.5c-0.2,3,2.4,6.4,1.2,8.2
						c-2.3,3.5-1.8-5.1-8.1-3.7c-3.2,0.8-3.6,2.9-3.2,3.7c0.6,1.3,2.9,0.1,5.8,1.9c2.1,1.3,3.2,3.6,2.7,4.3
						c-0.6,0.7-3.1-1.5-5.7-0.4c-1.5,0.6-2.5,2.3-2.2,3.1c0.2,0.5,1.1,0.4,2.6,0.7c0.9,0.2,4.8,0.9,5.7,3.2c0.2,0.4,0.5,1.5-0.5,3.3
						H368.7z"/>
				</defs>
				<clipPath id="SVGID_6_">
					<use xlink:href="#SVGID_5_"  style="overflow:visible;"/>
				</clipPath>
			</g>
		</g>
	</g>
</g>
<g id="Designed_by_Freepik">
</g>
</svg>
