<?xml version="1.0" encoding="utf-8"?>
<!-- Generator: Adobe Illustrator 22.1.0, SVG Export Plug-In . SVG Version: 6.00 Build 0)  -->
<svg version="1.1" xmlns="http://www.w3.org/2000/svg" xmlns:xlink="http://www.w3.org/1999/xlink" x="0px" y="0px"
	 viewBox="0 0 557 335" style="enable-background:new 0 0 557 335;" xml:space="preserve">
<style type="text/css">
	.st0{fill:#E6F0FC;}
	.st1{fill:#8AC0ED;}
	.st2{fill:#FFFFFF;}
	.st3{opacity:0.65;fill:#4545EF;}
	.st4{opacity:0.58;fill:#5151CE;}
	.st5{opacity:0.45;fill:#4545EF;}
	.st6{fill:#4747DD;}
	.st7{fill:#F8B7B0;}
	.st8{fill:#E85858;}
	.st9{fill:#1C1E38;}
	.st10{fill:#EAD6DC;}
	.st11{fill:#E04B4B;}
	.st12{fill:#FF6666;}
	.st13{fill:#6C59C7;}
	.st14{fill:#432AA5;}
	.st15{fill:#FF71A8;}
	.st16{clip-path:url(#SVGID_4_);}
	.st17{fill:#484848;}
	.st18{fill:#F8CAD7;}
	.st19{fill:#5353EA;}
	.st20{fill:#475EA8;}
	.st21{fill:#5A4EAD;}
	.st22{fill:#2E3192;}
	.st23{fill:#515151;}
</style>
<g id="Background">
</g>
<g id="Objects">
	<g>
		<g>
			<g>
				<defs>
					<path id="SVGID_1_" d="M424.2,241.2c0.1-1.3,0.6-3.6,2.1-5.2c4.2-4.6,9.6-1.3,10.2-3.5c0.3-1-1.5-2.8-3.4-3.4
						c-4.9-1.5-5,2.2-6.3,1.1c-1.6-1.3,5.2-8,2.3-14c-1.5-3.1-5.8-5.1-8.1-3.9c-1.8,1-2.1,3.9-2.2,4.5c-0.2,3,2.4,6.4,1.2,8.2
						c-2.3,3.5-1.8-5.1-8.1-3.7c-3.2,0.8-3.6,2.9-3.2,3.7c0.6,1.3,2.9,0.1,5.8,1.9c2.1,1.3,3.2,3.6,2.7,4.3
						c-0.6,0.7-3.1-1.5-5.7-0.4c-1.5,0.6-2.5,2.3-2.2,3.1c0.2,0.5,1.1,0.4,2.6,0.7c0.9,0.2,4.8,0.9,5.7,3.2c0.2,0.4,0.5,1.5-0.5,3.3
						H424.2z"/>
				</defs>
				<clipPath id="SVGID_2_">
					<use xlink:href="#SVGID_1_"  style="overflow:visible;"/>
				</clipPath>
			</g>
		</g>
	</g>
	<g>
		<g>
			<g>
				<path class="st0" d="M232.5,79.3c-5.1,8.1-24.9,39.2-19.4,80.2c1.2,8.7,6.7,49.6,36.7,68.2c39.8,24.5,80.1-16.4,124.4,1.8
					c38.2,15.6,19.9,70.1,59.9,92.6c20.9,11.7,50.8,12.8,69.9,1.4c59.5-35.4,75.7-228.3-32.5-294.9C392.8-20,273.8,14.2,232.5,79.3z
					"/>
			</g>
			<path class="st1" d="M441.3,318.5c-17.5,0-37.7-9-49.9-23.1c-13.5-15.5-12.3-33.2-11.2-50.4c1.1-16.9,2.2-33-11.3-45.1
				c-15.1-13.6-33.6-15.6-51.5-17.5c-19.9-2.2-38.7-4.2-52.3-21.2c-12.7-15.9-16.5-40.2-10.5-68.5c3.5-16.5,13.3-40.5,40.4-61.6
				l0.3,0.3l-0.3-0.3c26.4-20.6,67.1-30.1,109-25.5c44.2,4.9,83.2,24.8,107.1,54.5c32.9,41.1,38.8,103.4,15.6,166.8
				c-17.9,48.8-48.7,85.3-76.8,90.7C447.1,318.2,444.2,318.5,441.3,318.5z M383.3,5.3c-34.1,0-65.9,9.4-87.8,26.5
				c-26.8,20.9-36.6,44.8-40.1,61.1c-6,28-2.3,52,10.3,67.7c13.4,16.8,32.1,18.8,51.8,20.9c18,2,36.6,4,51.9,17.7
				c13.8,12.4,12.7,28.6,11.6,45.8c-1.1,17-2.3,34.5,11,49.8c14.1,16.2,38.9,25.7,57.7,22c27.8-5.4,58.4-41.7,76.2-90.2
				c23.1-63.1,17.3-125.1-15.4-165.9C486.8,31.1,447.9,11.3,404,6.5C397,5.7,390.1,5.3,383.3,5.3z"/>
			<g>
				<path class="st2" d="M389.7,86.1c0.1-2.5-4-3.4-3.4-5.1c0.4-1.2,3.1-2,5-2.2c9.2-1.1,8.5,5.7,20.9,8c1.7,0.3,6.8,1.3,8.2-0.7
					c3-4.1-11.8-12.3-8.8-17c2.2-3.4,15.3-3.8,24.3,2c7.9,5.1,6.3,9.2,16.2,13.2c3.6,1.5,9.6,3,11.3,1c3-3.6-10.4-12-6.9-17.3
					c3.7-5.6,25-0.2,26.3,0.2c6.2,1.6,18.6,6,28.4,17.6c2.5,3,4.4,4.7,9.9,6c0.6,0.1,0.5,1-0.1,1H378.5c-0.6,0-0.7-0.9-0.1-1
					C385.6,90.4,389.6,88.3,389.7,86.1z"/>
			</g>
			<path class="st3" d="M421,99.8V116c0,1.9,1.4,3.5,3.2,3.7c1.2,0.1,2.2-0.3,3-1.1c1.8-1.9,5.1-1.7,6.6,0.4
				c0.9,1.2,1.4,2.7,1.4,4.2c0,1.6-0.5,3.1-1.4,4.2c-1.6,2.1-4.8,2.4-6.6,0.4c-0.7-0.8-1.8-1.2-3-1.1c-1.8,0.2-3.2,1.8-3.2,3.7v16.2
				h16.2c1.9,0,3.5,1.4,3.7,3.2c0.1,1.2-0.3,2.2-1.1,3c-1.9,1.8-1.7,5.1,0.4,6.6c1.2,0.9,2.7,1.4,4.2,1.4c1.6,0,3.1-0.5,4.2-1.4
				c2.1-1.6,2.4-4.8,0.4-6.6c-0.8-0.7-1.2-1.8-1.1-3c0.2-1.8,1.8-3.2,3.7-3.2h16.2v-40.1c0-3.7-3-6.7-6.7-6.7H421z"/>
			<g>
				<rect x="446.7" y="101.7" class="st0" width="12.1" height="0.9"/>
			</g>
			<g>
				<rect x="431.3" y="101.7" class="st0" width="4.9" height="0.9"/>
			</g>
			<g>
				<rect x="465.1" y="108.9" class="st0" width="0.9" height="33.5"/>
			</g>
			<path class="st4" d="M467.9,146.7h-16.2c-1.9,0-3.5,1.4-3.7,3.2c-0.1,1.2,0.3,2.2,1.1,3c1.9,1.8,1.7,5.1-0.4,6.6
				c-1.2,0.9-2.7,1.4-4.2,1.4c-1.6,0-3.1-0.5-4.2-1.4c-2.1-1.6-2.4-4.8-0.4-6.6c0.8-0.7,1.2-1.8,1.1-3c-0.2-1.8-1.8-3.2-3.7-3.2H421
				v16.2c0,1.9-1.4,3.5-3.2,3.7c-1.2,0.1-2.2-0.3-3-1.1c-1.8-1.9-5.1-1.7-6.6,0.4c-0.9,1.2-1.4,2.7-1.4,4.2c0,1.6,0.5,3.1,1.4,4.2
				c1.6,2.1,4.8,2.4,6.6,0.4c0.7-0.8,1.8-1.2,3-1.1c1.8,0.2,3.2,1.8,3.2,3.7v16.2h40.1c3.7,0,6.7-3,6.7-6.7V146.7z"/>
			<path class="st5" d="M421,193.6v-16.2c0-1.9-1.4-3.5-3.2-3.7c-1.2-0.1-2.2,0.3-3,1.1c-1.8,1.9-5.1,1.7-6.6-0.4
				c-0.9-1.2-1.4-2.7-1.4-4.2c0-1.6,0.5-3.1,1.4-4.2c1.6-2.1,4.8-2.4,6.6-0.4c0.7,0.8,1.8,1.2,3,1.1c1.8-0.2,3.2-1.8,3.2-3.7v-16.2
				h-16.2c-1.9,0-3.5-1.4-3.7-3.2c-0.1-1.2,0.3-2.2,1.1-3c1.9-1.8,1.7-5.1-0.4-6.6c-1.2-0.9-2.7-1.4-4.2-1.4c-1.6,0-3.1,0.5-4.2,1.4
				c-2.1,1.6-2.4,4.8-0.4,6.6c0.8,0.7,1.2,1.8,1.1,3c-0.2,1.8-1.8,3.2-3.7,3.2h-16.2v40.1c0,3.7,3,6.7,6.7,6.7H421z"/>
			<g>
				<rect x="470.2" y="166.3" class="st0" width="0.9" height="15.6"/>
			</g>
			<g>
				<rect x="387.4" y="190.6" class="st0" width="17.9" height="0.9"/>
			</g>
			<g>
				<rect x="411.4" y="190.6" class="st0" width="6.2" height="0.9"/>
			</g>
			<g>
				<rect x="449.1" y="190.6" class="st0" width="10.7" height="0.9"/>
			</g>
			<path class="st6" d="M386.4,142.7l7.4-14.4c0.8-1.7,0.4-3.7-1.2-4.7c-1-0.6-2.1-0.7-3.1-0.3c-2.5,0.9-5.3-0.8-5.7-3.4
				c-0.2-1.5,0-3,0.7-4.4c0.7-1.4,1.9-2.5,3.2-3.1c2.4-1.2,5.4,0.1,6.1,2.6c0.3,1,1,1.9,2.1,2.4c1.7,0.7,3.7-0.2,4.5-1.8l7.4-14.4
				l-14.4-7.4c-1.7-0.8-2.5-2.8-1.8-4.5c0.4-1.1,1.3-1.8,2.4-2.1c2.6-0.7,3.8-3.7,2.6-6.1c-0.6-1.3-1.7-2.5-3.1-3.2
				c-1.4-0.7-3-0.9-4.4-0.7c-2.6,0.4-4.3,3.2-3.4,5.7c0.4,1,0.3,2.2-0.4,3.1c-1,1.6-3.1,2-4.7,1.2l-14.4-7.4l-18.3,35.7
				c-1.7,3.3-0.4,7.4,2.9,9.1L386.4,142.7z"/>
			
				<rect x="398.6" y="107" transform="matrix(0.4574 -0.8893 0.8893 0.4574 125.1943 419.9315)" class="st6" width="16.2" height="0.9"/>
			<g>
				
					<rect x="379.5" y="128.4" transform="matrix(0.4567 -0.8896 0.8896 0.4567 83.9285 412.7692)" class="st0" width="0.9" height="18.5"/>
			</g>
			<g>
				
					<rect x="363.1" y="127.6" transform="matrix(0.4567 -0.8896 0.8896 0.4567 82.5057 393.6314)" class="st0" width="0.9" height="3.4"/>
			</g>
			<g>
				<path class="st2" d="M281.4,74c0-1-1.7-1.4-1.4-2.2c0.2-0.5,1.3-0.8,2.1-0.9c3.9-0.5,3.6,2.4,8.9,3.4c0.7,0.1,2.9,0.5,3.5-0.3
					c1.3-1.7-5-5.2-3.7-7.2c0.9-1.4,6.5-1.6,10.3,0.9c3.4,2.2,2.7,3.9,6.9,5.6c1.5,0.6,4.1,1.3,4.8,0.4c1.3-1.6-4.4-5.1-2.9-7.3
					c1.6-2.4,10.6-0.1,11.2,0.1c2.6,0.7,7.9,2.6,12,7.5c1.1,1.3,1.9,2,4.2,2.5c0.2,0.1,0.2,0.4,0,0.4h-60.6c-0.3,0-0.3-0.4,0-0.4
					C279.6,75.9,281.3,75,281.4,74z"/>
			</g>
			<g>
				<g>
					<g>
						<path class="st7" d="M390.6,142.9c-0.6,0.2-1.1,0.7-1.1,0.7s-1.1-2.3-1.3-3.4c-0.2-1.1-0.3-1.5-0.1-2.8
							c0.2-1.3,0.5-2.5,2.2-2.7c1.4-0.1,2,1.8,1.7,2.7c-0.2,1-1.1,2.5-1,3.3c0.1,0.8,0.5,2,0.5,2S391.1,142.8,390.6,142.9z"/>
					</g>
					<g>
						<path class="st8" d="M398.4,163.5c-3.3-1.9-7.3-4.2-8.6-7.1c-1.3-2.9-1.4-12.2-1.3-13.9c0-0.2,0.1-0.4,0.3-0.5
							c1.2-0.8,2.4-0.7,2.7-0.4c0.3,0.3-0.2,10.8,2.8,14.1c2.1,2.3,2.5,2.2,5,3.4c2.3,1.1,4.1,0.2,4.2,3
							C403.7,164.9,401.5,165.3,398.4,163.5z"/>
					</g>
				</g>
				<g>
					<g>
						<path class="st7" d="M397.9,164c-2.9,0.4-4.7-1.2-5.3-1.9c-0.6-0.7,1.3-1.5,2-2.2c0.3-0.3,0.4-0.8,0.4-1.5
							c0-0.9,0-3.6-0.2-4.8l5.6,0.6c0,0-0.2,2.9-0.2,3.9c0,0.2,0,0.4,0.1,0.5c0.2,0.7,0.9,1,2,1.8
							C403.7,161.5,400.9,163.6,397.9,164z"/>
					</g>
					<g>
						<g>
							<g>
								<path class="st7" d="M402.9,153.4c-1.7,2.8-2.5,4.2-4.3,4.8c-1.8,0.6-3.2,0.6-4.2,0.2c-1.2-0.6-2-3.6-1.8-5
									c0.3-1.5,1.4-5,3.3-8.1c1-1.6,3.8-2.7,5.7-1.7C403.5,144.5,406.9,146.5,402.9,153.4z"/>
							</g>
						</g>
						<g>
							<path class="st9" d="M395.9,148.7c-0.9,2.7-0.7,4,0.1,5.6c0.8,1.6,2.2,2.5,3.2,2.6c1.3,0.1,1.6-0.3,3.9-2.4
								c0.9-0.9,2.5-2.1,3.4-5.1c0.4-1.5-0.7-4.1-2.7-5C401.7,143.4,398,142,395.9,148.7z"/>
						</g>
						<g>
							<path class="st7" d="M394.5,150.4c-0.3,1,0,2,0.7,2.3c0.7,0.2,1.6-0.4,1.9-1.4c0.3-1,0-2-0.7-2.3
								C395.6,148.8,394.8,149.4,394.5,150.4z"/>
						</g>
						<path class="st9" d="M397.4,147.6c-1-1.4-2.4-2.8-1-3.8c1.4-1,4.8-2.1,8,0.6C408.1,147.6,397.4,147.6,397.4,147.6z"/>
					</g>
				</g>
				<g>
					<ellipse class="st10" cx="391.7" cy="246.4" rx="18.8" ry="2.6"/>
				</g>
				<path class="st11" d="M384.1,245.4c3-0.2,5.6-1,5.5,0.9c-0.1,1.6-0.2,1.4-5.4,1.5c-3,0-5.4-0.2-5.5-0.9
					C378.7,246.2,381.1,245.5,384.1,245.4z"/>
				<path class="st11" d="M398.5,243.3c2.8-1,5.6-1,5.5,0.9c-0.1,1.6,0.1,1.4-5,1.5c-3,0-3.8-0.6-3.3-1
					C396.5,243.9,397.3,243.7,398.5,243.3z"/>
				<g>
					<path class="st12" d="M394.5,158.9c2.8,0,4.2-0.1,7.5,0.7c2.3,0.5,4.7,2,3.8,8.7c0,0-1.7,16.6-1.8,18.9c-0.2,5.3,1.3,6.4-3,6
						c-4.5-0.4-9.9-0.2-12.1-0.5c-0.7-0.1-0.5-1.7-0.2-3.7c0.2-1.6,1.5-14.3,1.3-20.2C389.9,164.8,388.8,158.9,394.5,158.9z"/>
				</g>
				<g>
					<path class="st13" d="M403.5,241.3c0.2,1.6,0.4,2.2,0.4,2.2s-1.1,0.2-4.4-0.2c-0.3,0-0.9-4.8-1.1-7c-0.2-2.3-1.2-13.3-1.2-15.9
						c0.1-2.6-0.4-18.3-0.4-18.3h-1.1c0,0-3.2,8.1-3.6,11.1c-0.7,4.4-1.2,7.1-1.1,8.7c0.1,2.8-1.2,19.2-1.5,20.7
						c-0.2,1.5,0,3.1,0,3.1s-2.4,0.7-4.9,0.1c0,0,0.3-23.3,0.4-26.8c0.1-2.4,1.7-14.5,2.7-21.2c0-0.2,0-0.3,0.1-0.4
						c0.3-2.4,0.6-4,0.6-4s0-0.6,0.6-0.7c0.3,0,0.7-0.1,1.8-0.2c0.1,0,0.3,0,0.5,0c1.1,0,2.8-0.1,5.5-0.1c6.3,0,7.3,0.2,7.3,0.6
						c0,0-0.8,22.6-0.9,26.2C402.9,222.7,403.4,239.7,403.5,241.3z"/>
				</g>
				<g>
					<path class="st7" d="M385.8,184.9"/>
				</g>
				<path class="st14" d="M391.2,192.4c-0.2,0-0.3,0-0.5,0c0.1,0.4,0.2,0.8,0.2,1.2c0,1.9-1.4,3.4-3.2,3.6c0,0.1,0,0.3-0.1,0.4
					c2.1-0.2,3.7-2,3.7-4.1C391.4,193.2,391.3,192.8,391.2,192.4z"/>
				<g>
					<path class="st7" d="M371.3,158c-0.2,0.5-0.2,1.3-0.2,1.3s-2.4-0.6-3.5-1.1c-1-0.5-1.3-0.7-2.2-1.7c-0.9-0.9-1.7-1.9-0.7-3.4
						c0.8-1.2,2.6-0.4,3.2,0.4c0.6,0.8,1.2,2.4,2,2.8c0.7,0.4,1.9,0.8,1.9,0.8S371.5,157.5,371.3,158z"/>
				</g>
				<g>
					<path class="st12" d="M392.2,164.7c-3.5,1.4-7.9,3.1-10.9,2.3c-3.1-0.8-10.4-6.5-11.6-7.7c-0.2-0.1-0.2-0.4-0.2-0.6
						c0.1-1.4,1-2.4,1.4-2.4c0.4,0,8.3,6.9,12.8,6.6c3.1-0.2,3.3-0.5,5.8-1.8c2.3-1.1,2.7-3.1,5-1.4
						C396.7,161.5,395.6,163.4,392.2,164.7z"/>
				</g>
			</g>
			<g>
				<ellipse class="st10" cx="420.7" cy="254.6" rx="7.5" ry="0.7"/>
			</g>
			<g>
				<path class="st15" d="M424.2,241.2c0.1-1.3,0.6-3.6,2.1-5.2c4.2-4.6,9.6-1.3,10.2-3.5c0.3-1-1.5-2.8-3.4-3.4
					c-4.9-1.5-5,2.2-6.3,1.1c-1.6-1.3,5.2-8,2.3-14c-1.5-3.1-5.8-5.1-8.1-3.9c-1.8,1-2.1,3.9-2.2,4.5c-0.2,3,2.4,6.4,1.2,8.2
					c-2.3,3.5-1.8-5.1-8.1-3.7c-3.2,0.8-3.6,2.9-3.2,3.7c0.6,1.3,2.9,0.1,5.8,1.9c2.1,1.3,3.2,3.6,2.7,4.3c-0.6,0.7-3.1-1.5-5.7-0.4
					c-1.5,0.6-2.5,2.3-2.2,3.1c0.2,0.5,1.1,0.4,2.6,0.7c0.9,0.2,4.8,0.9,5.7,3.2c0.2,0.4,0.5,1.5-0.5,3.3H424.2z"/>
			</g>
			<g>
				<defs>
					<path id="SVGID_3_" d="M424.2,241.2c0.1-1.3,0.6-3.6,2.1-5.2c4.2-4.6,9.6-1.3,10.2-3.5c0.3-1-1.5-2.8-3.4-3.4
						c-4.9-1.5-5,2.2-6.3,1.1c-1.6-1.3,5.2-8,2.3-14c-1.5-3.1-5.8-5.1-8.1-3.9c-1.8,1-2.1,3.9-2.2,4.5c-0.2,3,2.4,6.4,1.2,8.2
						c-2.3,3.5-1.8-5.1-8.1-3.7c-3.2,0.8-3.6,2.9-3.2,3.7c0.6,1.3,2.9,0.1,5.8,1.9c2.1,1.3,3.2,3.6,2.7,4.3
						c-0.6,0.7-3.1-1.5-5.7-0.4c-1.5,0.6-2.5,2.3-2.2,3.1c0.2,0.5,1.1,0.4,2.6,0.7c0.9,0.2,4.8,0.9,5.7,3.2c0.2,0.4,0.5,1.5-0.5,3.3
						H424.2z"/>
				</defs>
				<use xlink:href="#SVGID_3_"  style="overflow:visible;fill:#484848;"/>
				<clipPath id="SVGID_4_">
					<use xlink:href="#SVGID_3_"  style="overflow:visible;"/>
				</clipPath>
				<g class="st16">
					<path class="st17" d="M434.3,268.6c0.3-3,1.3-8.3,4.8-12.1c9.8-10.7,22.3-3.1,23.6-8.1c0.7-2.4-3.4-6.4-7.9-7.8
						c-11.4-3.4-11.5,5-14.7,2.5c-3.8-3.1,12.1-18.6,5.3-32.4c-3.5-7.1-13.5-11.9-18.7-9.1c-4.2,2.2-4.9,9.2-5,10.5
						c-0.6,7,5.6,14.8,2.7,19.1c-5.4,8-4.3-11.9-18.7-8.5c-7.5,1.8-8.2,6.8-7.4,8.7c1.5,3.1,6.7,0.2,13.6,4.5c4.8,3,7.5,8.5,6.4,9.9
						c-1.3,1.7-7.3-3.5-13.2-1c-3.4,1.4-5.9,5.4-5.1,7.1c0.5,1.2,2.5,0.9,6,1.6c2,0.4,11.2,2.1,13.3,7.4c0.4,1,1.1,3.5-1.1,7.7
						H434.3z"/>
				</g>
			</g>
			<g>
				<path class="st18" d="M429.9,245.4c0,5.1-4.2,9.3-9.3,9.2c-5-0.1-9-4.4-9-9.5v-5.2c0-1.2,1-2.2,2.2-2.2h13.9
					c1.2,0,2.2,1,2.2,2.2V245.4z"/>
			</g>
			<g>
				<ellipse class="st19" cx="349.8" cy="254.5" rx="32.3" ry="2.6"/>
			</g>
			<g>
				<path class="st20" d="M365.2,179.9h-30.8c-0.9,0-1.7-0.8-1.7-1.7l0,0c0-0.9,0.8-1.7,1.7-1.7h30.8c0.9,0,1.7,0.8,1.7,1.7l0,0
					C366.9,179.2,366.2,179.9,365.2,179.9z"/>
			</g>
			<g>
				<path class="st7" d="M380.1,117.3c-0.1,0.4-0.5,0.9-0.5,0.9s1.8,0.8,2.7,0.9c0.9,0.1,1.2-0.4,2.3-0.6c1-0.2,1.3-0.2,1.4-1.6
					c0.1-1.1-1-1.6-1.8-1.3c-0.8,0.2-1.8,1.4-2.4,1.3c-0.6-0.1-1.6-0.4-1.6-0.4S380.2,116.9,380.1,117.3z"/>
			</g>
			<g>
				<path class="st7" d="M356.5,104.7c1.8,0.7,3.1,0,3.6-0.4c0.5-0.4-0.6-1.1-0.9-1.6c-0.1-0.2-0.1-0.6,0-1c0.1-0.5,0.4-1.2,0.7-1.9
					l-3.5-1.5c0,0-0.3,1.8-0.5,2.5c0,0.1-0.1,0.2-0.1,0.3c-0.2,0.4-0.7,0.5-1.5,0.8C353.3,102.3,354.7,104,356.5,104.7z"/>
			</g>
			<g>
				<path class="st7" d="M356,96.6c0,2.5,0.1,3.7,0.9,4.8c0.9,1.1,1.8,1.6,2.6,1.7c1,0.1,2.6-1.6,2.9-2.6c0.3-1.1,0.9-3.8,0.8-6.5
					c0-1.4-1.4-3.2-2.9-3.3C358.8,90.6,355.9,90.6,356,96.6z"/>
			</g>
			<g>
				<path class="st7" d="M363.4,97.9c-0.3,0.9-0.9,1.5-1.3,1.3c-0.5-0.1-0.6-1-0.3-1.9c0.3-0.9,0.9-1.5,1.3-1.3
					C363.5,96.2,363.7,97,363.4,97.9z"/>
			</g>
			<g>
				<path class="st7" d="M356.7,96.5c0.3,0.9,0.1,1.7-0.3,1.9c-0.5,0.1-1.1-0.4-1.3-1.3c-0.3-0.9-0.1-1.7,0.3-1.9
					S356.5,95.7,356.7,96.5z"/>
			</g>
			<g>
				<path class="st14" d="M351.9,175.1c-2.5-0.3-4.6-1.1-4.6,0.4c0,1.3,0.1,1.2,4.4,1.5c2.5,0.2,4.6,0.1,4.6-0.4
					C356.4,176.1,354.4,175.4,351.9,175.1z"/>
			</g>
			<g>
				<path class="st13" d="M349.7,102.5c-3.1,2.9-8.2,9.5-8.9,13.1c-0.2,0.8,0.3,1.6,1.1,1.8l11.1,3c0.3,0.1,0.5-0.1,0.7-0.3l0.4-0.8
					c0.1-0.3,0-0.6-0.3-0.8l-8.3-4.4c2.4-4.5,4.1-5.5,4.1-5.5c-0.3,5.6-5.3,18.3-5.6,19.8c-0.4,1.9-0.7,3.4-0.1,3.5
					c2.1,0.4,6.9,0.7,11.2,1.4c3.1,0.5,3.1-0.6,2.7-5.7c-0.6-7.6,1.4-10.7,3-13.4c1.3-2.3,1.1-4.5,1.1-4.5l4.8,6.4
					c0.4,0.6,1.1,0.9,1.8,1l12.1,1.3c0.5,0.1,1-0.3,1-0.8l0-0.4c0-0.4-0.3-0.7-0.6-0.8l-11.4-3c0,0-3.2-5.2-4.7-7.3
					c-0.6-0.9-1.8-3.5-4.2-4C352.9,100.9,351.9,100.4,349.7,102.5z"/>
			</g>
			<g>
				<path class="st12" d="M358,131.3c0,0-0.1,1.2-0.2,3.1c0,0.2,0,0.3,0,0.5c-0.5,5.8-1.4,16.6-1.7,19.1c-0.5,3.3-4,14.9-6.1,20.9
					c-0.1,0.3-0.4,0.5-0.7,0.5l-1.2,0c-0.4,0-0.7-0.4-0.7-0.8c0.3-4,2.9-17,3.5-19.9c0.5-2.6,0.9-12.1-0.5-16.4
					c-0.2-0.7-1.3-0.7-1.5,0.1c-1,3.5-3.1,11.2-4.4,14.5c-1.5,3.9-18.6-0.9-21.6-1.8c-0.2-0.1-0.3-0.2-0.3-0.4l-0.1-0.9
					c0-0.3,0.2-0.6,0.5-0.5c2.9,0.2,16.7,1.3,17.4-1.4c0.6-2.4,1.8-9.5,2.5-13.9v0c0-0.2,0.1-0.4,0.1-0.6c0.3-1.8,0.5-3,0.5-3
					s0.1-0.6,0.6-0.6h0.1c0.1,0,0.2,0,0.4,0c0.7,0,2.2,0,6.6,0.5c2.5,0.3,4.2,0.5,5.2,0.6c0.2,0,0.3,0,0.4,0.1
					C357.8,131,358,131.1,358,131.3z"/>
			</g>
			<g>
				<path class="st14" d="M324.6,153.3c-0.6-2.5-1.5-4.3-2-4.2c-0.5,0.1-1.1,0.5,0.1,4.7c0.7,2.4,1.5,4.3,2,4.2
					C325.2,157.8,325.2,155.7,324.6,153.3z"/>
			</g>
			<path class="st21" d="M348.1,115.5l-1.7-0.9l-2.1,3.4l2.8,0.8C347.5,117.7,347.8,116.6,348.1,115.5z"/>
			<g>
				<path class="st9" d="M362.3,98.6c-1,2.5-0.4,7.1-1.3,11.2c-0.9,4.1-7.4,10.6-13,6c-6.4-5.3,1.8-11.3,3.3-15.1
					c1.7-4.2,1.6-7.6,3.9-9.9c2.1-2.2,5.3-1.3,6.7-0.2C364.7,93,363.1,96.5,362.3,98.6z"/>
			</g>
			<path class="st20" d="M324.3,255.1c0,0-0.1,0-0.1,0c-0.5-0.1-0.8-0.5-0.7-0.9l9.4-76c0.1-0.5,0.5-0.8,0.9-0.7
				c0.5,0.1,0.8,0.5,0.7,0.9l-9.4,76C325.1,254.8,324.7,255.1,324.3,255.1z"/>
			<path class="st20" d="M375.5,255.1c-0.4,0-0.8-0.3-0.8-0.7l-9.4-76c-0.1-0.5,0.3-0.9,0.7-0.9c0.5-0.1,0.9,0.3,0.9,0.7l9.4,76
				c0.1,0.5-0.3,0.9-0.7,0.9C375.5,255.1,375.5,255.1,375.5,255.1z"/>
			<path class="st20" d="M369.5,207.8h-39.4c-0.5,0-0.9-0.4-0.9-0.9c0-0.5,0.4-0.9,0.9-0.9h39.4c0.5,0,0.9,0.4,0.9,0.9
				C370.4,207.4,370,207.8,369.5,207.8z"/>
			<path class="st20" d="M372.9,233.4H327c-0.5,0-0.9-0.4-0.9-0.9c0-0.5,0.4-0.9,0.9-0.9h45.9c0.5,0,0.9,0.4,0.9,0.9
				C373.7,233,373.3,233.4,372.9,233.4z"/>
			<path class="st11" d="M356.6,131.9c0-0.4,0.1-0.7,0.2-1c-0.1,0-0.3,0-0.4-0.1c-0.1,0.3-0.2,0.7-0.2,1.1c0,1.3,0.6,2.4,1.5,3.2
				c0-0.2,0-0.4,0-0.5C357,133.8,356.6,132.9,356.6,131.9z"/>
			<path class="st11" d="M344.5,129.7c-0.2,0-0.3,0-0.4,0c0.1,0.3,0.1,0.6,0.1,0.9c0,1.1-0.5,2.1-1.3,2.8c0,0.2-0.1,0.4-0.1,0.6
				c1.1-0.7,1.8-2,1.8-3.4C344.6,130.3,344.6,130,344.5,129.7z"/>
		</g>
		<g>
			<g>
				<path class="st22" d="M15.6,26.7c0.1,0.2,0.1,0.3,0.1,0.5c0,0.4-0.1,0.7-0.4,1c-0.3,0.3-0.6,0.4-1,0.4c-0.2,0-0.4,0-0.5-0.1
					s-0.3-0.2-0.4-0.4l-4.7-6.3l-2.1,2v3.4c0,0.4-0.1,0.7-0.4,1c-0.3,0.2-0.6,0.4-1,0.4c-0.4,0-0.7-0.1-1-0.4
					c-0.3-0.3-0.4-0.6-0.4-1V14.5c0-0.4,0.1-0.7,0.4-1c0.3-0.3,0.6-0.4,1-0.4c0.4,0,0.7,0.1,1,0.4c0.2,0.2,0.4,0.6,0.4,1v5.9l7-6.9
					c0.3-0.3,0.7-0.5,1.1-0.5c0.3,0,0.6,0.1,0.9,0.4c0.2,0.3,0.4,0.6,0.4,0.9s-0.1,0.6-0.4,0.9l-4.8,4.5l4.9,6.5
					C15.4,26.4,15.5,26.5,15.6,26.7z"/>
				<path class="st22" d="M20.3,28.1c-0.3,0.3-0.6,0.4-1,0.4c-0.4,0-0.7-0.1-1-0.4c-0.3-0.3-0.4-0.6-0.4-1V14.5c0-0.4,0.1-0.7,0.4-1
					c0.3-0.3,0.6-0.4,1-0.4c0.4,0,0.7,0.1,0.9,0.4c0.3,0.3,0.4,0.6,0.4,1v12.6C20.7,27.6,20.6,27.9,20.3,28.1z"/>
				<path class="st22" d="M36.1,27.3c0,0.4-0.1,0.7-0.4,0.9c-0.2,0.2-0.5,0.4-0.9,0.4c-0.3,0-0.5-0.1-0.7-0.2
					c-0.2-0.2-0.4-0.4-0.5-0.7l-1.1-2.6H26l-1.1,2.7c-0.1,0.3-0.3,0.5-0.5,0.6c-0.2,0.2-0.4,0.2-0.7,0.2c-0.4,0-0.7-0.1-0.9-0.3
					s-0.3-0.5-0.3-0.8c0-0.1,0-0.3,0.1-0.4L28.1,14c0.1-0.3,0.3-0.5,0.5-0.7c0.2-0.2,0.5-0.2,0.8-0.2c0.3,0,0.5,0.1,0.7,0.2
					c0.2,0.2,0.4,0.4,0.5,0.6L36,26.8C36.1,27,36.1,27.2,36.1,27.3z M27.1,22.6h4.4l-2.2-5.1L27.1,22.6z"/>
				<path class="st22" d="M52.2,13.6c0.3,0.3,0.4,0.6,0.4,1v12.7c0,0.4-0.1,0.7-0.4,1c-0.2,0.3-0.6,0.4-1,0.4c-0.4,0-0.7-0.1-1-0.4
					c-0.3-0.2-0.4-0.6-0.4-1v-8.8l-3.6,5.5c-0.1,0.2-0.3,0.3-0.5,0.4c-0.2,0.1-0.4,0.2-0.6,0.1c-0.2,0-0.4,0-0.6-0.1
					s-0.4-0.3-0.5-0.4l-3.6-5.7v9c0,0.4-0.1,0.7-0.4,1c-0.2,0.2-0.5,0.4-0.9,0.4c-0.4,0-0.7-0.1-0.9-0.4c-0.2-0.3-0.4-0.6-0.4-1
					V14.5c0-0.4,0.1-0.7,0.4-0.9c0.3-0.3,0.6-0.4,1-0.4c0.2,0,0.4,0.1,0.7,0.2s0.4,0.3,0.5,0.4l4.8,7.3l4.9-7.3
					c0.1-0.2,0.3-0.3,0.5-0.4s0.4-0.2,0.6-0.2C51.6,13.2,51.9,13.3,52.2,13.6z"/>
				<path class="st22" d="M73.4,15.1c0,0.3-0.1,0.6-0.3,0.9c-0.2,0.3-0.5,0.5-0.9,0.5c-0.2,0-0.5-0.1-0.7-0.2
					c-0.7-0.3-1.5-0.5-2.3-0.5c-1,0-1.9,0.2-2.7,0.6c-0.8,0.4-1.3,1-1.7,1.8s-0.6,1.7-0.6,2.7c0,1.7,0.5,3,1.4,3.9
					c0.9,0.9,2.1,1.3,3.6,1.3c0.9,0,1.7-0.2,2.3-0.5c0.3-0.1,0.5-0.2,0.7-0.2c0.4,0,0.7,0.2,1,0.5c0.2,0.3,0.3,0.6,0.3,0.9
					c0,0.2-0.1,0.4-0.2,0.6c-0.1,0.2-0.3,0.3-0.5,0.4c-1.1,0.6-2.3,0.9-3.6,0.9c-1.4,0-2.7-0.3-3.9-0.9c-1.2-0.6-2.1-1.5-2.9-2.7
					s-1.1-2.6-1.1-4.3c0-1.5,0.3-2.8,1-4s1.6-2.1,2.8-2.8c1.2-0.7,2.5-1,4-1c1.3,0,2.5,0.3,3.6,0.9C73.1,14.2,73.4,14.6,73.4,15.1z"
					/>
				<path class="st22" d="M88.8,24.8c-0.6,1.2-1.5,2.2-2.7,2.9c-1.1,0.7-2.4,1-3.8,1c-1.4,0-2.7-0.4-3.8-1c-1.1-0.7-2-1.7-2.6-2.9
					s-1-2.5-1-4c0-1.4,0.3-2.8,1-4s1.5-2.2,2.6-2.9c1.1-0.7,2.4-1,3.8-1c1.4,0,2.7,0.4,3.8,1c1.1,0.7,2,1.7,2.7,2.9
					c0.6,1.2,1,2.5,1,4C89.8,22.3,89.4,23.6,88.8,24.8z M86.3,18.2c-0.4-0.8-0.9-1.4-1.6-1.9c-0.7-0.5-1.5-0.7-2.4-0.7
					c-0.9,0-1.7,0.2-2.4,0.7c-0.7,0.5-1.2,1.1-1.6,1.9c-0.4,0.8-0.6,1.7-0.6,2.7c0,1,0.2,1.9,0.6,2.7c0.4,0.8,0.9,1.4,1.6,1.9
					c0.7,0.5,1.5,0.7,2.4,0.7c0.9,0,1.7-0.2,2.4-0.7c0.7-0.5,1.2-1.1,1.6-1.9c0.4-0.8,0.6-1.7,0.6-2.7C86.9,19.9,86.7,19,86.3,18.2z
					"/>
				<path class="st22" d="M104.7,13.6c0.2,0.2,0.3,0.5,0.3,0.9v12.7c0,0.4-0.1,0.7-0.4,1c-0.3,0.3-0.6,0.4-1,0.4
					c-0.2,0-0.4,0-0.6-0.1c-0.2-0.1-0.3-0.2-0.4-0.3l-8-10.2v9.3c0,0.4-0.1,0.6-0.3,0.9c-0.2,0.2-0.5,0.3-0.9,0.3
					c-0.3,0-0.6-0.1-0.9-0.3c-0.2-0.2-0.3-0.5-0.3-0.9V14.5c0-0.4,0.1-0.7,0.4-1c0.3-0.3,0.6-0.4,1-0.4c0.2,0,0.4,0,0.6,0.1
					c0.2,0.1,0.4,0.2,0.5,0.3l8,10.1v-9.4c0-0.4,0.1-0.6,0.3-0.9c0.2-0.2,0.5-0.3,0.9-0.3C104.2,13.2,104.5,13.3,104.7,13.6z"/>
				<path class="st22" d="M110.5,28.3c-0.8-0.3-1.6-0.7-2.3-1.3c-0.4-0.3-0.6-0.7-0.6-1.2c0-0.3,0.1-0.6,0.4-0.9
					c0.2-0.3,0.5-0.4,0.9-0.4c0.3,0,0.5,0.1,0.7,0.3c0.6,0.5,1.2,0.8,1.7,1c0.6,0.2,1.2,0.3,2,0.3c0.8,0,1.5-0.2,2.1-0.5
					s0.9-0.8,0.9-1.4c0-0.7-0.3-1.2-0.9-1.5c-0.6-0.4-1.5-0.7-2.8-0.8c-3.2-0.5-4.8-2-4.8-4.5c0-0.9,0.2-1.7,0.7-2.4
					c0.5-0.7,1.1-1.2,2-1.6c0.8-0.4,1.8-0.5,2.8-0.5c0.9,0,1.8,0.1,2.6,0.4c0.8,0.3,1.5,0.6,2,1.1c0.4,0.3,0.6,0.7,0.6,1.2
					c0,0.3-0.1,0.6-0.4,0.9c-0.2,0.3-0.5,0.4-0.9,0.4c-0.2,0-0.4-0.1-0.6-0.2c-0.4-0.3-0.9-0.6-1.6-0.8c-0.7-0.3-1.3-0.4-1.8-0.4
					c-0.9,0-1.6,0.2-2.1,0.5c-0.5,0.3-0.8,0.8-0.8,1.3c0,0.6,0.3,1.1,0.8,1.4s1.3,0.6,2.4,0.8c1.3,0.2,2.3,0.5,3,0.8
					c0.8,0.3,1.3,0.8,1.7,1.4s0.6,1.4,0.6,2.4c0,0.9-0.3,1.7-0.8,2.4c-0.5,0.7-1.2,1.2-2.1,1.6c-0.9,0.4-1.8,0.6-2.8,0.6
					C112.2,28.7,111.3,28.6,110.5,28.3z"/>
				<path class="st22" d="M133.2,13.6c0.2,0.2,0.4,0.6,0.4,1v7.9c0,1.2-0.3,2.3-0.8,3.2c-0.5,0.9-1.2,1.7-2.1,2.2s-2,0.8-3.1,0.8
					s-2.2-0.3-3.2-0.8s-1.6-1.3-2.2-2.2c-0.5-0.9-0.8-2-0.8-3.2v-7.9c0-0.4,0.1-0.7,0.4-1c0.3-0.3,0.6-0.4,1-0.4
					c0.4,0,0.7,0.1,0.9,0.4s0.4,0.6,0.4,1v7.9c0,0.7,0.2,1.3,0.5,1.9c0.3,0.5,0.7,1,1.2,1.3s1.1,0.4,1.7,0.4c0.6,0,1.2-0.1,1.8-0.4
					c0.5-0.3,1-0.7,1.3-1.3c0.3-0.5,0.5-1.2,0.5-1.9v-7.9c0-0.4,0.1-0.7,0.3-1c0.2-0.2,0.5-0.4,0.9-0.4S133,13.3,133.2,13.6z"/>
				<path class="st22" d="M146.2,26.3c0.3,0.2,0.4,0.6,0.4,0.9c0,0.4-0.1,0.7-0.4,0.9c-0.3,0.2-0.6,0.4-1,0.4h-7.1
					c-0.4,0-0.7-0.1-1-0.4c-0.3-0.3-0.4-0.6-0.4-1V14.5c0-0.4,0.1-0.7,0.4-1c0.3-0.3,0.6-0.4,1-0.4c0.4,0,0.7,0.1,0.9,0.4
					c0.3,0.3,0.4,0.6,0.4,1V26h5.7C145.6,26,146,26.1,146.2,26.3z"/>
				<path class="st22" d="M160.1,13.6c0.2,0.2,0.4,0.5,0.4,0.9c0,0.4-0.1,0.7-0.4,0.9c-0.2,0.2-0.6,0.3-1,0.3h-3.4v11.5
					c0,0.4-0.1,0.7-0.4,1c-0.3,0.3-0.6,0.4-1,0.4c-0.4,0-0.7-0.1-1-0.4c-0.3-0.3-0.4-0.6-0.4-1V15.7h-3.4c-0.4,0-0.7-0.1-1-0.4
					c-0.2-0.2-0.4-0.5-0.4-0.9c0-0.4,0.1-0.7,0.4-0.9c0.3-0.2,0.6-0.3,1-0.3h9.7C159.6,13.2,159.9,13.3,160.1,13.6z"/>
				<path class="st22" d="M165.1,28.1c-0.3,0.3-0.6,0.4-1,0.4c-0.4,0-0.7-0.1-1-0.4c-0.3-0.3-0.4-0.6-0.4-1V14.5
					c0-0.4,0.1-0.7,0.4-1c0.3-0.3,0.6-0.4,1-0.4c0.4,0,0.7,0.1,0.9,0.4c0.3,0.3,0.4,0.6,0.4,1v12.6
					C165.5,27.6,165.4,27.9,165.1,28.1z"/>
				<path class="st22" d="M181.3,13.6c0.2,0.2,0.3,0.5,0.3,0.9v12.7c0,0.4-0.1,0.7-0.4,1c-0.3,0.3-0.6,0.4-1,0.4
					c-0.2,0-0.4,0-0.6-0.1c-0.2-0.1-0.3-0.2-0.4-0.3l-8-10.2v9.3c0,0.4-0.1,0.6-0.3,0.9c-0.2,0.2-0.5,0.3-0.9,0.3
					c-0.3,0-0.6-0.1-0.9-0.3c-0.2-0.2-0.3-0.5-0.3-0.9V14.5c0-0.4,0.1-0.7,0.4-1c0.3-0.3,0.6-0.4,1-0.4c0.2,0,0.4,0,0.6,0.1
					c0.2,0.1,0.4,0.2,0.5,0.3l8,10.1v-9.4c0-0.4,0.1-0.6,0.3-0.9c0.2-0.2,0.5-0.3,0.9-0.3C180.8,13.2,181,13.3,181.3,13.6z"/>
				<path class="st22" d="M197.1,20.6c0.2,0.3,0.4,0.6,0.4,1v4.6c0,0.5-0.2,0.9-0.7,1.2c-1.4,0.9-3,1.3-4.7,1.3
					c-1.4,0-2.8-0.4-4-1.1c-1.2-0.7-2.2-1.7-2.9-2.9s-1.1-2.5-1.1-3.9c0-1.4,0.4-2.7,1.1-3.9s1.7-2.2,2.9-2.9c1.2-0.7,2.6-1.1,4-1.1
					c1.4,0,2.7,0.3,3.8,0.9c0.2,0.1,0.4,0.3,0.5,0.5s0.2,0.4,0.2,0.6c0,0.4-0.1,0.7-0.4,1c-0.2,0.3-0.5,0.4-0.9,0.4
					c-0.2,0-0.5-0.1-0.7-0.2c-0.8-0.3-1.6-0.5-2.4-0.5c-0.9,0-1.8,0.2-2.6,0.7s-1.4,1.1-1.9,1.9c-0.5,0.8-0.7,1.7-0.7,2.6
					c0,0.9,0.2,1.8,0.7,2.6c0.5,0.8,1.1,1.4,1.9,1.9s1.6,0.7,2.6,0.7c0.4,0,0.8,0,1.3-0.1c0.5-0.1,0.9-0.2,1.2-0.3v-2.8h-2.1
					c-0.4,0-0.7-0.1-1-0.4c-0.3-0.2-0.4-0.6-0.4-0.9c0-0.4,0.1-0.7,0.4-0.9c0.3-0.2,0.6-0.4,1-0.4h3.6
					C196.5,20.2,196.8,20.4,197.1,20.6z"/>
				<path class="st22" d="M202.8,29.6c-0.2,0.5-0.6,1-1,1.3s-0.8,0.6-1.2,0.6c-0.3,0-0.6-0.1-0.8-0.2c-0.2-0.1-0.3-0.4-0.3-0.7
					c0-0.2,0.1-0.4,0.2-0.5c0.1-0.1,0.2-0.2,0.4-0.2c0.1,0,0.2-0.1,0.3-0.1c0.4-0.2,0.6-0.5,0.6-0.9c0-0.2-0.1-0.3-0.2-0.4
					c-0.2-0.1-0.4-0.2-0.6-0.2c-0.2,0-0.5,0.1-0.6,0.2c-0.2-0.1-0.3-0.2-0.4-0.3c-0.1-0.1-0.1-0.3-0.1-0.5c0-0.3,0.1-0.6,0.3-0.8
					c0.2-0.3,0.5-0.5,0.8-0.6c0.3-0.2,0.6-0.2,0.9-0.2c0.6,0,1.1,0.2,1.5,0.6s0.5,1,0.5,1.7C203.2,28.7,203.1,29.1,202.8,29.6z"/>
				<path class="st23" d="M29.4,35.8L24.8,46h-0.7l-4.5-10.2h0.8l4.1,9.2l4.1-9.2H29.4z"/>
				<path class="st23" d="M30.2,42.2c0-2.3,1.6-3.9,3.8-3.9c2.2,0,3.8,1.6,3.8,3.9s-1.6,3.9-3.8,3.9C31.8,46.1,30.2,44.5,30.2,42.2z
					 M37,42.2c0-1.9-1.3-3.2-3.1-3.2c-1.7,0-3.1,1.3-3.1,3.2c0,1.9,1.3,3.2,3.1,3.2C35.7,45.4,37,44.1,37,42.2z"/>
				<path class="st23" d="M46.7,38.4V46H46v-1.6c-0.5,1.1-1.5,1.7-2.9,1.7c-1.9,0-3.2-1.1-3.2-3.2v-4.4h0.7v4.4
					c0,1.7,0.9,2.6,2.5,2.6c1.7,0,2.8-1.2,2.8-3v-4.1H46.7z"/>
				<path class="st23" d="M48.7,45.1l0.3-0.6c0.6,0.5,1.6,0.9,2.7,0.9c1.6,0,2.2-0.6,2.2-1.4c0-2.2-5-0.6-5-3.6c0-1.2,1-2.1,2.9-2.1
					c1,0,2,0.3,2.6,0.7l-0.3,0.6c-0.6-0.5-1.5-0.7-2.3-0.7c-1.5,0-2.1,0.6-2.1,1.4c0,2.3,5,0.7,5,3.6c0,1.2-1.1,2.1-3,2.1
					C50.5,46.1,49.3,45.6,48.7,45.1z"/>
				<path class="st23" d="M59.4,45.1l0.3-0.6c0.6,0.5,1.6,0.9,2.7,0.9c1.6,0,2.2-0.6,2.2-1.4c0-2.2-5-0.6-5-3.6c0-1.2,1-2.1,2.9-2.1
					c1,0,2,0.3,2.6,0.7l-0.3,0.6c-0.6-0.5-1.5-0.7-2.3-0.7c-1.5,0-2.1,0.6-2.1,1.4c0,2.3,5,0.7,5,3.6c0,1.2-1.1,2.1-3,2.1
					C61.2,46.1,60,45.6,59.4,45.1z"/>
				<path class="st23" d="M66.6,42.2c0-2.3,1.6-3.9,3.8-3.9c2.2,0,3.8,1.6,3.8,3.9s-1.6,3.9-3.8,3.9C68.3,46.1,66.6,44.5,66.6,42.2z
					 M73.5,42.2c0-1.9-1.3-3.2-3.1-3.2c-1.7,0-3.1,1.3-3.1,3.2c0,1.9,1.3,3.2,3.1,3.2C72.2,45.4,73.5,44.1,73.5,42.2z"/>
				<path class="st23" d="M83.2,38.4V46h-0.7v-1.6c-0.5,1.1-1.5,1.7-2.9,1.7c-1.9,0-3.2-1.1-3.2-3.2v-4.4h0.7v4.4
					c0,1.7,0.9,2.6,2.5,2.6c1.7,0,2.8-1.2,2.8-3v-4.1H83.2z"/>
				<path class="st23" d="M93.1,41.6V46h-0.7v-4.4c0-1.7-0.9-2.6-2.5-2.6c-1.8,0-2.9,1.2-2.9,3V46h-0.7V35.2H87V40
					c0.5-1,1.6-1.6,3-1.6C91.8,38.3,93.1,39.4,93.1,41.6z"/>
				<path class="st23" d="M102.8,38.4V46h-0.7v-1.8c-0.6,1.2-1.7,1.9-3.1,1.9c-2.1,0-3.8-1.6-3.8-3.9c0-2.3,1.6-3.9,3.8-3.9
					c1.4,0,2.5,0.7,3.1,1.8v-1.8H102.8z M102.1,42.2c0-1.9-1.3-3.2-3.1-3.2c-1.7,0-3.1,1.3-3.1,3.2c0,1.9,1.3,3.2,3.1,3.2
					C100.8,45.4,102.1,44.1,102.1,42.2z"/>
				<path class="st23" d="M105.7,36c0-0.3,0.3-0.6,0.6-0.6c0.3,0,0.6,0.3,0.6,0.6c0,0.3-0.3,0.6-0.6,0.6
					C105.9,36.5,105.7,36.3,105.7,36z M105.9,38.4h0.7V46h-0.7V38.4z"/>
				<path class="st23" d="M113.2,45.5c-0.4,0.4-1,0.5-1.6,0.5c-1.3,0-2.1-0.8-2.1-2.1v-7.3h0.7v1.7h2.4V39h-2.4v4.9
					c0,1,0.5,1.5,1.4,1.5c0.5,0,0.9-0.1,1.2-0.4L113.2,45.5z"/>
				<path class="st23" d="M120.8,44.3l0.4,0.5c-0.7,0.8-1.7,1.2-2.9,1.2c-2.3,0-3.9-1.6-3.9-3.9s1.5-3.9,3.7-3.9
					c2,0,3.5,1.5,3.6,3.5l-6.4,1.3c0.4,1.4,1.5,2.3,3.1,2.3C119.4,45.4,120.2,45.1,120.8,44.3z M115.2,42.1c0,0.1,0,0.3,0,0.5
					l5.8-1.1c-0.2-1.4-1.3-2.5-2.8-2.5C116.4,39,115.2,40.3,115.2,42.1z"/>
				<path class="st23" d="M122.9,45.1l0.3-0.6c0.6,0.5,1.6,0.9,2.7,0.9c1.6,0,2.2-0.6,2.2-1.4c0-2.2-5-0.6-5-3.6
					c0-1.2,1-2.1,2.9-2.1c1,0,2,0.3,2.6,0.7l-0.3,0.6c-0.6-0.5-1.5-0.7-2.3-0.7c-1.5,0-2.1,0.6-2.1,1.4c0,2.3,5,0.7,5,3.6
					c0,1.2-1.1,2.1-3,2.1C124.6,46.1,123.5,45.6,122.9,45.1z"/>
				<path class="st23" d="M134.7,44v-8.8h0.7v8.7c0,1,0.4,1.5,1.3,1.5c0.3,0,0.6-0.1,0.7-0.1l0.1,0.6c-0.3,0.1-0.6,0.2-0.9,0.2
					C135.4,46.1,134.7,45.3,134.7,44z"/>
				<path class="st23" d="M145.8,38.4V46h-0.7v-1.8c-0.6,1.2-1.7,1.9-3.1,1.9c-2.1,0-3.8-1.6-3.8-3.9c0-2.3,1.6-3.9,3.8-3.9
					c1.4,0,2.5,0.7,3.1,1.8v-1.8H145.8z M145.1,42.2c0-1.9-1.3-3.2-3.1-3.2c-1.7,0-3.1,1.3-3.1,3.2c0,1.9,1.3,3.2,3.1,3.2
					C143.8,45.4,145.1,44.1,145.1,42.2z"/>
				<path class="st23" d="M160.2,42.2c0,2.3-1.6,3.9-3.8,3.9c-1.4,0-2.5-0.7-3.1-1.9V46h-0.7V35.2h0.7v4.9c0.6-1.1,1.7-1.8,3.1-1.8
					C158.6,38.3,160.2,39.9,160.2,42.2z M159.5,42.2c0-1.9-1.3-3.2-3.1-3.2s-3.1,1.3-3.1,3.2c0,1.9,1.3,3.2,3.1,3.2
					S159.5,44.1,159.5,42.2z"/>
				<path class="st23" d="M162.2,36c0-0.3,0.3-0.6,0.6-0.6c0.3,0,0.6,0.3,0.6,0.6c0,0.3-0.3,0.6-0.6,0.6
					C162.5,36.5,162.2,36.3,162.2,36z M162.5,38.4h0.7V46h-0.7V38.4z"/>
				<path class="st23" d="M171.8,44.3l0.4,0.5c-0.7,0.8-1.7,1.2-2.9,1.2c-2.3,0-3.9-1.6-3.9-3.9s1.5-3.9,3.7-3.9
					c2,0,3.5,1.5,3.6,3.5l-6.4,1.3c0.4,1.4,1.5,2.3,3.1,2.3C170.4,45.4,171.2,45.1,171.8,44.3z M166.1,42.1c0,0.1,0,0.3,0,0.5
					l5.8-1.1c-0.2-1.4-1.3-2.5-2.8-2.5C167.4,39,166.1,40.3,166.1,42.1z"/>
				<path class="st23" d="M181.8,41.6V46H181v-4.4c0-1.7-0.9-2.6-2.5-2.6c-1.8,0-2.9,1.2-2.9,3V46H175v-7.6h0.7V40
					c0.5-1.1,1.6-1.7,3-1.7C180.5,38.3,181.8,39.4,181.8,41.6z"/>
				<path class="st23" d="M190.9,38.4l-3.4,7.6h-0.7l-3.4-7.6h0.8l3,6.8l3.1-6.8H190.9z"/>
				<path class="st23" d="M198,44.3l0.4,0.5c-0.7,0.8-1.7,1.2-2.9,1.2c-2.3,0-3.9-1.6-3.9-3.9s1.5-3.9,3.7-3.9c2,0,3.5,1.5,3.6,3.5
					l-6.4,1.3c0.4,1.4,1.5,2.3,3.1,2.3C196.6,45.4,197.4,45.1,198,44.3z M192.4,42.1c0,0.1,0,0.3,0,0.5l5.8-1.1
					c-0.2-1.4-1.3-2.5-2.8-2.5C193.6,39,192.4,40.3,192.4,42.1z"/>
				<path class="st23" d="M208,41.6V46h-0.7v-4.4c0-1.7-0.9-2.6-2.5-2.6c-1.8,0-2.9,1.2-2.9,3V46h-0.7v-7.6h0.7V40
					c0.5-1.1,1.6-1.7,3-1.7C206.7,38.3,208,39.4,208,41.6z"/>
				<path class="st23" d="M217.6,38.4V46h-0.7v-1.6c-0.5,1.1-1.5,1.7-2.9,1.7c-1.9,0-3.2-1.1-3.2-3.2v-4.4h0.7v4.4
					c0,1.7,0.9,2.6,2.5,2.6c1.7,0,2.8-1.2,2.8-3v-4.1H217.6z"/>
				<path class="st23" d="M222.1,45.2c0,0.3-0.1,0.5-0.3,0.7c-0.2,0.2-0.4,0.3-0.7,0.3s-0.5-0.1-0.7-0.3c-0.2-0.2-0.3-0.4-0.3-0.7
					s0.1-0.5,0.3-0.7c0.2-0.2,0.4-0.3,0.7-0.3s0.5,0.1,0.7,0.3C222,44.7,222.1,44.9,222.1,45.2z"/>
			</g>
		</g>
	</g>
	<g>
		<g>
			<g>
				<defs>
					<path id="SVGID_5_" d="M424.2,241.2c0.1-1.3,0.6-3.6,2.1-5.2c4.2-4.6,9.6-1.3,10.2-3.5c0.3-1-1.5-2.8-3.4-3.4
						c-4.9-1.5-5,2.2-6.3,1.1c-1.6-1.3,5.2-8,2.3-14c-1.5-3.1-5.8-5.1-8.1-3.9c-1.8,1-2.1,3.9-2.2,4.5c-0.2,3,2.4,6.4,1.2,8.2
						c-2.3,3.5-1.8-5.1-8.1-3.7c-3.2,0.8-3.6,2.9-3.2,3.7c0.6,1.3,2.9,0.1,5.8,1.9c2.1,1.3,3.2,3.6,2.7,4.3
						c-0.6,0.7-3.1-1.5-5.7-0.4c-1.5,0.6-2.5,2.3-2.2,3.1c0.2,0.5,1.1,0.4,2.6,0.7c0.9,0.2,4.8,0.9,5.7,3.2c0.2,0.4,0.5,1.5-0.5,3.3
						H424.2z"/>
				</defs>
				<clipPath id="SVGID_6_">
					<use xlink:href="#SVGID_5_"  style="overflow:visible;"/>
				</clipPath>
			</g>
		</g>
	</g>
</g>
<g id="Designed_by_Freepik">
</g>
</svg>
