<?xml version="1.0" encoding="utf-8"?>
<!-- Generator: Adobe Illustrator 22.1.0, SVG Export Plug-In . SVG Version: 6.00 Build 0)  -->
<svg version="1.1" xmlns="http://www.w3.org/2000/svg" xmlns:xlink="http://www.w3.org/1999/xlink" x="0px" y="0px"
	 viewBox="0 0 536.5 500" style="enable-background:new 0 0 536.5 500;" xml:space="preserve">
<style type="text/css">
	.st0{fill:#E6F0FC;}
	.st1{fill:#8AC0ED;}
	.st2{fill:#FFFFFF;}
	.st3{opacity:0.65;fill:#4545EF;}
	.st4{opacity:0.58;fill:#5151CE;}
	.st5{opacity:0.45;fill:#4545EF;}
	.st6{fill:#4747DD;}
	.st7{fill:#F8B7B0;}
	.st8{fill:#E85858;}
	.st9{fill:#1C1E38;}
	.st10{fill:#EAD6DC;}
	.st11{fill:#E04B4B;}
	.st12{fill:#FF6666;}
	.st13{fill:#6C59C7;}
	.st14{fill:#432AA5;}
	.st15{fill:#FF71A8;}
	.st16{clip-path:url(#SVGID_4_);}
	.st17{fill:#484848;}
	.st18{fill:#F8CAD7;}
	.st19{fill:#5353EA;}
	.st20{fill:#475EA8;}
	.st21{fill:#5A4EAD;}
	.st22{fill:#2E3192;}
	.st23{fill:#515151;}
</style>
<g id="Background">
</g>
<g id="Objects">
	<g>
		<g>
			<g>
				<defs>
					<path id="SVGID_1_" d="M396.7,293.2c0.1-1.3,0.6-3.6,2.1-5.2c4.2-4.6,9.6-1.3,10.2-3.5c0.3-1-1.5-2.8-3.4-3.4
						c-4.9-1.5-5,2.2-6.3,1.1c-1.6-1.3,5.2-8,2.3-14c-1.5-3.1-5.8-5.1-8.1-3.9c-1.8,1-2.1,3.9-2.2,4.5c-0.2,3,2.4,6.4,1.2,8.2
						c-2.3,3.5-1.8-5.1-8.1-3.7c-3.2,0.8-3.6,2.9-3.2,3.7c0.6,1.3,2.9,0.1,5.8,1.9c2.1,1.3,3.2,3.6,2.7,4.3
						c-0.6,0.7-3.1-1.5-5.7-0.4c-1.5,0.6-2.5,2.3-2.2,3.1c0.2,0.5,1.1,0.4,2.6,0.7c0.9,0.2,4.8,0.9,5.7,3.2c0.2,0.4,0.5,1.5-0.5,3.3
						H396.7z"/>
				</defs>
				<clipPath id="SVGID_2_">
					<use xlink:href="#SVGID_1_"  style="overflow:visible;"/>
				</clipPath>
			</g>
		</g>
	</g>
	<g>
		<g>
			<g>
				<path class="st0" d="M205,131.3c-5.1,8.1-24.9,39.2-19.4,80.2c1.2,8.7,6.7,49.6,36.7,68.2c39.8,24.5,80.1-16.4,124.4,1.8
					c38.2,15.6,19.9,70.1,59.9,92.6c20.9,11.7,50.8,12.8,69.9,1.4c59.5-35.4,75.7-228.3-32.5-294.9C365.3,32,246.3,66.2,205,131.3z"
					/>
			</g>
			<path class="st1" d="M413.8,370.5c-17.5,0-37.7-9-49.9-23.1c-13.5-15.5-12.3-33.2-11.2-50.4c1.1-16.9,2.2-33-11.3-45.1
				c-15.1-13.6-33.6-15.6-51.5-17.5c-19.9-2.2-38.7-4.2-52.3-21.2c-12.7-15.9-16.5-40.2-10.5-68.5c3.5-16.5,13.3-40.5,40.4-61.6
				l0.3,0.3l-0.3-0.3c26.4-20.6,67.1-30.1,109-25.5c44.2,4.9,83.2,24.8,107.1,54.5c32.9,41.1,38.8,103.4,15.6,166.8
				c-17.9,48.8-48.7,85.3-76.8,90.7C419.6,370.2,416.7,370.5,413.8,370.5z M355.8,57.3c-34.1,0-65.9,9.4-87.8,26.5
				c-26.8,20.9-36.6,44.8-40.1,61.1c-6,28-2.3,52,10.3,67.7c13.4,16.8,32.1,18.8,51.8,20.9c18,2,36.6,4,51.9,17.7
				c13.8,12.4,12.7,28.6,11.6,45.8c-1.1,17-2.3,34.5,11,49.8c14.1,16.2,38.9,25.7,57.7,22c27.8-5.4,58.4-41.7,76.2-90.2
				c23.1-63.1,17.3-125.1-15.4-165.9c-23.8-29.6-62.6-49.4-106.5-54.2C369.5,57.7,362.6,57.3,355.8,57.3z"/>
			<g>
				<path class="st2" d="M362.2,138.1c0.1-2.5-4-3.4-3.4-5.1c0.4-1.2,3.1-2,5-2.2c9.2-1.1,8.5,5.7,20.9,8c1.7,0.3,6.8,1.3,8.2-0.7
					c3-4.1-11.8-12.3-8.8-17c2.2-3.4,15.3-3.8,24.3,2c7.9,5.1,6.3,9.2,16.2,13.2c3.6,1.5,9.6,3,11.3,1c3-3.6-10.4-12-6.9-17.3
					c3.7-5.6,25-0.2,26.3,0.2c6.2,1.6,18.6,6,28.4,17.6c2.5,3,4.4,4.7,9.9,6c0.6,0.1,0.5,1-0.1,1H351c-0.6,0-0.7-0.9-0.1-1
					C358.1,142.4,362.1,140.3,362.2,138.1z"/>
			</g>
			<path class="st3" d="M393.5,151.8V168c0,1.9,1.4,3.5,3.2,3.7c1.2,0.1,2.2-0.3,3-1.1c1.8-1.9,5.1-1.7,6.6,0.4
				c0.9,1.2,1.4,2.7,1.4,4.2c0,1.6-0.5,3.1-1.4,4.2c-1.6,2.1-4.8,2.4-6.6,0.4c-0.7-0.8-1.8-1.2-3-1.1c-1.8,0.2-3.2,1.8-3.2,3.7v16.2
				h16.2c1.9,0,3.5,1.4,3.7,3.2c0.1,1.2-0.3,2.2-1.1,3c-1.9,1.8-1.7,5.1,0.4,6.6c1.2,0.9,2.7,1.4,4.2,1.4c1.6,0,3.1-0.5,4.2-1.4
				c2.1-1.6,2.4-4.8,0.4-6.6c-0.8-0.7-1.2-1.8-1.1-3c0.2-1.8,1.8-3.2,3.7-3.2h16.2v-40.1c0-3.7-3-6.7-6.7-6.7H393.5z"/>
			<g>
				<rect x="419.2" y="153.7" class="st0" width="12.1" height="0.9"/>
			</g>
			<g>
				<rect x="403.8" y="153.7" class="st0" width="4.9" height="0.9"/>
			</g>
			<g>
				<rect x="437.6" y="160.9" class="st0" width="0.9" height="33.5"/>
			</g>
			<path class="st4" d="M440.4,198.7h-16.2c-1.9,0-3.5,1.4-3.7,3.2c-0.1,1.2,0.3,2.2,1.1,3c1.9,1.8,1.7,5.1-0.4,6.6
				c-1.2,0.9-2.7,1.4-4.2,1.4c-1.6,0-3.1-0.5-4.2-1.4c-2.1-1.6-2.4-4.8-0.4-6.6c0.8-0.7,1.2-1.8,1.1-3c-0.2-1.8-1.8-3.2-3.7-3.2
				h-16.2v16.2c0,1.9-1.4,3.5-3.2,3.7c-1.2,0.1-2.2-0.3-3-1.1c-1.8-1.9-5.1-1.7-6.6,0.4c-0.9,1.2-1.4,2.7-1.4,4.2
				c0,1.6,0.5,3.1,1.4,4.2c1.6,2.1,4.8,2.4,6.6,0.4c0.7-0.8,1.8-1.2,3-1.1c1.8,0.2,3.2,1.8,3.2,3.7v16.2h40.1c3.7,0,6.7-3,6.7-6.7
				V198.7z"/>
			<path class="st5" d="M393.5,245.6v-16.2c0-1.9-1.4-3.5-3.2-3.7c-1.2-0.1-2.2,0.3-3,1.1c-1.8,1.9-5.1,1.7-6.6-0.4
				c-0.9-1.2-1.4-2.7-1.4-4.2c0-1.6,0.5-3.1,1.4-4.2c1.6-2.1,4.8-2.4,6.6-0.4c0.7,0.8,1.8,1.2,3,1.1c1.8-0.2,3.2-1.8,3.2-3.7v-16.2
				h-16.2c-1.9,0-3.5-1.4-3.7-3.2c-0.1-1.2,0.3-2.2,1.1-3c1.9-1.8,1.7-5.1-0.4-6.6c-1.2-0.9-2.7-1.4-4.2-1.4c-1.6,0-3.1,0.5-4.2,1.4
				c-2.1,1.6-2.4,4.8-0.4,6.6c0.8,0.7,1.2,1.8,1.1,3c-0.2,1.8-1.8,3.2-3.7,3.2h-16.2v40.1c0,3.7,3,6.7,6.7,6.7H393.5z"/>
			<g>
				<rect x="442.7" y="218.3" class="st0" width="0.9" height="15.6"/>
			</g>
			<g>
				<rect x="359.9" y="242.6" class="st0" width="17.9" height="0.9"/>
			</g>
			<g>
				<rect x="383.9" y="242.6" class="st0" width="6.2" height="0.9"/>
			</g>
			<g>
				<rect x="421.6" y="242.6" class="st0" width="10.7" height="0.9"/>
			</g>
			<path class="st6" d="M358.9,194.7l7.4-14.4c0.8-1.7,0.4-3.7-1.2-4.7c-1-0.6-2.1-0.7-3.1-0.3c-2.5,0.9-5.3-0.8-5.7-3.4
				c-0.2-1.5,0-3,0.7-4.4c0.7-1.4,1.9-2.5,3.2-3.1c2.4-1.2,5.4,0.1,6.1,2.6c0.3,1,1,1.9,2.1,2.4c1.7,0.7,3.7-0.2,4.5-1.8l7.4-14.4
				l-14.4-7.4c-1.7-0.8-2.5-2.8-1.8-4.5c0.4-1.1,1.3-1.8,2.4-2.1c2.6-0.7,3.8-3.7,2.6-6.1c-0.6-1.3-1.7-2.5-3.1-3.2
				c-1.4-0.7-3-0.9-4.4-0.7c-2.6,0.4-4.3,3.2-3.4,5.7c0.4,1,0.3,2.2-0.4,3.1c-1,1.6-3.1,2-4.7,1.2l-14.4-7.4l-18.3,35.7
				c-1.7,3.3-0.4,7.4,2.9,9.1L358.9,194.7z"/>
			
				<rect x="371.1" y="159" transform="matrix(0.4574 -0.8893 0.8893 0.4574 64.0286 423.6938)" class="st6" width="16.2" height="0.9"/>
			<g>
				
					<rect x="352" y="180.4" transform="matrix(0.4567 -0.8896 0.8896 0.4567 22.7269 416.5566)" class="st0" width="0.9" height="18.5"/>
			</g>
			<g>
				
					<rect x="335.6" y="179.6" transform="matrix(0.4567 -0.8896 0.8896 0.4567 21.3048 397.4183)" class="st0" width="0.9" height="3.4"/>
			</g>
			<g>
				<path class="st2" d="M253.9,126c0-1-1.7-1.4-1.4-2.2c0.2-0.5,1.3-0.8,2.1-0.9c3.9-0.5,3.6,2.4,8.9,3.4c0.7,0.1,2.9,0.5,3.5-0.3
					c1.3-1.7-5-5.2-3.7-7.2c0.9-1.4,6.5-1.6,10.3,0.9c3.4,2.2,2.7,3.9,6.9,5.6c1.5,0.6,4.1,1.3,4.8,0.4c1.3-1.6-4.4-5.1-2.9-7.3
					c1.6-2.4,10.6-0.1,11.2,0.1c2.6,0.7,7.9,2.6,12,7.5c1.1,1.3,1.9,2,4.2,2.5c0.2,0.1,0.2,0.4,0,0.4h-60.6c-0.3,0-0.3-0.4,0-0.4
					C252.1,127.9,253.8,127,253.9,126z"/>
			</g>
			<g>
				<g>
					<g>
						<path class="st7" d="M363.1,194.9c-0.6,0.2-1.1,0.7-1.1,0.7s-1.1-2.3-1.3-3.4c-0.2-1.1-0.3-1.5-0.1-2.8
							c0.2-1.3,0.5-2.5,2.2-2.7c1.4-0.1,2,1.8,1.7,2.7c-0.2,1-1.1,2.5-1,3.3c0.1,0.8,0.5,2,0.5,2S363.6,194.8,363.1,194.9z"/>
					</g>
					<g>
						<path class="st8" d="M370.9,215.5c-3.3-1.9-7.3-4.2-8.6-7.1c-1.3-2.9-1.4-12.2-1.3-13.9c0-0.2,0.1-0.4,0.3-0.5
							c1.2-0.8,2.4-0.7,2.7-0.4c0.3,0.3-0.2,10.8,2.8,14.1c2.1,2.3,2.5,2.2,5,3.4c2.3,1.1,4.1,0.2,4.2,3
							C376.2,216.9,374,217.3,370.9,215.5z"/>
					</g>
				</g>
				<g>
					<g>
						<path class="st7" d="M370.4,216c-2.9,0.4-4.7-1.2-5.3-1.9c-0.6-0.7,1.3-1.5,2-2.2c0.3-0.3,0.4-0.8,0.4-1.5
							c0-0.9,0-3.6-0.2-4.8l5.6,0.6c0,0-0.2,2.9-0.2,3.9c0,0.2,0,0.4,0.1,0.5c0.2,0.7,0.9,1,2,1.8
							C376.2,213.5,373.4,215.6,370.4,216z"/>
					</g>
					<g>
						<g>
							<g>
								<path class="st7" d="M375.4,205.4c-1.7,2.8-2.5,4.2-4.3,4.8c-1.8,0.6-3.2,0.6-4.2,0.2c-1.2-0.6-2-3.6-1.8-5
									c0.3-1.5,1.4-5,3.3-8.1c1-1.6,3.8-2.7,5.7-1.7C376,196.5,379.4,198.5,375.4,205.4z"/>
							</g>
						</g>
						<g>
							<path class="st9" d="M368.4,200.7c-0.9,2.7-0.7,4,0.1,5.6c0.8,1.6,2.2,2.5,3.2,2.6c1.3,0.1,1.6-0.3,3.9-2.4
								c0.9-0.9,2.5-2.1,3.4-5.1c0.4-1.5-0.7-4.1-2.7-5C374.2,195.4,370.5,194,368.4,200.7z"/>
						</g>
						<g>
							<path class="st7" d="M367,202.4c-0.3,1,0,2,0.7,2.3c0.7,0.2,1.6-0.4,1.9-1.4c0.3-1,0-2-0.7-2.3
								C368.1,200.8,367.3,201.4,367,202.4z"/>
						</g>
						<path class="st9" d="M369.9,199.6c-1-1.4-2.4-2.8-1-3.8c1.4-1,4.8-2.1,8,0.6C380.6,199.6,369.9,199.6,369.9,199.6z"/>
					</g>
				</g>
				<g>
					<ellipse class="st10" cx="364.2" cy="298.4" rx="18.8" ry="2.6"/>
				</g>
				<path class="st11" d="M356.6,297.4c3-0.2,5.6-1,5.5,0.9c-0.1,1.6-0.2,1.4-5.4,1.5c-3,0-5.4-0.2-5.5-0.9
					C351.2,298.2,353.6,297.5,356.6,297.4z"/>
				<path class="st11" d="M371,295.3c2.8-1,5.6-1,5.5,0.9c-0.1,1.6,0.1,1.4-5,1.5c-3,0-3.8-0.6-3.3-1
					C369,295.9,369.8,295.7,371,295.3z"/>
				<g>
					<path class="st12" d="M367,210.9c2.8,0,4.2-0.1,7.5,0.7c2.3,0.5,4.7,2,3.8,8.7c0,0-1.7,16.6-1.8,18.9c-0.2,5.3,1.3,6.4-3,6
						c-4.5-0.4-9.9-0.2-12.1-0.5c-0.7-0.1-0.5-1.7-0.2-3.7c0.2-1.6,1.5-14.3,1.3-20.2C362.4,216.8,361.3,210.9,367,210.9z"/>
				</g>
				<g>
					<path class="st13" d="M376,293.3c0.2,1.6,0.4,2.2,0.4,2.2s-1.1,0.2-4.4-0.2c-0.3,0-0.9-4.8-1.1-7c-0.2-2.3-1.2-13.3-1.2-15.9
						c0.1-2.6-0.4-18.3-0.4-18.3h-1.1c0,0-3.2,8.1-3.6,11.1c-0.7,4.4-1.2,7.1-1.1,8.7c0.1,2.8-1.2,19.2-1.5,20.7
						c-0.2,1.5,0,3.1,0,3.1s-2.4,0.7-4.9,0.1c0,0,0.3-23.3,0.4-26.8c0.1-2.4,1.7-14.5,2.7-21.2c0-0.2,0-0.3,0.1-0.4
						c0.3-2.4,0.6-4,0.6-4s0-0.6,0.6-0.7c0.3,0,0.7-0.1,1.8-0.2c0.1,0,0.3,0,0.5,0c1.1,0,2.8-0.1,5.5-0.1c6.3,0,7.3,0.2,7.3,0.6
						c0,0-0.8,22.6-0.9,26.2C375.4,274.7,375.9,291.7,376,293.3z"/>
				</g>
				<g>
					<path class="st7" d="M358.3,236.9"/>
				</g>
				<path class="st14" d="M363.7,244.4c-0.2,0-0.3,0-0.5,0c0.1,0.4,0.2,0.8,0.2,1.2c0,1.9-1.4,3.4-3.2,3.6c0,0.1,0,0.3-0.1,0.4
					c2.1-0.2,3.7-2,3.7-4.1C363.9,245.2,363.8,244.8,363.7,244.4z"/>
				<g>
					<path class="st7" d="M343.8,210c-0.2,0.5-0.2,1.3-0.2,1.3s-2.4-0.6-3.5-1.1c-1-0.5-1.3-0.7-2.2-1.7c-0.9-0.9-1.7-1.9-0.7-3.4
						c0.8-1.2,2.6-0.4,3.2,0.4c0.6,0.8,1.2,2.4,2,2.8c0.7,0.4,1.9,0.8,1.9,0.8S344,209.5,343.8,210z"/>
				</g>
				<g>
					<path class="st12" d="M364.7,216.7c-3.5,1.4-7.9,3.1-10.9,2.3c-3.1-0.8-10.4-6.5-11.6-7.7c-0.2-0.1-0.2-0.4-0.2-0.6
						c0.1-1.4,1-2.4,1.4-2.4c0.4,0,8.3,6.9,12.8,6.6c3.1-0.2,3.3-0.5,5.8-1.8c2.3-1.1,2.7-3.1,5-1.4
						C369.2,213.5,368.1,215.4,364.7,216.7z"/>
				</g>
			</g>
			<g>
				<ellipse class="st10" cx="393.2" cy="306.6" rx="7.5" ry="0.7"/>
			</g>
			<g>
				<path class="st15" d="M396.7,293.2c0.1-1.3,0.6-3.6,2.1-5.2c4.2-4.6,9.6-1.3,10.2-3.5c0.3-1-1.5-2.8-3.4-3.4
					c-4.9-1.5-5,2.2-6.3,1.1c-1.6-1.3,5.2-8,2.3-14c-1.5-3.1-5.8-5.1-8.1-3.9c-1.8,1-2.1,3.9-2.2,4.5c-0.2,3,2.4,6.4,1.2,8.2
					c-2.3,3.5-1.8-5.1-8.1-3.7c-3.2,0.8-3.6,2.9-3.2,3.7c0.6,1.3,2.9,0.1,5.8,1.9c2.1,1.3,3.2,3.6,2.7,4.3c-0.6,0.7-3.1-1.5-5.7-0.4
					c-1.5,0.6-2.5,2.3-2.2,3.1c0.2,0.5,1.1,0.4,2.6,0.7c0.9,0.2,4.8,0.9,5.7,3.2c0.2,0.4,0.5,1.5-0.5,3.3H396.7z"/>
			</g>
			<g>
				<defs>
					<path id="SVGID_3_" d="M396.7,293.2c0.1-1.3,0.6-3.6,2.1-5.2c4.2-4.6,9.6-1.3,10.2-3.5c0.3-1-1.5-2.8-3.4-3.4
						c-4.9-1.5-5,2.2-6.3,1.1c-1.6-1.3,5.2-8,2.3-14c-1.5-3.1-5.8-5.1-8.1-3.9c-1.8,1-2.1,3.9-2.2,4.5c-0.2,3,2.4,6.4,1.2,8.2
						c-2.3,3.5-1.8-5.1-8.1-3.7c-3.2,0.8-3.6,2.9-3.2,3.7c0.6,1.3,2.9,0.1,5.8,1.9c2.1,1.3,3.2,3.6,2.7,4.3
						c-0.6,0.7-3.1-1.5-5.7-0.4c-1.5,0.6-2.5,2.3-2.2,3.1c0.2,0.5,1.1,0.4,2.6,0.7c0.9,0.2,4.8,0.9,5.7,3.2c0.2,0.4,0.5,1.5-0.5,3.3
						H396.7z"/>
				</defs>
				<use xlink:href="#SVGID_3_"  style="overflow:visible;fill:#484848;"/>
				<clipPath id="SVGID_4_">
					<use xlink:href="#SVGID_3_"  style="overflow:visible;"/>
				</clipPath>
				<g class="st16">
					<path class="st17" d="M406.8,320.6c0.3-3,1.3-8.3,4.8-12.1c9.8-10.7,22.3-3.1,23.6-8.1c0.7-2.4-3.4-6.4-7.9-7.8
						c-11.4-3.4-11.5,5-14.7,2.5c-3.8-3.1,12.1-18.6,5.3-32.4c-3.5-7.1-13.5-11.9-18.7-9.1c-4.2,2.2-4.9,9.2-5,10.5
						c-0.6,7,5.6,14.8,2.7,19.1c-5.4,8-4.3-11.9-18.7-8.5c-7.5,1.8-8.2,6.8-7.4,8.7c1.5,3.1,6.7,0.2,13.6,4.5c4.8,3,7.5,8.5,6.4,9.9
						c-1.3,1.7-7.3-3.5-13.2-1c-3.4,1.4-5.9,5.4-5.1,7.1c0.5,1.2,2.5,0.9,6,1.6c2,0.4,11.2,2.1,13.3,7.4c0.4,1,1.1,3.5-1.1,7.7
						H406.8z"/>
				</g>
			</g>
			<g>
				<path class="st18" d="M402.4,297.4c0,5.1-4.2,9.3-9.3,9.2c-5-0.1-9-4.4-9-9.5v-5.2c0-1.2,1-2.2,2.2-2.2h13.9
					c1.2,0,2.2,1,2.2,2.2V297.4z"/>
			</g>
			<g>
				<ellipse class="st19" cx="322.3" cy="306.5" rx="32.3" ry="2.6"/>
			</g>
			<g>
				<path class="st20" d="M337.7,231.9H307c-0.9,0-1.7-0.8-1.7-1.7l0,0c0-0.9,0.8-1.7,1.7-1.7h30.8c0.9,0,1.7,0.8,1.7,1.7l0,0
					C339.4,231.2,338.7,231.9,337.7,231.9z"/>
			</g>
			<g>
				<path class="st7" d="M352.6,169.3c-0.1,0.4-0.5,0.9-0.5,0.9s1.8,0.8,2.7,0.9c0.9,0.1,1.2-0.4,2.3-0.6c1-0.2,1.3-0.2,1.4-1.6
					c0.1-1.1-1-1.6-1.8-1.3c-0.8,0.2-1.8,1.4-2.4,1.3c-0.6-0.1-1.6-0.4-1.6-0.4S352.7,168.9,352.6,169.3z"/>
			</g>
			<g>
				<path class="st7" d="M329,156.7c1.8,0.7,3.1,0,3.6-0.4c0.5-0.4-0.6-1.1-0.9-1.6c-0.1-0.2-0.1-0.6,0-1c0.1-0.5,0.4-1.2,0.7-1.9
					l-3.5-1.5c0,0-0.3,1.8-0.5,2.5c0,0.1-0.1,0.2-0.1,0.3c-0.2,0.4-0.7,0.5-1.5,0.8C325.8,154.3,327.2,156,329,156.7z"/>
			</g>
			<g>
				<path class="st7" d="M328.5,148.6c0,2.5,0.1,3.7,0.9,4.8c0.9,1.1,1.8,1.6,2.6,1.7c1,0.1,2.6-1.6,2.9-2.6
					c0.3-1.1,0.9-3.8,0.8-6.5c0-1.4-1.4-3.2-2.9-3.3C331.3,142.6,328.4,142.6,328.5,148.6z"/>
			</g>
			<g>
				<path class="st7" d="M335.9,149.9c-0.3,0.9-0.9,1.5-1.3,1.3c-0.5-0.1-0.6-1-0.3-1.9c0.3-0.9,0.9-1.5,1.3-1.3
					S336.2,149,335.9,149.9z"/>
			</g>
			<g>
				<path class="st7" d="M329.2,148.5c0.3,0.9,0.1,1.7-0.3,1.9c-0.5,0.1-1.1-0.4-1.3-1.3c-0.3-0.9-0.1-1.7,0.3-1.9
					S329,147.7,329.2,148.5z"/>
			</g>
			<g>
				<path class="st14" d="M324.4,227.1c-2.5-0.3-4.6-1.1-4.6,0.4c0,1.3,0.1,1.2,4.4,1.5c2.5,0.2,4.6,0.1,4.6-0.4
					C328.9,228.1,326.9,227.4,324.4,227.1z"/>
			</g>
			<g>
				<path class="st13" d="M322.2,154.5c-3.1,2.9-8.2,9.5-8.9,13.1c-0.2,0.8,0.3,1.6,1.1,1.8l11.1,3c0.3,0.1,0.5-0.1,0.7-0.3l0.4-0.8
					c0.1-0.3,0-0.6-0.3-0.8l-8.3-4.4c2.4-4.5,4.1-5.5,4.1-5.5c-0.3,5.6-5.3,18.3-5.6,19.8c-0.4,1.9-0.7,3.4-0.1,3.5
					c2.1,0.4,6.9,0.7,11.2,1.4c3.1,0.5,3.1-0.6,2.7-5.7c-0.6-7.6,1.4-10.7,3-13.4c1.3-2.3,1.1-4.5,1.1-4.5l4.8,6.4
					c0.4,0.6,1.1,0.9,1.8,1l12.1,1.3c0.5,0.1,1-0.3,1-0.8l0-0.4c0-0.4-0.3-0.7-0.6-0.8l-11.4-3c0,0-3.2-5.2-4.7-7.3
					c-0.6-0.9-1.8-3.5-4.2-4C325.4,152.9,324.4,152.4,322.2,154.5z"/>
			</g>
			<g>
				<path class="st12" d="M330.5,183.3c0,0-0.1,1.2-0.2,3.1c0,0.2,0,0.3,0,0.5c-0.5,5.8-1.4,16.6-1.7,19.1c-0.5,3.3-4,14.9-6.1,20.9
					c-0.1,0.3-0.4,0.5-0.7,0.5l-1.2,0c-0.4,0-0.7-0.4-0.7-0.8c0.3-4,2.9-17,3.5-19.9c0.5-2.6,0.9-12.1-0.5-16.4
					c-0.2-0.7-1.3-0.7-1.5,0.1c-1,3.5-3.1,11.2-4.4,14.5c-1.5,3.9-18.6-0.9-21.6-1.8c-0.2-0.1-0.3-0.2-0.3-0.4l-0.1-0.9
					c0-0.3,0.2-0.6,0.5-0.5c2.9,0.2,16.7,1.3,17.4-1.4c0.6-2.4,1.8-9.5,2.5-13.9v0c0-0.2,0.1-0.4,0.1-0.6c0.3-1.8,0.5-3,0.5-3
					s0.1-0.6,0.6-0.6h0.1c0.1,0,0.2,0,0.4,0c0.7,0,2.2,0,6.6,0.5c2.5,0.3,4.2,0.5,5.2,0.6c0.2,0,0.3,0,0.4,0.1
					C330.3,183,330.5,183.1,330.5,183.3z"/>
			</g>
			<g>
				<path class="st14" d="M297.1,205.3c-0.6-2.5-1.5-4.3-2-4.2c-0.5,0.1-1.1,0.5,0.1,4.7c0.7,2.4,1.5,4.3,2,4.2
					C297.7,209.8,297.7,207.7,297.1,205.3z"/>
			</g>
			<path class="st21" d="M320.6,167.5l-1.7-0.9l-2.1,3.4l2.8,0.8C320,169.7,320.3,168.6,320.6,167.5z"/>
			<g>
				<path class="st9" d="M334.8,150.6c-1,2.5-0.4,7.1-1.3,11.2c-0.9,4.1-7.4,10.6-13,6c-6.4-5.3,1.8-11.3,3.3-15.1
					c1.7-4.2,1.6-7.6,3.9-9.9c2.1-2.2,5.3-1.3,6.7-0.2C337.2,145,335.6,148.5,334.8,150.6z"/>
			</g>
			<path class="st20" d="M296.8,307.1c0,0-0.1,0-0.1,0c-0.5-0.1-0.8-0.5-0.7-0.9l9.4-76c0.1-0.5,0.5-0.8,0.9-0.7
				c0.5,0.1,0.8,0.5,0.7,0.9l-9.4,76C297.6,306.8,297.2,307.1,296.8,307.1z"/>
			<path class="st20" d="M348,307.1c-0.4,0-0.8-0.3-0.8-0.7l-9.4-76c-0.1-0.5,0.3-0.9,0.7-0.9c0.5-0.1,0.9,0.3,0.9,0.7l9.4,76
				c0.1,0.5-0.3,0.9-0.7,0.9C348,307.1,348,307.1,348,307.1z"/>
			<path class="st20" d="M342,259.8h-39.4c-0.5,0-0.9-0.4-0.9-0.9s0.4-0.9,0.9-0.9H342c0.5,0,0.9,0.4,0.9,0.9S342.5,259.8,342,259.8
				z"/>
			<path class="st20" d="M345.4,285.4h-45.9c-0.5,0-0.9-0.4-0.9-0.9c0-0.5,0.4-0.9,0.9-0.9h45.9c0.5,0,0.9,0.4,0.9,0.9
				C346.2,285,345.8,285.4,345.4,285.4z"/>
			<path class="st11" d="M329.1,183.9c0-0.4,0.1-0.7,0.2-1c-0.1,0-0.3,0-0.4-0.1c-0.1,0.3-0.2,0.7-0.2,1.1c0,1.3,0.6,2.4,1.5,3.2
				c0-0.2,0-0.4,0-0.5C329.5,185.8,329.1,184.9,329.1,183.9z"/>
			<path class="st11" d="M317,181.7c-0.2,0-0.3,0-0.4,0c0.1,0.3,0.1,0.6,0.1,0.9c0,1.1-0.5,2.1-1.3,2.8c0,0.2-0.1,0.4-0.1,0.6
				c1.1-0.7,1.8-2,1.8-3.4C317.1,182.3,317.1,182,317,181.7z"/>
		</g>
		<g>
			<g>
				<path class="st22" d="M16.1,156.7c0.1,0.2,0.1,0.3,0.1,0.5c0,0.4-0.1,0.7-0.4,1c-0.3,0.3-0.6,0.4-1,0.4c-0.2,0-0.4,0-0.5-0.1
					s-0.3-0.2-0.4-0.4L9,151.8l-2.1,2v3.4c0,0.4-0.1,0.7-0.4,1c-0.3,0.2-0.6,0.4-1,0.4c-0.4,0-0.7-0.1-1-0.4c-0.3-0.3-0.4-0.6-0.4-1
					v-12.6c0-0.4,0.1-0.7,0.4-1c0.3-0.3,0.6-0.4,1-0.4c0.4,0,0.7,0.1,1,0.4c0.2,0.2,0.4,0.6,0.4,1v5.9l7-6.9
					c0.3-0.3,0.7-0.5,1.1-0.5c0.3,0,0.6,0.1,0.9,0.4c0.2,0.3,0.4,0.6,0.4,0.9s-0.1,0.6-0.4,0.9l-4.8,4.5l4.9,6.5
					C15.9,156.4,16,156.5,16.1,156.7z"/>
				<path class="st22" d="M20.8,158.1c-0.3,0.3-0.6,0.4-1,0.4c-0.4,0-0.7-0.1-1-0.4c-0.3-0.3-0.4-0.6-0.4-1v-12.6
					c0-0.4,0.1-0.7,0.4-1c0.3-0.3,0.6-0.4,1-0.4c0.4,0,0.7,0.1,0.9,0.4c0.3,0.3,0.4,0.6,0.4,1v12.6
					C21.2,157.6,21.1,157.9,20.8,158.1z"/>
				<path class="st22" d="M36.6,157.3c0,0.4-0.1,0.7-0.4,0.9c-0.2,0.2-0.5,0.4-0.9,0.4c-0.3,0-0.5-0.1-0.7-0.2
					c-0.2-0.2-0.4-0.4-0.5-0.7l-1.1-2.6h-6.5l-1.1,2.7c-0.1,0.3-0.3,0.5-0.5,0.6c-0.2,0.2-0.4,0.2-0.7,0.2c-0.4,0-0.7-0.1-0.9-0.3
					s-0.3-0.5-0.3-0.8c0-0.1,0-0.3,0.1-0.4l5.4-13.1c0.1-0.3,0.3-0.5,0.5-0.7c0.2-0.2,0.5-0.2,0.8-0.2c0.3,0,0.5,0.1,0.7,0.2
					c0.2,0.2,0.4,0.4,0.5,0.6l5.4,12.8C36.6,157,36.6,157.2,36.6,157.3z M27.6,152.6H32l-2.2-5.1L27.6,152.6z"/>
				<path class="st22" d="M52.7,143.6c0.3,0.3,0.4,0.6,0.4,1v12.7c0,0.4-0.1,0.7-0.4,1c-0.2,0.3-0.6,0.4-1,0.4c-0.4,0-0.7-0.1-1-0.4
					c-0.3-0.2-0.4-0.6-0.4-1v-8.8l-3.6,5.5c-0.1,0.2-0.3,0.3-0.5,0.4c-0.2,0.1-0.4,0.2-0.6,0.1c-0.2,0-0.4,0-0.6-0.1
					s-0.4-0.3-0.5-0.4l-3.6-5.7v9c0,0.4-0.1,0.7-0.4,1c-0.2,0.2-0.5,0.4-0.9,0.4c-0.4,0-0.7-0.1-0.9-0.4c-0.2-0.3-0.4-0.6-0.4-1
					v-12.7c0-0.4,0.1-0.7,0.4-0.9c0.3-0.3,0.6-0.4,1-0.4c0.2,0,0.4,0.1,0.7,0.2s0.4,0.3,0.5,0.4l4.8,7.3l4.9-7.3
					c0.1-0.2,0.3-0.3,0.5-0.4s0.4-0.2,0.6-0.2C52.1,143.2,52.4,143.3,52.7,143.6z"/>
				<path class="st22" d="M73.9,145.1c0,0.3-0.1,0.6-0.3,0.9c-0.2,0.3-0.5,0.5-0.9,0.5c-0.2,0-0.5-0.1-0.7-0.2
					c-0.7-0.3-1.5-0.5-2.3-0.5c-1,0-1.9,0.2-2.7,0.6c-0.8,0.4-1.3,1-1.7,1.8s-0.6,1.7-0.6,2.7c0,1.7,0.5,3,1.4,3.9
					c0.9,0.9,2.1,1.3,3.6,1.3c0.9,0,1.7-0.2,2.3-0.5c0.3-0.1,0.5-0.2,0.7-0.2c0.4,0,0.7,0.2,1,0.5c0.2,0.3,0.3,0.6,0.3,0.9
					c0,0.2-0.1,0.4-0.2,0.6c-0.1,0.2-0.3,0.3-0.5,0.4c-1.1,0.6-2.3,0.9-3.6,0.9c-1.4,0-2.7-0.3-3.9-0.9c-1.2-0.6-2.1-1.5-2.9-2.7
					s-1.1-2.6-1.1-4.3c0-1.5,0.3-2.8,1-4s1.6-2.1,2.8-2.8c1.2-0.7,2.5-1,4-1c1.3,0,2.5,0.3,3.6,0.9
					C73.6,144.2,73.9,144.6,73.9,145.1z"/>
				<path class="st22" d="M89.3,154.8c-0.6,1.2-1.5,2.2-2.7,2.9c-1.1,0.7-2.4,1-3.8,1c-1.4,0-2.7-0.4-3.8-1c-1.1-0.7-2-1.7-2.6-2.9
					s-1-2.5-1-4c0-1.4,0.3-2.8,1-4s1.5-2.2,2.6-2.9c1.1-0.7,2.4-1,3.8-1c1.4,0,2.7,0.4,3.8,1c1.1,0.7,2,1.7,2.7,2.9
					c0.6,1.2,1,2.5,1,4C90.3,152.3,89.9,153.6,89.3,154.8z M86.8,148.2c-0.4-0.8-0.9-1.4-1.6-1.9c-0.7-0.5-1.5-0.7-2.4-0.7
					c-0.9,0-1.7,0.2-2.4,0.7c-0.7,0.5-1.2,1.1-1.6,1.9c-0.4,0.8-0.6,1.7-0.6,2.7c0,1,0.2,1.9,0.6,2.7c0.4,0.8,0.9,1.4,1.6,1.9
					c0.7,0.5,1.5,0.7,2.4,0.7c0.9,0,1.7-0.2,2.4-0.7c0.7-0.5,1.2-1.1,1.6-1.9c0.4-0.8,0.6-1.7,0.6-2.7
					C87.4,149.9,87.2,149,86.8,148.2z"/>
				<path class="st22" d="M105.2,143.6c0.2,0.2,0.3,0.5,0.3,0.9v12.7c0,0.4-0.1,0.7-0.4,1c-0.3,0.3-0.6,0.4-1,0.4
					c-0.2,0-0.4,0-0.6-0.1c-0.2-0.1-0.3-0.2-0.4-0.3l-8-10.2v9.3c0,0.4-0.1,0.6-0.3,0.9c-0.2,0.2-0.5,0.3-0.9,0.3
					c-0.3,0-0.6-0.1-0.9-0.3c-0.2-0.2-0.3-0.5-0.3-0.9v-12.7c0-0.4,0.1-0.7,0.4-1c0.3-0.3,0.6-0.4,1-0.4c0.2,0,0.4,0,0.6,0.1
					c0.2,0.1,0.4,0.2,0.5,0.3l8,10.1v-9.4c0-0.4,0.1-0.6,0.3-0.9c0.2-0.2,0.5-0.3,0.9-0.3C104.7,143.2,105,143.3,105.2,143.6z"/>
				<path class="st22" d="M111,158.3c-0.8-0.3-1.6-0.7-2.3-1.3c-0.4-0.3-0.6-0.7-0.6-1.2c0-0.3,0.1-0.6,0.4-0.9
					c0.2-0.3,0.5-0.4,0.9-0.4c0.3,0,0.5,0.1,0.7,0.3c0.6,0.5,1.2,0.8,1.7,1c0.6,0.2,1.2,0.3,2,0.3c0.8,0,1.5-0.2,2.1-0.5
					s0.9-0.8,0.9-1.4c0-0.7-0.3-1.2-0.9-1.5c-0.6-0.4-1.5-0.7-2.8-0.8c-3.2-0.5-4.8-2-4.8-4.5c0-0.9,0.2-1.7,0.7-2.4
					c0.5-0.7,1.1-1.2,2-1.6c0.8-0.4,1.8-0.5,2.8-0.5c0.9,0,1.8,0.1,2.6,0.4c0.8,0.3,1.5,0.6,2,1.1c0.4,0.3,0.6,0.7,0.6,1.2
					c0,0.3-0.1,0.6-0.4,0.9c-0.2,0.3-0.5,0.4-0.9,0.4c-0.2,0-0.4-0.1-0.6-0.2c-0.4-0.3-0.9-0.6-1.6-0.8c-0.7-0.3-1.3-0.4-1.8-0.4
					c-0.9,0-1.6,0.2-2.1,0.5c-0.5,0.3-0.8,0.8-0.8,1.3c0,0.6,0.3,1.1,0.8,1.4s1.3,0.6,2.4,0.8c1.3,0.2,2.3,0.5,3,0.8
					c0.8,0.3,1.3,0.8,1.7,1.4s0.6,1.4,0.6,2.4c0,0.9-0.3,1.7-0.8,2.4c-0.5,0.7-1.2,1.2-2.1,1.6c-0.9,0.4-1.8,0.6-2.8,0.6
					C112.7,158.7,111.8,158.6,111,158.3z"/>
				<path class="st22" d="M133.7,143.6c0.2,0.2,0.4,0.6,0.4,1v7.9c0,1.2-0.3,2.3-0.8,3.2c-0.5,0.9-1.2,1.7-2.1,2.2s-2,0.8-3.1,0.8
					s-2.2-0.3-3.2-0.8s-1.6-1.3-2.2-2.2c-0.5-0.9-0.8-2-0.8-3.2v-7.9c0-0.4,0.1-0.7,0.4-1c0.3-0.3,0.6-0.4,1-0.4
					c0.4,0,0.7,0.1,0.9,0.4s0.4,0.6,0.4,1v7.9c0,0.7,0.2,1.3,0.5,1.9c0.3,0.5,0.7,1,1.2,1.3s1.1,0.4,1.7,0.4c0.6,0,1.2-0.1,1.8-0.4
					c0.5-0.3,1-0.7,1.3-1.3c0.3-0.5,0.5-1.2,0.5-1.9v-7.9c0-0.4,0.1-0.7,0.3-1c0.2-0.2,0.5-0.4,0.9-0.4S133.5,143.3,133.7,143.6z"/>
				<path class="st22" d="M146.7,156.3c0.3,0.2,0.4,0.6,0.4,0.9c0,0.4-0.1,0.7-0.4,0.9c-0.3,0.2-0.6,0.4-1,0.4h-7.1
					c-0.4,0-0.7-0.1-1-0.4c-0.3-0.3-0.4-0.6-0.4-1v-12.6c0-0.4,0.1-0.7,0.4-1c0.3-0.3,0.6-0.4,1-0.4c0.4,0,0.7,0.1,0.9,0.4
					c0.3,0.3,0.4,0.6,0.4,1V156h5.7C146.1,156,146.5,156.1,146.7,156.3z"/>
				<path class="st22" d="M160.6,143.6c0.2,0.2,0.4,0.5,0.4,0.9c0,0.4-0.1,0.7-0.4,0.9c-0.2,0.2-0.6,0.3-1,0.3h-3.4v11.5
					c0,0.4-0.1,0.7-0.4,1c-0.3,0.3-0.6,0.4-1,0.4c-0.4,0-0.7-0.1-1-0.4c-0.3-0.3-0.4-0.6-0.4-1v-11.5H150c-0.4,0-0.7-0.1-1-0.4
					c-0.2-0.2-0.4-0.5-0.4-0.9c0-0.4,0.1-0.7,0.4-0.9c0.3-0.2,0.6-0.3,1-0.3h9.7C160.1,143.2,160.4,143.3,160.6,143.6z"/>
				<path class="st22" d="M165.6,158.1c-0.3,0.3-0.6,0.4-1,0.4c-0.4,0-0.7-0.1-1-0.4c-0.3-0.3-0.4-0.6-0.4-1v-12.6
					c0-0.4,0.1-0.7,0.4-1c0.3-0.3,0.6-0.4,1-0.4c0.4,0,0.7,0.1,0.9,0.4c0.3,0.3,0.4,0.6,0.4,1v12.6
					C166,157.6,165.9,157.9,165.6,158.1z"/>
				<path class="st22" d="M181.8,143.6c0.2,0.2,0.3,0.5,0.3,0.9v12.7c0,0.4-0.1,0.7-0.4,1c-0.3,0.3-0.6,0.4-1,0.4
					c-0.2,0-0.4,0-0.6-0.1c-0.2-0.1-0.3-0.2-0.4-0.3l-8-10.2v9.3c0,0.4-0.1,0.6-0.3,0.9c-0.2,0.2-0.5,0.3-0.9,0.3
					c-0.3,0-0.6-0.1-0.9-0.3c-0.2-0.2-0.3-0.5-0.3-0.9v-12.7c0-0.4,0.1-0.7,0.4-1c0.3-0.3,0.6-0.4,1-0.4c0.2,0,0.4,0,0.6,0.1
					c0.2,0.1,0.4,0.2,0.5,0.3l8,10.1v-9.4c0-0.4,0.1-0.6,0.3-0.9c0.2-0.2,0.5-0.3,0.9-0.3C181.3,143.2,181.5,143.3,181.8,143.6z"/>
				<path class="st22" d="M197.6,150.6c0.2,0.3,0.4,0.6,0.4,1v4.6c0,0.5-0.2,0.9-0.7,1.2c-1.4,0.9-3,1.3-4.7,1.3
					c-1.4,0-2.8-0.4-4-1.1c-1.2-0.7-2.2-1.7-2.9-2.9s-1.1-2.5-1.1-3.9c0-1.4,0.4-2.7,1.1-3.9s1.7-2.2,2.9-2.9c1.2-0.7,2.6-1.1,4-1.1
					c1.4,0,2.7,0.3,3.8,0.9c0.2,0.1,0.4,0.3,0.5,0.5s0.2,0.4,0.2,0.6c0,0.4-0.1,0.7-0.4,1c-0.2,0.3-0.5,0.4-0.9,0.4
					c-0.2,0-0.5-0.1-0.7-0.2c-0.8-0.3-1.6-0.5-2.4-0.5c-0.9,0-1.8,0.2-2.6,0.7s-1.4,1.1-1.9,1.9c-0.5,0.8-0.7,1.7-0.7,2.6
					c0,0.9,0.2,1.8,0.7,2.6c0.5,0.8,1.1,1.4,1.9,1.9s1.6,0.7,2.6,0.7c0.4,0,0.8,0,1.3-0.1c0.5-0.1,0.9-0.2,1.2-0.3v-2.8h-2.1
					c-0.4,0-0.7-0.1-1-0.4c-0.3-0.2-0.4-0.6-0.4-0.9c0-0.4,0.1-0.7,0.4-0.9c0.3-0.2,0.6-0.4,1-0.4h3.6
					C197,150.2,197.3,150.4,197.6,150.6z"/>
				<path class="st22" d="M203.3,159.6c-0.2,0.5-0.6,1-1,1.3s-0.8,0.6-1.2,0.6c-0.3,0-0.6-0.1-0.8-0.2c-0.2-0.1-0.3-0.4-0.3-0.7
					c0-0.2,0.1-0.4,0.2-0.5c0.1-0.1,0.2-0.2,0.4-0.2c0.1,0,0.2-0.1,0.3-0.1c0.4-0.2,0.6-0.5,0.6-0.9c0-0.2-0.1-0.3-0.2-0.4
					c-0.2-0.1-0.4-0.2-0.6-0.2c-0.2,0-0.5,0.1-0.6,0.2c-0.2-0.1-0.3-0.2-0.4-0.3c-0.1-0.1-0.1-0.3-0.1-0.5c0-0.3,0.1-0.6,0.3-0.8
					c0.2-0.3,0.5-0.5,0.8-0.6c0.3-0.2,0.6-0.2,0.9-0.2c0.6,0,1.1,0.2,1.5,0.6s0.5,1,0.5,1.7C203.7,158.7,203.6,159.1,203.3,159.6z"
					/>
				<path class="st23" d="M29.9,165.8L25.3,176h-0.7L20,165.8h0.8L25,175l4.1-9.2H29.9z"/>
				<path class="st23" d="M30.7,172.2c0-2.3,1.6-3.9,3.8-3.9c2.2,0,3.8,1.6,3.8,3.9s-1.6,3.9-3.8,3.9
					C32.3,176.1,30.7,174.5,30.7,172.2z M37.5,172.2c0-1.9-1.3-3.2-3.1-3.2c-1.7,0-3.1,1.3-3.1,3.2c0,1.9,1.3,3.2,3.1,3.2
					C36.2,175.4,37.5,174.1,37.5,172.2z"/>
				<path class="st23" d="M47.2,168.4v7.6h-0.7v-1.6c-0.5,1.1-1.5,1.7-2.9,1.7c-1.9,0-3.2-1.1-3.2-3.2v-4.4h0.7v4.4
					c0,1.7,0.9,2.6,2.5,2.6c1.7,0,2.8-1.2,2.8-3v-4.1H47.2z"/>
				<path class="st23" d="M49.2,175.1l0.3-0.6c0.6,0.5,1.6,0.9,2.7,0.9c1.6,0,2.2-0.6,2.2-1.4c0-2.2-5-0.6-5-3.6
					c0-1.2,1-2.1,2.9-2.1c1,0,2,0.3,2.6,0.7l-0.3,0.6c-0.6-0.5-1.5-0.7-2.3-0.7c-1.5,0-2.1,0.6-2.1,1.4c0,2.3,5,0.7,5,3.6
					c0,1.2-1.1,2.1-3,2.1C51,176.1,49.8,175.6,49.2,175.1z"/>
				<path class="st23" d="M59.9,175.1l0.3-0.6c0.6,0.5,1.6,0.9,2.7,0.9c1.6,0,2.2-0.6,2.2-1.4c0-2.2-5-0.6-5-3.6
					c0-1.2,1-2.1,2.9-2.1c1,0,2,0.3,2.6,0.7l-0.3,0.6c-0.6-0.5-1.5-0.7-2.3-0.7c-1.5,0-2.1,0.6-2.1,1.4c0,2.3,5,0.7,5,3.6
					c0,1.2-1.1,2.1-3,2.1C61.7,176.1,60.5,175.6,59.9,175.1z"/>
				<path class="st23" d="M67.1,172.2c0-2.3,1.6-3.9,3.8-3.9c2.2,0,3.8,1.6,3.8,3.9s-1.6,3.9-3.8,3.9
					C68.8,176.1,67.1,174.5,67.1,172.2z M74,172.2c0-1.9-1.3-3.2-3.1-3.2c-1.7,0-3.1,1.3-3.1,3.2c0,1.9,1.3,3.2,3.1,3.2
					C72.7,175.4,74,174.1,74,172.2z"/>
				<path class="st23" d="M83.7,168.4v7.6H83v-1.6c-0.5,1.1-1.5,1.7-2.9,1.7c-1.9,0-3.2-1.1-3.2-3.2v-4.4h0.7v4.4
					c0,1.7,0.9,2.6,2.5,2.6c1.7,0,2.8-1.2,2.8-3v-4.1H83.7z"/>
				<path class="st23" d="M93.6,171.6v4.4h-0.7v-4.4c0-1.7-0.9-2.6-2.5-2.6c-1.8,0-2.9,1.2-2.9,3v4.1h-0.7v-10.8h0.7v4.8
					c0.5-1,1.6-1.6,3-1.6C92.3,168.3,93.6,169.4,93.6,171.6z"/>
				<path class="st23" d="M103.3,168.4v7.6h-0.7v-1.8c-0.6,1.2-1.7,1.9-3.1,1.9c-2.1,0-3.8-1.6-3.8-3.9c0-2.3,1.6-3.9,3.8-3.9
					c1.4,0,2.5,0.7,3.1,1.8v-1.8H103.3z M102.6,172.2c0-1.9-1.3-3.2-3.1-3.2c-1.7,0-3.1,1.3-3.1,3.2c0,1.9,1.3,3.2,3.1,3.2
					C101.3,175.4,102.6,174.1,102.6,172.2z"/>
				<path class="st23" d="M106.2,166c0-0.3,0.3-0.6,0.6-0.6c0.3,0,0.6,0.3,0.6,0.6c0,0.3-0.3,0.6-0.6,0.6
					C106.4,166.5,106.2,166.3,106.2,166z M106.4,168.4h0.7v7.6h-0.7V168.4z"/>
				<path class="st23" d="M113.7,175.5c-0.4,0.4-1,0.5-1.6,0.5c-1.3,0-2.1-0.8-2.1-2.1v-7.3h0.7v1.7h2.4v0.6h-2.4v4.9
					c0,1,0.5,1.5,1.4,1.5c0.5,0,0.9-0.1,1.2-0.4L113.7,175.5z"/>
				<path class="st23" d="M121.3,174.3l0.4,0.5c-0.7,0.8-1.7,1.2-2.9,1.2c-2.3,0-3.9-1.6-3.9-3.9s1.5-3.9,3.7-3.9
					c2,0,3.5,1.5,3.6,3.5l-6.4,1.3c0.4,1.4,1.5,2.3,3.1,2.3C119.9,175.4,120.7,175.1,121.3,174.3z M115.7,172.1c0,0.1,0,0.3,0,0.5
					l5.8-1.1c-0.2-1.4-1.3-2.5-2.8-2.5C116.9,169,115.7,170.3,115.7,172.1z"/>
				<path class="st23" d="M123.4,175.1l0.3-0.6c0.6,0.5,1.6,0.9,2.7,0.9c1.6,0,2.2-0.6,2.2-1.4c0-2.2-5-0.6-5-3.6
					c0-1.2,1-2.1,2.9-2.1c1,0,2,0.3,2.6,0.7l-0.3,0.6c-0.6-0.5-1.5-0.7-2.3-0.7c-1.5,0-2.1,0.6-2.1,1.4c0,2.3,5,0.7,5,3.6
					c0,1.2-1.1,2.1-3,2.1C125.1,176.1,124,175.6,123.4,175.1z"/>
				<path class="st23" d="M135.2,174v-8.8h0.7v8.7c0,1,0.4,1.5,1.3,1.5c0.3,0,0.6-0.1,0.7-0.1l0.1,0.6c-0.3,0.1-0.6,0.2-0.9,0.2
					C135.9,176.1,135.2,175.3,135.2,174z"/>
				<path class="st23" d="M146.3,168.4v7.6h-0.7v-1.8c-0.6,1.2-1.7,1.9-3.1,1.9c-2.1,0-3.8-1.6-3.8-3.9c0-2.3,1.6-3.9,3.8-3.9
					c1.4,0,2.5,0.7,3.1,1.8v-1.8H146.3z M145.6,172.2c0-1.9-1.3-3.2-3.1-3.2c-1.7,0-3.1,1.3-3.1,3.2c0,1.9,1.3,3.2,3.1,3.2
					C144.3,175.4,145.6,174.1,145.6,172.2z"/>
				<path class="st23" d="M160.7,172.2c0,2.3-1.6,3.9-3.8,3.9c-1.4,0-2.5-0.7-3.1-1.9v1.8h-0.7v-10.8h0.7v4.9
					c0.6-1.1,1.7-1.8,3.1-1.8C159.1,168.3,160.7,169.9,160.7,172.2z M160,172.2c0-1.9-1.3-3.2-3.1-3.2s-3.1,1.3-3.1,3.2
					c0,1.9,1.3,3.2,3.1,3.2S160,174.1,160,172.2z"/>
				<path class="st23" d="M162.7,166c0-0.3,0.3-0.6,0.6-0.6c0.3,0,0.6,0.3,0.6,0.6c0,0.3-0.3,0.6-0.6,0.6
					C163,166.5,162.7,166.3,162.7,166z M163,168.4h0.7v7.6H163V168.4z"/>
				<path class="st23" d="M172.3,174.3l0.4,0.5c-0.7,0.8-1.7,1.2-2.9,1.2c-2.3,0-3.9-1.6-3.9-3.9s1.5-3.9,3.7-3.9
					c2,0,3.5,1.5,3.6,3.5l-6.4,1.3c0.4,1.4,1.5,2.3,3.1,2.3C170.9,175.4,171.7,175.1,172.3,174.3z M166.6,172.1c0,0.1,0,0.3,0,0.5
					l5.8-1.1c-0.2-1.4-1.3-2.5-2.8-2.5C167.9,169,166.6,170.3,166.6,172.1z"/>
				<path class="st23" d="M182.3,171.6v4.4h-0.7v-4.4c0-1.7-0.9-2.6-2.5-2.6c-1.8,0-2.9,1.2-2.9,3v4.1h-0.7v-7.6h0.7v1.6
					c0.5-1.1,1.6-1.7,3-1.7C181,168.3,182.3,169.4,182.3,171.6z"/>
				<path class="st23" d="M191.4,168.4l-3.4,7.6h-0.7l-3.4-7.6h0.8l3,6.8l3.1-6.8H191.4z"/>
				<path class="st23" d="M198.5,174.3l0.4,0.5c-0.7,0.8-1.7,1.2-2.9,1.2c-2.3,0-3.9-1.6-3.9-3.9s1.5-3.9,3.7-3.9
					c2,0,3.5,1.5,3.6,3.5l-6.4,1.3c0.4,1.4,1.5,2.3,3.1,2.3C197.1,175.4,197.9,175.1,198.5,174.3z M192.9,172.1c0,0.1,0,0.3,0,0.5
					l5.8-1.1c-0.2-1.4-1.3-2.5-2.8-2.5C194.1,169,192.9,170.3,192.9,172.1z"/>
				<path class="st23" d="M208.5,171.6v4.4h-0.7v-4.4c0-1.7-0.9-2.6-2.5-2.6c-1.8,0-2.9,1.2-2.9,3v4.1h-0.7v-7.6h0.7v1.6
					c0.5-1.1,1.6-1.7,3-1.7C207.2,168.3,208.5,169.4,208.5,171.6z"/>
				<path class="st23" d="M218.1,168.4v7.6h-0.7v-1.6c-0.5,1.1-1.5,1.7-2.9,1.7c-1.9,0-3.2-1.1-3.2-3.2v-4.4h0.7v4.4
					c0,1.7,0.9,2.6,2.5,2.6c1.7,0,2.8-1.2,2.8-3v-4.1H218.1z"/>
				<path class="st23" d="M222.6,175.2c0,0.3-0.1,0.5-0.3,0.7c-0.2,0.2-0.4,0.3-0.7,0.3s-0.5-0.1-0.7-0.3c-0.2-0.2-0.3-0.4-0.3-0.7
					s0.1-0.5,0.3-0.7c0.2-0.2,0.4-0.3,0.7-0.3s0.5,0.1,0.7,0.3C222.5,174.7,222.6,174.9,222.6,175.2z"/>
			</g>
		</g>
	</g>
	<g>
		<g>
			<g>
				<defs>
					<path id="SVGID_5_" d="M396.7,293.2c0.1-1.3,0.6-3.6,2.1-5.2c4.2-4.6,9.6-1.3,10.2-3.5c0.3-1-1.5-2.8-3.4-3.4
						c-4.9-1.5-5,2.2-6.3,1.1c-1.6-1.3,5.2-8,2.3-14c-1.5-3.1-5.8-5.1-8.1-3.9c-1.8,1-2.1,3.9-2.2,4.5c-0.2,3,2.4,6.4,1.2,8.2
						c-2.3,3.5-1.8-5.1-8.1-3.7c-3.2,0.8-3.6,2.9-3.2,3.7c0.6,1.3,2.9,0.1,5.8,1.9c2.1,1.3,3.2,3.6,2.7,4.3
						c-0.6,0.7-3.1-1.5-5.7-0.4c-1.5,0.6-2.5,2.3-2.2,3.1c0.2,0.5,1.1,0.4,2.6,0.7c0.9,0.2,4.8,0.9,5.7,3.2c0.2,0.4,0.5,1.5-0.5,3.3
						H396.7z"/>
				</defs>
				<clipPath id="SVGID_6_">
					<use xlink:href="#SVGID_5_"  style="overflow:visible;"/>
				</clipPath>
			</g>
		</g>
	</g>
</g>
<g id="Designed_by_Freepik">
</g>
</svg>
