<?xml version="1.0" encoding="utf-8"?>
<!-- Generator: Adobe Illustrator 22.1.0, SVG Export Plug-In . SVG Version: 6.00 Build 0)  -->
<svg version="1.1" id="Слой_1" xmlns="http://www.w3.org/2000/svg" xmlns:xlink="http://www.w3.org/1999/xlink" x="0px" y="0px"
	 viewBox="0 0 820 500" style="enable-background:new 0 0 820 500;" xml:space="preserve">
<style type="text/css">
	.st0{fill:url(#SVGID_1_);}
	.st1{fill:url(#SVGID_2_);}
	.st2{fill:#FFFFFF;}
	.st3{fill:url(#SVGID_3_);}
	.st4{fill:url(#SVGID_4_);}
	.st5{fill:url(#SVGID_5_);}
	.st6{fill:url(#SVGID_6_);}
	.st7{fill:url(#SVGID_7_);}
	.st8{fill:#FFCA55;}
	.st9{fill:#78C2FF;}
	.st10{fill:#FFC655;}
	.st11{fill:#FFBC55;}
	.st12{fill:#FFA655;}
	.st13{fill:#FFD255;}
	.st14{fill:#FAA146;}
	.st15{fill:#5478B3;}
	.st16{fill:#EEA886;}
	.st17{fill:#E55353;}
	.st18{fill:#5779D4;}
	.st19{fill:#434343;}
	.st20{fill:#B57433;}
	.st21{fill:#525252;}
	.st22{fill:#6E6E6E;}
	.st23{fill:#A77860;}
	.st24{fill:#5C5049;}
	.st25{fill:#FAB46C;}
	.st26{fill:#FCCCA2;}
	.st27{fill:#D4C3BD;}
	.st28{fill:#DE9673;}
	.st29{fill:#2F4563;}
	.st30{fill:#E6D3CC;}
	.st31{fill:#DED1C5;}
	.st32{fill:#BC8551;}
	.st33{fill:#23344A;}
	.st34{fill:#807066;}
</style>
<linearGradient id="SVGID_1_" gradientUnits="userSpaceOnUse" x1="422.3102" y1="388.5997" x2="420.2441" y2="339.0118" gradientTransform="matrix(-1 0 0 1 820.0004 0)">
	<stop  offset="0" style="stop-color:#FFEBE3"/>
	<stop  offset="1" style="stop-color:#EDDAD4"/>
</linearGradient>
<path class="st0" d="M729.2,346.4H90.5c0,0-50.3-2.5-24.3,23.5c26,26,126.1,19.8,188.1,57c62,37.2,52.1-17.6,133.5-20.7
	c81.4-3.1,330.1-8.3,332.3-31C722.4,352.5,756.3,346.9,729.2,346.4z"/>
<linearGradient id="SVGID_2_" gradientUnits="userSpaceOnUse" x1="208.8396" y1="259.9936" x2="270.5981" y2="259.9936" gradientTransform="matrix(-1 0 0 1 820.0004 0)">
	<stop  offset="0" style="stop-color:#40D5E6"/>
	<stop  offset="1" style="stop-color:#5577FF"/>
</linearGradient>
<path class="st1" d="M605.8,178.4c-5.3-2.5-10.6,14.4-10.6,14.4c-9.1,12-21.7-4-20.5,13.9c2.2,31.3-36,9.8-18.4,42.5
	c17.6,32.7-15.6,18.5-4.6,44.8c10.9,26.3-3.2,57.7,13.2,44.8c0,0,14.5-31.8,29.5-41.6c15-9.8-9-21.5-4.3-34.9
	c6.8-19.4,23.2-18.6,11.4-39.5C589.6,202,623.9,187,605.8,178.4z"/>
<path class="st2" d="M559.7,326.9c7.1-5,15.5-40,16-60.8c0.3-10.7,3.4-15.1,6.2-19c2.7-3.8,5-7,3.6-14.4
	c-2.6-14.2,4.2-20.3,4.2-20.4l-0.8-0.9c-0.3,0.3-7.3,6.6-4.6,21.5c1.3,6.9-0.8,9.9-3.4,13.5c-2.7,3.9-6.1,8.7-6.4,19.7
	c-0.5,22.4-9.1,55.4-15.5,59.9L559.7,326.9z"/>
<linearGradient id="SVGID_3_" gradientUnits="userSpaceOnUse" x1="254.145" y1="294.4554" x2="309.9937" y2="294.4554" gradientTransform="matrix(-1 0 0 1 820.0004 0)">
	<stop  offset="0" style="stop-color:#40D5E6"/>
	<stop  offset="1" style="stop-color:#5577FF"/>
</linearGradient>
<path class="st3" d="M544.7,316.7c-0.7-1.5-1.4-3.1-2.2-4.8c-4.1-8.6-7.7-10-13.7-12.4c-1.5-0.6-3.1-1.2-4.9-2
	c-8.6-3.9-6.9-9.5-5.4-14.5c0.2-0.7,0.4-1.4,0.6-2.1c0.8-2.9-0.7-4.4-2.9-6.7c-1.6-1.7-3.7-3.7-5.2-7c-1.7-3.6-0.8-5.5,0.2-6.5
	c2.2-2.1,7.2-1.7,11.9,0.9l0,0c1.5,0.8,2.7,2.1,4,3.4c3,3.2,6.8,7.1,16.3,7.1c5.4,0,8.4,0.8,9.9,2.5c1.7,2,1.4,4.9,1,9
	c-0.2,1.4-0.3,3-0.4,4.7c-0.6,10.3,5.4,17.7,5.5,17.7c3.6,4.3,8.1,13.3,6.2,18.8c-0.8,2.3-2.6,3.8-5.4,4.3c-1.1,0.2-2.1,0.3-3,0.3
	C550.4,329.5,547.9,324,544.7,316.7z M522.5,262.7c-4.2-2.3-8.8-2.8-10.5-1.1c-1.4,1.3-0.7,3.5,0.1,5.1c1.5,3.1,3.3,5,5,6.7
	c2.3,2.3,4.1,4.2,3.2,7.8c-0.2,0.7-0.4,1.4-0.6,2.1c-1.5,5-2.8,9.7,4.8,13.1c1.8,0.8,3.4,1.5,4.9,2c6,2.4,10,3.9,14.3,13
	c0.8,1.7,1.5,3.3,2.2,4.8c3.7,8.4,5.9,13.4,14,11.8c2.3-0.5,3.8-1.7,4.5-3.5c1.7-4.9-2.4-13.3-5.9-17.6c-0.3-0.3-6.4-7.8-5.7-18.6
	c0.1-1.7,0.3-3.4,0.5-4.8c0.4-3.8,0.7-6.5-0.7-8c-1.3-1.4-4.1-2.1-9-2.1c-10,0-14-4.2-17.1-7.5C524.9,264.5,523.8,263.4,522.5,262.7
	L522.5,262.7z"/>
<linearGradient id="SVGID_4_" gradientUnits="userSpaceOnUse" x1="258.9185" y1="302.5762" x2="300.8374" y2="302.5762" gradientTransform="matrix(-1 0 0 1 820.0004 0)">
	<stop  offset="0" style="stop-color:#40D5E6"/>
	<stop  offset="1" style="stop-color:#5577FF"/>
</linearGradient>
<path class="st4" d="M559.9,336.3l1.2-0.1c-0.1-1.1-1.5-27.2-12-34.9c-11.5-8.4-15.1-17.4-16.9-23.4c-2-7.1-12.4-9-12.8-9.1
	l-0.2,1.2c0.1,0,10.1,1.9,11.9,8.3c1.8,6.2,5.5,15.5,17.3,24.1C558.4,309.7,559.9,336,559.9,336.3z"/>
<linearGradient id="SVGID_5_" gradientUnits="userSpaceOnUse" x1="243.7811" y1="268.8448" x2="292.5985" y2="268.8448" gradientTransform="matrix(-1 0 0 1 820.0004 0)">
	<stop  offset="0" style="stop-color:#40D5E6"/>
	<stop  offset="1" style="stop-color:#5577FF"/>
</linearGradient>
<path class="st5" d="M535.9,204.7c7.5-2.6,5.9,11.8,9.1,22.4c3.1,10.6,35,4.6,21.6,31.2c-13.4,26.6,16.9,8.9,7.9,32.1
	c-9.1,23.2-0.8,48-10.6,41.7c-9.8-6.3-5.5-35.6-15.8-39c-10.2-3.5-11.9-7.5-1.8-17c10.1-9.4-26.5-18.8-17.5-37.9
	C537.9,219.3,527.3,207.7,535.9,204.7z"/>
<path class="st2" d="M559.3,331.1c0.9-4,8.9-39,1.5-43.2c-6.6-3.7-6.4-18.2-5.4-31.9c0.9-12.1-14.7-17.8-15.3-18l-0.4,1.1
	c0.2,0.1,15.4,5.6,14.5,16.8c-1.1,14.1-1.2,29,6,33c5.7,3.2,0.5,31.3-2,41.9L559.3,331.1z"/>
<linearGradient id="SVGID_6_" gradientUnits="userSpaceOnUse" x1="232.5786" y1="338.8677" x2="277.6265" y2="338.8677" gradientTransform="matrix(-1 0 0 1 820.0004 0)">
	<stop  offset="0" style="stop-color:#FF9340"/>
	<stop  offset="1" style="stop-color:#FFCE45"/>
</linearGradient>
<polygon class="st6" points="542.4,318.7 553,359 576.8,359 587.4,318.7 "/>
<linearGradient id="SVGID_7_" gradientUnits="userSpaceOnUse" x1="232.5786" y1="338.8677" x2="277.6265" y2="338.8677" gradientTransform="matrix(-1 0 0 1 820.0004 0)">
	<stop  offset="0" style="stop-color:#C97332"/>
	<stop  offset="1" style="stop-color:#FFCE45"/>
</linearGradient>
<path class="st7" d="M542.4,318.7c0,0,23.4,4.4,23.4,40.4h11l10.6-40.4H542.4z"/>
<polygon class="st8" points="403.9,193.4 454.4,193.6 454.2,230.2 454.2,237.9 446.5,230.2 403.7,230 "/>
<path class="st2" d="M425.2,213.2c0,2.1,1.7,3.9,3.8,3.9c2.1,0,3.9-1.7,3.9-3.8c0-2.1-1.7-3.9-3.8-3.9
	C426.9,209.4,425.2,211.1,425.2,213.2z"/>
<path class="st2" d="M412.5,213.2c0,2.1,1.7,3.9,3.8,3.9c2.1,0,3.9-1.7,3.9-3.8c0-2.1-1.7-3.9-3.8-3.9
	C414.3,209.4,412.5,211.1,412.5,213.2z"/>
<path class="st2" d="M437.6,213.3c0,2.1,1.7,3.9,3.8,3.9c2.1,0,3.9-1.7,3.9-3.8c0-2.1-1.7-3.9-3.8-3.9
	C439.3,209.4,437.6,211.2,437.6,213.3z"/>
<polygon class="st9" points="761,121.6 685.3,121.9 685.5,176.8 685.6,188.4 697.1,176.8 761.3,176.5 "/>
<path class="st2" d="M729.1,151.4c0,3.2-2.6,5.8-5.8,5.8c-3.2,0-5.8-2.6-5.8-5.8c0-3.2,2.6-5.8,5.8-5.8
	C726.5,145.6,729.1,148.2,729.1,151.4z"/>
<path class="st2" d="M748.1,151.3c0,3.2-2.6,5.8-5.8,5.8c-3.2,0-5.8-2.6-5.8-5.8c0-3.2,2.6-5.8,5.8-5.8
	C745.5,145.6,748.1,148.1,748.1,151.3z"/>
<path class="st2" d="M710.5,151.4c0,3.2-2.6,5.8-5.8,5.8c-3.2,0-5.8-2.6-5.8-5.8c0-3.2,2.6-5.8,5.8-5.8
	C707.9,145.7,710.5,148.3,710.5,151.4z"/>
<path class="st8" d="M490.2,198.3c0.1,0.2,0.3,0.5,0.4,0.7c1.4,2.1,4.7,6,12.8,12c2.2-9.8,2.2-15,1.9-17.4c0-0.3-0.1-0.5-0.1-0.8
	c-0.2-0.8-0.3-1.1-0.3-1.1c-1.5-4.2-6.2-6.3-10.3-4.8c-4.2,1.5-6.3,6.2-4.8,10.3C489.7,197.2,489.7,197.6,490.2,198.3z M492.5,196.1
	c-1-2.6,0.4-5.5,3-6.4c2.6-1,5.5,0.4,6.4,3c1,2.6-0.4,5.5-3,6.4C496.4,200.1,493.5,198.7,492.5,196.1z"/>
<rect x="518.1" y="150.2" transform="matrix(-0.9798 0.2001 -0.2001 -0.9798 1081.9021 207.9742)" class="st10" width="24.7" height="16.9"/>
<polygon class="st11" points="544.2,164.5 530.2,157.7 520,169.4 "/>
<polygon class="st12" points="516.7,152.8 530.9,160.7 540.9,147.9 "/>
<path class="st13" d="M612.9,156.5c-2.7-1.1-4.1-3.8-3.2-6.1c0.6-1.8,0.9-3.9,1-6.3c-1.8-2.8-2.3-6.3-1.2-9.5
	c1.9-5.9,8.2-9.1,14.1-7.2c5.9,1.9,9.1,8.2,7.2,14.1c-1.1,3.5-4,6.3-7.5,7.3c-1.2,1.3-2.8,3.3-3.9,5.5c-0.5,1.1-1.4,2-2.6,2.4
	c-1.1,0.4-2.3,0.4-3.5,0C613.2,156.6,613.1,156.6,612.9,156.5z M610.4,134.9c-1,3-0.5,6.2,1.2,8.8l0.1,0.1l0,0.1
	c-0.1,2.6-0.4,4.8-1,6.7l0,0l0,0c-0.7,1.8,0.5,4,2.7,4.9c1.1,0.4,2.2,0.5,3.2,0.1c1-0.3,1.7-1,2.1-1.9l0,0c1.1-2.3,2.9-4.4,4.1-5.8
	l0.1-0.1l0.1,0c3.3-0.9,6-3.5,7-6.8c1.7-5.4-1.2-11.2-6.6-13C617.9,126.5,612.1,129.5,610.4,134.9z"/>
<polygon class="st13" points="616.7,153.9 622.7,143.2 619.5,144.2 618.7,141.9 616.9,142.9 615.4,140.2 612.1,152.1 613,152.3 
	615.7,142.7 616.5,144.2 618.2,143.2 619,145.3 620.8,144.7 615.9,153.5 "/>
<rect x="608.8" y="155.4" transform="matrix(-0.928 -0.3725 0.3725 -0.928 1122.9354 530.9453)" class="st13" width="8" height="3.2"/>
<rect x="608.4" y="152.3" transform="matrix(-0.928 -0.3725 0.3725 -0.928 1125.3823 527.1505)" class="st13" width="10.5" height="5.2"/>
<path class="st14" d="M407.1,343c0.3,2.2,13.2,11.2,15.8,13c2,1.5,3.8,2.1,6.9,3.3c0,0,0,0,0,0c7,1.8,51.1,15,51.1,15
	c0.1-0.4,0.2-0.8,0.4-1.3c1.6,0.7,3.3,1.1,4.4,1.4c1.6,0.5,14.7,0.9,17.3,1.4c2.7,0.5,8,1.3,10.2-0.7c2.2-2.1-1.3-6.5-4.3-7.6
	c-3-1.1-13.8-1.4-15.8-1.6c-1.9-0.2-4.5-0.9-5.7-0.5c-0.4,0.1-2.1-0.4-4.3-1.1c0.1-0.8,0.1-1.3,0.1-1.3l-11.6-3.3l2.1-20.5
	c0,0-5-19-25.1-4.5c0,0-4.5,1.3-6,1.7c-0.1,0-0.3,0-0.5,0c-3.1-0.2-16.3-4.2-21-4.2c-5.1,0-6.8-0.3-8.6,0.6
	C410.6,333.6,406.8,340.8,407.1,343z"/>
<path class="st14" d="M427.7,375.1c2.2,2.1,7.5,1.2,10.2,0.7c2.7-0.5,15.7-0.9,17.3-1.4c1.6-0.5,4.7-1.2,6.9-2.7
	c0.2-0.1,0.6-0.3,1.2-0.5c0,0,0,0,0,0l3.3,2.3l45.3-14.4c2.7-0.7,4.9-1.9,6.3-3.1c2.4-2.1,15.5-10.9,15.8-13
	c0.3-2.2-3.5-9.3-5.3-10.3c-1.8-0.9-3.5-0.6-8.6-0.6s-20,4.6-21.5,4.2c-0.7-0.2-2.1-0.9-3.5-1.7c-1.6-0.9-3.2-1.8-3.2-1.8
	c-22-9.8-24.5,6.3-24.5,6.3l1.3,19.9c0,0-1.8,0.9-4.2,2l-10.9,3.1l1.4,1c-0.6,0.2-1.1,0.3-1.2,0.2c-1.2-0.4-3.8,0.3-5.7,0.5
	c-1.9,0.2-12.8,0.5-15.8,1.6C429,368.6,425.5,373,427.7,375.1z"/>
<path class="st15" d="M494.8,334.6c-1.5,0.1-11.8,6-14.2,7.5c3.7-1.9,17.7-5.8,17.7-5.8C497.6,336.1,496.2,335.4,494.8,334.6z"/>
<path class="st15" d="M442,336.3c0,0,17.7,4.3,20.9,6.1c-0.1-0.1-9.3-7.1-14.1-8c0,0-4.7,1.5-6.3,1.9
	C442.4,336.3,442.3,336.3,442,336.3C442,336.3,442,336.3,442,336.3z"/>
<path class="st16" d="M427.7,375.1c2.2,2.1,7.5,1.2,10.2,0.7c2.7-0.5,15.7-0.9,17.3-1.4c0.5-0.1,1.1-0.3,1.7-0.5h0
	c1.6-0.5,3.6-1.1,5.2-2.2c0.2-0.1,0.6-0.3,1.2-0.5l-8.2-5.9l-0.2-0.2c-0.6,0.2-1.1,0.3-1.2,0.2c-1.2-0.4-3.8,0.3-5.7,0.5
	c-1.9,0.2-12.8,0.5-15.8,1.6C429,368.6,425.5,373,427.7,375.1z"/>
<path class="st2" d="M427.7,375.1c2.2,2.1,7.5,1.2,10.2,0.7c2.7-0.5,15.7-0.9,17.3-1.4c0.5-0.1,1.1-0.3,1.7-0.5h0c0,0,0,0,0,0
	s-3.6-3.5-1.9-8.6l-0.2-0.2c-0.6,0.2-1.1,0.3-1.2,0.2c-1.2-0.4-3.8,0.3-5.7,0.5c-1.9,0.2-12.8,0.5-15.8,1.6
	C429,368.6,425.5,373,427.7,375.1z"/>
<path class="st17" d="M490.3,339.2c0,0.1,0,0.1,0,0.1C490.5,339.4,490.5,339.4,490.3,339.2z"/>
<path class="st18" d="M437.7,326.9c5.5,5.6,17.5,10.5,17.5,10.5s4.9-4.3,5.6-4.8c0,0,0,0,0,0c0.5,0,1.1,0.1,1.6,0
	c2.4-0.1,19.4,0.5,26.3,0.2c-1.7,1.1-2.9,1.9-2.9,1.9s3.8,3.6,4.6,4.5c0.7-1.6,26.6-14.4,25.7-18.8c-1.1-5.6-9-20.2-10-21.5
	c-1-1.2-6.1-12-9.1-13.5c-1.4-0.7-5.7-2.3-9.8-3.7c0,0,0,0,0,0c-4.4-1.5-8.5-2.9-8.5-2.9h-12c0,0-3.8,1.2-7.3,2.3
	c-1.9,0.6-3.8,1.2-4.8,1.6c-2.9,1-9,4-11.5,10.7c-2.5,6.7-11.9,21.4-12,21.7C430.2,316.9,429.9,319,437.7,326.9z M491.4,330.9
	c-0.4-3.7-0.7-4.5-1.1-5.8c-0.5-1.4-0.5-3.4,0.5-7.9c1.1-4.4,5-13,5-13s7.5,13,8.4,14.4c0.9,1.4-2.6,3.2-5.2,6.3
	C497.9,326.3,494.5,328.8,491.4,330.9z M441.2,315.8c1.4-1.3,10.5-13.6,10.5-13.6s0.8,6.4,1.8,8.7c1.1,2.3,2,8.4,1.9,10.5
	c0,1.4-0.5,5.3-0.7,7.8c-3.6-2.1-7.6-4.6-8.6-5.8C442.8,319.6,439.8,317.1,441.2,315.8z"/>
<path class="st16" d="M471.2,245.9c0,0-9.4,1.5-7.9,16.1c1.4,14.6,9.7,13.4,10.2,13.4c0.6,0,8.3,0.3,8.9-17.6
	C482.4,257.9,482.6,244.6,471.2,245.9z"/>
<path class="st16" d="M463.1,257.9c0,0-1-1.1-1.4,0c-0.4,1.1,1.4,6,1.5,6.3c0,0,0.2,0.4,0.4,0.2
	C463.8,264.2,463.1,257.9,463.1,257.9z"/>
<path class="st16" d="M482.1,257.7c0,0,1-1.1,1.4,0c0.4,1.1-1.3,6.1-1.3,6.3c0,0-0.2,0.4-0.4,0.2C481.5,264,482.1,257.7,482.1,257.7
	z"/>
<path class="st19" d="M463.1,260.2l1.3,1.8c0,0,0-3.9,0.2-4.5c0.2-0.6,0.5-2.5,0.7-2.9c0.2-0.4,8-2.6,15,0.6c0,0-0.3,2.8,0.4,3.1
	c0.7,0.3,0.3,4.6,0.3,4.6l1.1-1.2c0,0,1.7-11.3,1.3-12.4c-0.4-1.2-1.7-8.2-16-4c0,0-4.4-0.9-5.3,2.1
	C461.2,250.2,463.1,260.2,463.1,260.2z"/>
<path class="st20" d="M484.9,353.8c0,0,14.3-8.6,20.6-9.9c5.9-1.3,8.1-3.5,8.1-3.5s-9.4,0-15.7,4.4
	C493.7,347.8,484.9,353.8,484.9,353.8z"/>
<path class="st20" d="M472.2,359.7c0,0-24.9-13.1-35.1-15.9c-5.8-1.6-8.1-3.5-8.1-3.5s15.4,1.5,24.8,7.1
	C458.3,350.2,472.2,359.7,472.2,359.7z"/>
<path class="st16" d="M481.3,372.9c1.6,0.7,3.3,1.1,4.4,1.4c1.6,0.5,14.7,0.9,17.3,1.4c2.7,0.5,8,1.3,10.2-0.7
	c2.2-2.1-1.3-6.5-4.3-7.6c-3-1.1-13.8-1.4-15.8-1.6c-1.9-0.2-4.5-0.9-5.7-0.5c-0.4,0.1-2.1-0.4-4.3-1.1
	C483,365.5,481.3,372.9,481.3,372.9z"/>
<path class="st14" d="M472.2,371.7l-24.5-7.2l4.8-1.5C452.6,363,472.1,370.1,472.2,371.7z"/>
<polygon class="st20" points="472.2,371.7 460.7,368.2 468.7,372.8 "/>
<path class="st21" d="M480.1,342.4c0,0,0.2-0.1,0.5-0.3C480.4,342.2,480.2,342.3,480.1,342.4z"/>
<path class="st2" d="M485.7,374.4c1.6,0.5,14.7,0.9,17.3,1.4c2.7,0.5,8,1.3,10.2-0.7c2.2-2.1-1.3-6.5-4.3-7.6
	c-3-1.1-13.8-1.4-15.8-1.6c-1.9-0.2-4.5-0.9-5.7-0.5C487.4,365.3,490.6,370.4,485.7,374.4z"/>
<path class="st21" d="M493.8,340.3l3.8-21.5l-48.8-1.1l3.1,21.1c0,0,15.6,5.7,20.9,9C472.8,347.9,486.2,342.4,493.8,340.3z"/>
<path class="st22" d="M469.9,331.8c0,1.8,1.2,3.2,2.7,3.2c1.5,0,2.7-1.4,2.7-3.2c0-1.8-1.2-3.2-2.7-3.2
	C471.1,328.6,469.9,330,469.9,331.8z"/>
<path class="st16" d="M466.5,278.9C466.5,278.8,466.5,278.8,466.5,278.9c0.6-1.3,0.3-7.7,0.3-7.7s11.9-3,11.6-0.7
	c-0.3,2.3,1,8.7,1,8.7l6.1,2.1c0,0-6.5,17.5-14,15.2c-7.5-2.3-10.3-15.9-10.3-15.9L466.5,278.9z"/>
<path class="st23" d="M478.1,273.1c0,0-1.9,2.4-5.2,2.4c-2.2,0-3.7-0.5-5.9-2.7c0,0,0.9,4,5.9,4.3
	C472.9,277.2,476.5,277.7,478.1,273.1z"/>
<polygon class="st24" points="615.9,361.7 625.1,300.4 623.3,300.1 614.1,361.4 "/>
<polygon class="st24" points="627.1,361.7 636.3,300.4 634.5,300.1 625.3,361.4 "/>
<polygon class="st24" points="682.5,361.7 684.3,361.4 675.1,300.1 673.3,300.4 "/>
<path class="st25" d="M622.2,301l-7.2-75.9c0,0,12.6-1.6,20.2-1.2l11.5,77.1H622.2z"/>
<rect x="622.2" y="297.2" transform="matrix(-1 -4.488155e-11 4.488155e-11 -1 1268.8622 598.2324)" class="st25" width="24.5" height="3.9"/>
<path class="st25" d="M662.7,298l3.8-72.3c0,0-31.9-3.5-51.5-0.5L662.7,298z"/>
<path class="st26" d="M637.2,202.2c0,0-4.9-14.5,4.5-18.9c9.4-4.5,17.4,2,18.9,5.5c1.5,3.5,1.1,9.9-0.2,14.3
	c-1.3,4.4-1.1,11.2,1.7,13.5c2.8,2.3,6.3,6,6.1,13.7c-0.1,4.7-18.7-12.1-18.7-12.1L637.2,202.2z"/>
<path class="st27" d="M649.7,357.8c0,0,0.3,10.2-1.2,10.8c-1.5,0.6-7-2.9-9.4-6.5c-2.4-3.5,3.1-11.7,4-16.2c0.4-1.9,4.7-5.3,6.8-4.3
	c2.1,1,3.6,3.5,3.6,3.5S648.2,348.8,649.7,357.8z"/>
<path class="st28" d="M653.5,345.1c0,0-1.8,3.5-2.7,6.2c-0.9,2.7-1.1,10.2-1.7,10.7c-0.6,0.5-5.2-1.8-5.8-4.6
	c-0.6-2.8,1.3-8.4,3-11.3c1.8-2.9,3.6-4.4,3.6-4.4S653,342.3,653.5,345.1z"/>
<polygon class="st27" points="643.1,346 638.1,353.2 639.1,353.9 642.9,348.3 "/>
<path class="st28" d="M661,265.7c0,0-2.4,4.1,0,7.1c2.4,3,18.8,11.2,18.7,15.9c-0.1,4.7-3.1,12.2-4.2,14c-1.1,1.9-5,9.7-7.1,14.3
	c-2.1,4.6-14,26.5-16.3,31.4c-2.3,4.9-0.9-19.7-0.9-19.7l11.9-35l-27.9-27.1C635.2,266.6,638.6,259.1,661,265.7z"/>
<path class="st29" d="M650.4,219.4c0,0,7.7,1.7,10.8,3.5c3.1,1.8,9.9,10,9.9,13.6c0,3.5-29.8,6.9-29.8,6.9l-5.6,20.6
	c0,0-15.1-3.7-16.9-6.7c-1.8-3,5.9-24.7,7-29.3c1.1-4.6,6.7-7.7,13-8.5C645.1,218.5,650.4,219.4,650.4,219.4z"/>
<path class="st16" d="M632.1,266.4c0,0,0.5,3.5-0.9,5c-1.4,1.5-8,10.2-4.5,18.8c3.2,7.9,9.4,7.7,9.4,7.7h9.6c0,0-2.8,14.2-1.9,23.5
	c0.9,9.3,5.2,30.6,5.2,31.7c0.1,1.1,4.1,4.4,5.2,2.7c0,0,0.1-12.8,0.7-17.7c0.6-4.8,3.3-24.2,4.1-27.1c0.8-2.9,5.6-11.6,5.6-12.5
	c0-0.9,4.6-14.9-5.5-18.5C649.2,276.5,645.6,266.5,632.1,266.4z"/>
<path class="st30" d="M659.2,365.7c0,0,6.7,7.8,5.9,9.2c-0.7,1.4-7.3,2.1-11.4,0.9c-4.1-1.2-5-11-7.1-15.1c-0.9-1.7,0.3-7,2.5-7.6
	c2.2-0.6,5,0.4,5,0.4S652.3,359.7,659.2,365.7z"/>
<path class="st16" d="M654.1,353.5c0,0,0.8,3.8,1.8,6.5c1,2.7,5.6,8.6,5.4,9.4c-0.1,0.8-5.2,1.9-7.4,0.1c-2.2-1.8-4.3-7.3-4.8-10.7
	c-0.5-3.4,0-5.7,0-5.7S652,351.6,654.1,353.5z"/>
<polygon class="st30" points="646.6,360.7 647.3,369.5 648.4,369.4 647.9,362.6 "/>
<path class="st29" d="M626.7,290.2c3,8,9.4,7.7,9.4,7.7h9.6c0,0,4-6.4,13.9-7.5c2.2-0.2,4.7-0.2,7.4,0.2c0,0,0.1,0,0.1,0
	c13.1,1.9,10.6,6.7,10.5,6.9c1.1-2.7,2.2-6.9,2-9.2c-1.3-10.4-16.2-12.5-18.7-15.5c-2.4-3,0-7.1,0-7.1c-22.4-6.6-25.8,0.9-25.8,0.9
	c-1-0.1-3.5-1.6-4.6-1.6c0,0-1.1,2.5-1.9,4.7C628,271.7,623.4,281.6,626.7,290.2z"/>
<polygon class="st31" points="636,233.2 632.7,264 676.4,264 679.7,233.2 "/>
<rect x="629.2" y="261.2" transform="matrix(-1 -4.488866e-11 4.488866e-11 -1 1265.7079 525.248)" class="st31" width="7.3" height="2.8"/>
<rect x="586.2" y="264" transform="matrix(-1 -4.489843e-11 4.489843e-11 -1 1292.6102 532.2217)" class="st32" width="120.3" height="4.2"/>
<path class="st16" d="M645.6,185.8c0,0-9.8,2.9-8.4,16.5c1.4,13.6,7.8,12.9,8.4,13c0.6,0.1,8.2,0.6,10.6-15.9
	C658.6,182.9,645.6,185.8,645.6,185.8z"/>
<path class="st16" d="M640.9,212.7c0,0,0.5,4.5-0.3,7.3c-0.9,2.8,11.4,2.9,11.4,0.6c0-2.6-1.3-4.8-0.1-9.3
	C653.1,206.8,640.9,212.7,640.9,212.7z"/>
<path class="st26" d="M648.1,191.8c0,0-5.3,8.5-10.9,10.4c0,0-3.1-14.2,9.6-17.2c12.6-3,10.6,14.3,9.7,18.9
	C656.5,204,653.8,197.2,648.1,191.8z"/>
<path class="st23" d="M650.4,213.3c0,0-3.9,4-8.8,0.4c0,0,0.4,2.6,4,2.9C649.1,216.9,650.4,213.3,650.4,213.3z"/>
<path class="st33" d="M655.2,190.5c0,0-2.8-5.4-7.5-5.7c-4.7-0.2-7.5,3.9-7.5,3.9s1.8-4.6,7.5-4.6
	C653.4,184.1,655.2,190.5,655.2,190.5z"/>
<path class="st16" d="M639.3,219.4c0,0,0.2,9.4,7.6,9.7c7.5,0.3,5.9-9,5.9-9S647.4,217.8,639.3,219.4z"/>
<rect x="586.2" y="268.2" transform="matrix(-1 -4.533053e-11 4.533053e-11 -1 1175.4159 632.8682)" class="st34" width="3.1" height="96.4"/>
<rect x="703.4" y="268.2" transform="matrix(-1 -4.475499e-11 4.475499e-11 -1 1409.8055 632.8682)" class="st34" width="3.1" height="96.4"/>
</svg>
