<svg id="Calque_1" data-name="Calque 1" xmlns="http://www.w3.org/2000/svg" viewBox="0 0 135.68066 76.42822"><defs><style>.cls-1{font-size:6.30961px;fill:#aaa;font-family:Montserrat-ExtraBold, Montserrat ExtraBold;letter-spacing:0.01006em;}.cls-2,.cls-3,.cls-4{font-weight:700;}.cls-3{letter-spacing:0.013em;}.cls-4{letter-spacing:0.00998em;}.cls-5,.cls-6,.cls-7,.cls-8,.cls-9{font-size:6.36772px;font-family:Montserrat-Light, Montserrat Light;}.cls-5{letter-spacing:-0.0161em;}.cls-6{letter-spacing:0.00989em;}.cls-7{letter-spacing:-0.00314em;}.cls-8{letter-spacing:0.00997em;}.cls-9{letter-spacing:-0.00008em;}.cls-10{fill:#4a515b;}.cls-11{fill:#ed5660;}.cls-12{fill:#d54f5d;}</style></defs><title>page</title><text class="cls-1" transform="translate(28.65186 74.83643)"><tspan class="cls-2">ER</tspan><tspan class="cls-3" x="6.625" y="0">R</tspan><tspan class="cls-4" x="10.10156" y="0">OR. </tspan><tspan class="cls-5" x="20.73926" y="0">P</tspan><tspan class="cls-6" x="24.02441" y="0">age not </tspan><tspan class="cls-7" x="46.18555" y="0">f</tspan><tspan class="cls-8" x="48.0249" y="0">oun</tspan><tspan class="cls-9" x="58.75293" y="0">d</tspan><tspan class="cls-6" x="62.34375" y="0">. </tspan></text><path class="cls-10" d="M80.32929,96.11955V82.63349h-23.01V78.21454l22.09585-31.62h7.2381v30.782h6.9334v5.257h-6.9334V96.11955Zm0-18.74307V60.8426q0-3.88614.22866-7.77173h-.22866c-1.52377,2.89546-2.74284,5.02862-4.11425,7.31441L64.10039,77.22385v.15263Z" transform="translate(-57.31934 -40)"/><path class="cls-10" d="M179.7426,96.11955V82.63349h-23.01V78.21454l22.09586-31.62h7.23837v30.782H193v5.257h-6.93313V96.11955Zm0-18.74307V60.8426q0-3.88614.22866-7.77173h-.22866c-1.5235,2.89546-2.74284,5.02862-4.11426,7.31441L163.51369,77.22385v.15263Z" transform="translate(-57.31934 -40)"/><path class="cls-11" d="M126.82758,40a27.7157,27.7157,0,1,0,27.7157,27.7157A27.71573,27.71573,0,0,0,126.82758,40Zm15.4737,27.7157a15.43734,15.43734,0,0,1-.96763,5.39309l-21.5596-19.16423A15.47148,15.47148,0,0,1,142.30128,67.7157Zm-30.94745,0a15.44241,15.44241,0,0,1,.90085-5.20774l21.45184,19.06828A15.47368,15.47368,0,0,1,111.35383,67.7157Z" transform="translate(-57.31934 -40)"/><path class="cls-12" d="M147.18743,48.91686a27.7138,27.7138,0,0,1-42.58689,35.35707,27.71432,27.71432,0,1,0,42.58689-35.35707Z" transform="translate(-57.31934 -40)"/></svg>